<svg width="516" height="516" viewBox="0 0 516 516" fill="none" xmlns="http://www.w3.org/2000/svg">
<path d="M129.28 480.158L0.850239 257.711L129.28 35.2637L386.14 35.2637L514.571 257.711L386.14 480.158L129.28 480.158Z" stroke="#020F18" stroke-width="1.47263"/>
<path d="M480.158 386.141L257.711 514.57L35.2633 386.141L35.2633 129.28L257.711 0.849635L480.158 129.28L480.158 386.141Z" stroke="#020F18" stroke-width="1.47263"/>
<path d="M143.084 207.977L139.556 199.679L140.233 199.391L136.706 191.091L136.029 191.379L132.502 183.079L133.178 182.791L129.651 174.491L128.974 174.779L125.447 166.48L126.124 166.192L122.596 157.892L121.92 158.181L118.392 149.881L119.069 149.593L115.542 141.293L114.865 141.581L111.338 133.282L112.014 132.994L108.487 124.694L107.81 124.982L104.283 116.683L104.96 116.394L101.432 108.096L100.756 108.383L100.756 108.384L97.2292 100.084L97.2282 100.084L97.9049 99.7958L96.5778 96.6698L99.9713 96.6698L99.9713 95.9335L108.986 95.9335L108.986 96.6698L118 96.6698L118 95.9335L127.014 95.9335L127.014 96.6698L136.028 96.6698L136.028 95.9335L145.043 95.9335L145.043 96.6698L154.056 96.6698L154.056 95.9335L163.071 95.9335L163.071 96.6698L172.086 96.6698L172.086 95.9335L181.099 95.9335L181.099 96.6698L190.114 96.6698L190.114 95.9335L199.128 95.9335L199.128 96.6698L208.142 96.6698L208.142 95.9335L217.156 95.9335L217.156 96.6698L226.171 96.6698L226.171 95.9335L235.184 95.9335L235.184 96.6698L244.199 96.6698L244.199 95.9335L253.214 95.9335L253.214 96.6698L262.227 96.6698L262.227 95.9335L271.242 95.9335L271.242 96.6698L280.256 96.6698L280.256 95.9335L289.27 95.9335L289.27 96.6698L298.284 96.6698L298.284 95.9335L307.298 95.9335L307.298 96.6698L316.313 96.6698L316.313 95.9335L325.327 95.9335L325.327 96.6698L334.341 96.6698L334.341 95.9335L343.355 95.9335L343.355 96.6698L352.37 96.6698L352.37 95.9335L361.383 95.9335L361.383 96.6698L370.398 96.6698L370.398 95.9335L379.412 95.9335L379.412 96.6698L388.426 96.6698L388.426 95.9335L397.441 95.9335L397.441 96.6698L406.455 96.6698L406.455 95.9335L415.469 95.9335L415.469 96.6698L418.863 96.6698L417.535 99.7958L418.213 100.084L414.686 108.384L414.685 108.383L414.007 108.095L410.48 116.394L411.158 116.683L411.159 116.684L407.631 124.982L406.953 124.694L403.425 132.994L404.103 133.281L404.104 133.282L400.577 141.582L400.576 141.581L399.898 141.293L396.371 149.593L397.048 149.881L397.049 149.882L393.522 158.182L393.521 158.181L392.843 157.892L389.316 166.192L389.994 166.479L389.995 166.48L386.467 174.78L386.466 174.779L385.79 174.491L382.262 182.791L382.939 183.079L382.94 183.08L379.413 191.379L378.735 191.091L375.208 199.39L375.885 199.678L372.358 207.977L371.68 207.689L368.153 215.989L368.831 216.277L365.303 224.577L364.626 224.289L361.098 232.588L361.776 232.876L358.249 241.176L357.571 240.888L354.044 249.187L354.721 249.476L351.194 257.775L350.516 257.487L346.989 265.786L347.667 266.074L344.139 274.374L343.462 274.086L339.934 282.386L340.612 282.674L337.086 290.974L337.085 290.973L336.407 290.685L332.88 298.984L333.557 299.272L333.558 299.273L330.031 307.573L330.03 307.572L329.352 307.284L325.825 315.584L326.503 315.872L322.976 324.172L322.975 324.171L322.297 323.884L318.77 332.183L319.448 332.471L319.449 332.472L315.922 340.771L315.921 340.77L315.243 340.482L311.715 348.782L312.393 349.07L312.394 349.071L308.867 357.37L308.866 357.369L308.188 357.081L304.661 365.381L305.339 365.669L305.339 365.67L301.812 373.97L301.811 373.969L301.133 373.681L297.606 381.98L298.284 382.268L298.285 382.269L294.757 390.568L294.756 390.567L294.079 390.279L290.552 398.579L291.229 398.867L291.23 398.868L287.703 407.168L287.702 407.167L287.025 406.879L283.498 415.179L284.175 415.467L280.648 423.766L279.97 423.477L276.443 431.777L277.121 432.065L273.593 440.365L272.916 440.077L269.388 448.377L270.066 448.664L270.067 448.665L266.539 456.964L265.861 456.676L262.334 464.975L263.011 465.264L259.484 473.563L258.806 473.275L257.72 475.831L256.634 473.275L255.958 473.563L252.43 465.264L252.429 465.264L253.107 464.975L249.58 456.676L248.903 456.964L245.376 448.665L245.375 448.665L246.052 448.377L242.525 440.077L241.848 440.365L238.321 432.065L238.32 432.065L238.998 431.777L235.47 423.477L234.794 423.766L231.266 415.467L231.943 415.179L228.416 406.879L227.739 407.167L224.212 398.867L224.211 398.867L224.888 398.579L221.361 390.28L220.684 390.567L217.157 382.268L217.834 381.98L214.306 373.681L213.63 373.969L210.102 365.669L210.779 365.381L207.252 357.082L206.575 357.37L203.047 349.07L203.724 348.782L200.197 340.482L199.52 340.77L195.993 332.472L195.993 332.471L196.67 332.183L193.142 323.884L192.466 324.172L188.939 315.872L188.938 315.872L189.616 315.584L186.089 307.284L185.411 307.572L185.411 307.573L181.883 299.273L181.883 299.272L182.561 298.984L179.034 290.685L178.357 290.974L174.83 282.674L174.829 282.674L175.506 282.386L171.979 274.086L171.302 274.374L167.775 266.074L167.774 266.074L168.452 265.786L164.924 257.487L164.248 257.775L160.72 249.475L160.719 249.475L161.397 249.187L157.87 240.888L157.193 241.176L153.666 232.876L153.665 232.876L154.342 232.589L150.815 224.289L150.138 224.577L146.611 216.277L146.61 216.277L147.288 215.989L143.76 207.689L143.084 207.977Z" stroke="#020F18" stroke-width="1.47263" stroke-dasharray="8.84 8.84"/>
<path d="M207.506 372.828L199.208 376.355L198.92 375.679L190.62 379.206L190.908 379.883L182.608 383.41L182.32 382.733L174.02 386.261L174.308 386.938L166.009 390.465L165.721 389.788L157.421 393.315L157.71 393.992L149.41 397.52L149.122 396.843L140.822 400.37L141.11 401.047L132.811 404.574L132.523 403.897L124.223 407.425L124.511 408.102L116.212 411.629L115.923 410.952L107.625 414.48L107.912 415.156L107.913 415.156L99.6129 418.683L99.6129 418.684L99.3248 418.007L96.1988 419.334L96.1988 415.94L95.4625 415.94L95.4625 406.926L96.1988 406.926L96.1988 397.912L95.4625 397.912L95.4625 388.897L96.1988 388.897L96.1988 379.884L95.4625 379.884L95.4625 370.869L96.1988 370.869L96.1988 361.855L95.4625 361.855L95.4625 352.841L96.1988 352.841L96.1988 343.826L95.4625 343.826L95.4625 334.813L96.1988 334.813L96.1988 325.798L95.4625 325.798L95.4625 316.784L96.1988 316.784L96.1988 307.77L95.4625 307.77L95.4625 298.756L96.1988 298.756L96.1988 289.741L95.4625 289.741L95.4625 280.728L96.1988 280.728L96.1988 271.713L95.4625 271.713L95.4625 262.698L96.1988 262.698L96.1988 253.685L95.4625 253.685L95.4625 244.67L96.1988 244.67L96.1988 235.656L95.4625 235.656L95.4625 226.642L96.1988 226.642L96.1988 217.628L95.4625 217.628L95.4625 208.613L96.1988 208.613L96.1988 199.599L95.4625 199.599L95.4625 190.585L96.1988 190.585L96.1988 181.57L95.4625 181.57L95.4625 172.557L96.1988 172.557L96.1988 163.542L95.4625 163.542L95.4625 154.528L96.1988 154.528L96.1988 145.514L95.4625 145.514L95.4625 136.5L96.1988 136.5L96.1988 127.485L95.4625 127.485L95.4625 118.471L96.1989 118.471L96.1989 109.457L95.4625 109.457L95.4625 100.442L96.1989 100.442L96.1989 97.0488L99.3248 98.377L99.6129 97.6992L107.913 101.226L107.912 101.227L107.624 101.904L115.923 105.432L116.212 104.754L116.213 104.753L124.511 108.281L124.223 108.959L132.523 112.486L132.81 111.809L132.811 111.808L141.111 115.335L141.11 115.336L140.822 116.014L149.122 119.541L149.41 118.863L149.411 118.862L157.711 122.39L157.71 122.391L157.422 123.068L165.721 126.596L166.008 125.918L166.009 125.917L174.309 129.444L174.308 129.445L174.02 130.122L182.32 133.649L182.608 132.973L182.609 132.972L190.908 136.499L190.62 137.177L198.919 140.704L199.207 140.026L207.506 143.554L207.218 144.231L215.518 147.759L215.806 147.081L224.106 150.608L223.818 151.286L232.117 154.814L232.405 154.136L240.705 157.663L240.417 158.341L248.716 161.868L249.005 161.19L257.304 164.718L257.016 165.396L265.315 168.923L265.603 168.245L273.903 171.772L273.615 172.45L281.915 175.978L282.203 175.3L290.503 178.826L290.502 178.827L290.214 179.505L298.513 183.032L298.801 182.355L298.802 182.354L307.102 185.881L307.101 185.882L306.813 186.56L315.113 190.087L315.401 189.409L323.701 192.936L323.7 192.937L323.413 193.614L331.712 197.142L332 196.464L332.001 196.463L340.3 199.99L340.299 199.991L340.011 200.669L348.311 204.196L348.599 203.519L348.6 203.518L356.899 207.045L356.898 207.046L356.61 207.724L364.91 211.251L365.198 210.573L365.199 210.572L373.499 214.1L373.498 214.101L373.21 214.778L381.509 218.306L381.797 217.628L381.798 217.627L390.097 221.154L390.096 221.155L389.808 221.833L398.108 225.359L398.396 224.683L398.397 224.682L406.697 228.209L406.696 228.21L406.408 228.887L414.708 232.414L414.996 231.736L423.295 235.264L423.006 235.941L431.306 239.469L431.594 238.791L439.894 242.318L439.606 242.996L447.906 246.523L448.193 245.846L448.194 245.845L456.493 249.373L456.205 250.051L464.505 253.578L464.793 252.9L473.092 256.428L472.804 257.106L475.36 258.191L472.804 259.277L473.092 259.954L464.793 263.481L464.793 263.482L464.505 262.805L456.205 266.332L456.493 267.009L448.194 270.536L448.194 270.537L447.906 269.859L439.606 273.387L439.894 274.064L431.594 277.591L431.594 277.592L431.306 276.914L423.006 280.441L423.295 281.118L414.996 284.646L414.708 283.969L406.408 287.496L406.696 288.173L398.396 291.7L398.396 291.701L398.108 291.023L389.809 294.551L390.096 295.228L381.797 298.755L381.509 298.078L373.21 301.606L373.498 302.282L365.198 305.81L364.91 305.133L356.611 308.66L356.899 309.337L348.599 312.864L348.311 312.188L340.011 315.715L340.299 316.392L332.001 319.919L332 319.919L331.712 319.242L323.413 322.77L323.701 323.445L315.401 326.973L315.401 326.974L315.113 326.296L306.813 329.823L307.101 330.501L307.102 330.501L298.802 334.028L298.801 334.028L298.513 333.351L290.214 336.878L290.503 337.555L282.203 341.082L282.203 341.083L281.915 340.405L273.615 343.933L273.903 344.609L265.603 348.137L265.603 348.138L265.315 347.46L257.016 350.987L257.304 351.664L249.004 355.191L249.004 355.192L248.716 354.515L240.417 358.042L240.705 358.719L232.405 362.246L232.405 362.247L232.118 361.569L223.818 365.097L224.106 365.773L215.806 369.301L215.806 369.302L215.518 368.624L207.218 372.151L207.506 372.828Z" stroke="#020F18" stroke-width="1.47263" stroke-dasharray="8.84 8.84"/>
<path d="M307.932 372.828L316.231 376.356L316.519 375.679L324.819 379.206L324.531 379.883L332.831 383.41L333.119 382.733L341.419 386.261L341.13 386.938L349.429 390.465L349.717 389.788L358.017 393.316L357.729 393.992L366.029 397.52L366.317 396.843L374.617 400.37L374.329 401.047L382.628 404.574L382.916 403.898L391.215 407.425L390.927 408.102L399.227 411.629L399.515 410.952L407.814 414.48L407.527 415.156L407.526 415.156L415.826 418.683L415.826 418.684L416.114 418.007L419.24 419.334L419.24 415.941L419.976 415.941L419.976 406.926L419.24 406.926L419.24 397.912L419.976 397.912L419.976 388.898L419.24 388.898L419.24 379.884L419.976 379.884L419.976 370.869L419.24 370.869L419.24 361.856L419.976 361.856L419.976 352.841L419.24 352.841L419.24 343.826L419.976 343.826L419.976 334.813L419.24 334.813L419.24 325.798L419.976 325.798L419.976 316.784L419.24 316.784L419.24 307.77L419.976 307.77L419.976 298.756L419.24 298.756L419.24 289.741L419.976 289.741L419.976 280.728L419.24 280.728L419.24 271.713L419.976 271.713L419.976 262.698L419.24 262.698L419.24 253.685L419.976 253.685L419.976 244.67L419.24 244.67L419.24 235.656L419.976 235.656L419.976 226.642L419.24 226.642L419.24 217.628L419.976 217.628L419.976 208.613L419.24 208.613L419.24 199.599L419.976 199.599L419.976 190.585L419.24 190.585L419.24 181.57L419.976 181.57L419.976 172.557L419.24 172.557L419.24 163.542L419.976 163.542L419.976 154.528L419.24 154.528L419.24 145.514L419.976 145.514L419.976 136.5L419.24 136.5L419.24 127.485L419.976 127.485L419.976 118.471L419.24 118.471L419.24 109.457L419.976 109.457L419.976 100.442L419.24 100.442L419.24 97.0489L416.114 98.377L415.826 97.6993L407.526 101.226L407.527 101.227L407.815 101.904L399.515 105.432L399.227 104.754L399.226 104.753L390.927 108.281L391.215 108.959L382.916 112.486L382.629 111.809L382.628 111.808L374.328 115.335L374.329 115.336L374.617 116.014L366.317 119.541L366.029 118.863L366.028 118.862L357.728 122.39L357.729 122.391L358.017 123.068L349.717 126.596L349.43 125.918L349.429 125.917L341.13 129.444L341.13 129.445L341.419 130.122L333.119 133.649L332.831 132.973L332.83 132.972L324.531 136.499L324.819 137.177L316.52 140.704L316.232 140.026L307.932 143.554L308.22 144.232L299.921 147.759L299.632 147.081L291.333 150.608L291.621 151.286L283.322 154.814L283.034 154.136L274.734 157.663L275.022 158.341L266.722 161.868L266.434 161.19L258.134 164.718L258.422 165.396L250.124 168.923L249.836 168.245L241.536 171.773L241.824 172.45L233.524 175.978L233.236 175.3L224.936 178.826L224.937 178.827L225.224 179.505L216.925 183.032L216.637 182.355L216.636 182.354L208.337 185.881L208.338 185.882L208.626 186.56L200.326 190.087L200.038 189.409L191.738 192.936L191.739 192.937L192.026 193.614L183.727 197.142L183.439 196.464L183.438 196.463L175.138 199.99L175.139 199.991L175.427 200.669L167.128 204.196L166.839 203.519L166.838 203.518L158.54 207.045L158.541 207.046L158.829 207.724L150.529 211.251L150.241 210.573L150.24 210.572L141.94 214.1L141.941 214.101L142.229 214.778L133.929 218.306L133.641 217.628L133.64 217.627L125.341 221.154L125.342 221.155L125.63 221.833L117.331 225.359L117.043 224.683L117.042 224.682L108.742 228.209L108.743 228.21L109.031 228.887L100.731 232.414L100.443 231.736L92.1442 235.264L92.4322 235.941L84.1324 239.469L83.8443 238.791L75.5445 242.318L75.8326 242.996L67.5328 246.523L67.2457 245.846L67.2447 245.845L58.9459 249.373L59.234 250.051L50.9342 253.578L50.6461 252.9L42.3463 256.428L42.6344 257.106L40.0787 258.191L42.6344 259.277L42.3463 259.954L50.6461 263.481L50.6461 263.482L50.9342 262.805L59.234 266.332L58.9459 267.009L67.2447 270.536L67.2447 270.537L67.5328 269.859L75.8326 273.387L75.5445 274.064L83.8443 277.591L83.8443 277.592L84.1324 276.914L92.4322 280.441L92.1441 281.118L100.443 284.646L100.731 283.969L109.031 287.496L108.743 288.173L117.043 291.7L117.043 291.701L117.331 291.023L125.629 294.551L125.342 295.228L133.641 298.755L133.929 298.078L142.229 301.606L141.941 302.282L150.241 305.81L150.529 305.133L158.828 308.66L158.54 309.337L166.839 312.864L167.128 312.188L175.427 315.715L175.139 316.392L183.438 319.919L183.439 319.919L183.727 319.242L192.026 322.77L191.738 323.445L200.038 326.973L200.038 326.974L200.326 326.296L208.626 329.823L208.338 330.501L208.337 330.501L216.636 334.028L216.637 334.028L216.925 333.351L225.224 336.878L224.936 337.555L233.236 341.082L233.236 341.083L233.524 340.405L241.824 343.933L241.536 344.609L249.836 348.137L249.836 348.138L250.124 347.46L258.422 350.987L258.134 351.664L266.434 355.191L266.434 355.192L266.722 354.515L275.022 358.042L274.734 358.719L283.034 362.246L283.034 362.247L283.321 361.569L291.621 365.097L291.333 365.774L299.632 369.301L299.632 369.302L299.921 368.624L308.22 372.151L307.932 372.828Z" stroke="#020F18" stroke-width="1.47263" stroke-dasharray="8.84 8.84"/>
</svg>
