<svg width="45" height="42" viewBox="0 0 45 42" fill="none" xmlns="http://www.w3.org/2000/svg">
<path d="M11.5658 3.65278L11.8153 3.64707C11.8982 3.80092 11.9056 3.81424 11.9558 3.98283C12.0016 4.41328 11.756 6.37393 11.6175 6.61564C11.4319 6.20073 11.4326 5.56077 11.3286 5.08512C11.2333 4.64849 11.1435 4.40408 10.9854 3.99489L11.0243 3.97903C11.3359 3.87054 11.3298 3.88609 11.5658 3.65278Z" fill="#1297F5" fill-opacity="0.2"/>
<path d="M24.4574 0.0275096L24.6892 0.119483C28.1216 1.4766 31.2973 3.93842 34.4968 5.81739C34.8978 6.05291 35.3464 6.29906 35.7318 6.55711L35.8815 6.99136C36.7121 7.55139 37.3896 8.43116 38.3219 8.75169C38.4103 8.78214 38.7749 8.69713 38.8915 8.67239L38.7883 8.96422C38.6604 9.09126 38.5948 9.18277 38.4414 9.25906L38.3549 9.14883L38.2417 9.24828L38.058 9.2164C37.9397 8.96612 37.6043 8.75121 37.3811 8.57786C36.7235 10.7996 36.4711 11.8067 35.1245 13.7115C35.5494 13.9359 35.3134 13.8213 35.7562 13.8523C36.0381 14.0168 36.0517 14.0336 36.3637 14.0585C36.6691 14.0092 36.6727 13.9521 36.902 14.0669C36.9645 14.2742 36.9733 14.3169 37.0021 14.5329C37.2845 16.9027 37.5755 19.5514 37.4223 21.9368C37.38 22.5945 36.0139 24.2108 35.5587 24.723L35.892 24.8533C35.3758 25.4414 34.8715 25.8806 34.3905 26.4159C34.878 27.2998 35.5786 27.6495 36.0298 28.3668C35.4585 28.1453 34.5864 27.1364 34.1696 26.653C33.5663 27.2774 33.6173 27.6695 34.1774 28.3213C34.272 28.4566 35.0724 29.0331 35.2229 29.0038C36.2161 28.8098 37.2233 28.6668 38.2111 28.4541C38.5821 28.3743 38.8743 28.1959 39.004 27.81L39.1261 27.7358C39.1335 27.8793 39.1376 27.8782 39.1677 28.0181C39.5361 27.9521 39.6717 27.5943 40.0793 27.4368C39.9973 27.6655 40.0056 27.6841 39.8751 27.8879L39.8828 27.9962C39.4493 28.2238 39.0258 28.4633 38.5621 28.61C37.6851 28.8874 36.3547 28.9082 35.5429 29.2601C35.3709 29.3326 35.2127 29.438 35.0758 29.5713C34.0935 30.5154 32.9285 32.4318 31.9045 33.2139C29.9831 34.6811 29.0615 35.6775 27.9203 37.8751C27.7336 38.2345 25.8599 40.4766 25.4999 40.387C25.0936 40.7326 24.453 41.2428 24.0854 41.6035L23.6129 41.7768C23.1598 41.9478 23.051 41.9542 22.5853 42C22.3568 41.6882 20.7569 39.8593 20.7369 39.8029L20.6583 39.7104C20.6926 39.6257 20.6945 39.6056 20.7471 39.5366C21.3022 38.8088 21.6639 37.2175 22.1139 36.5301C22.451 36.0153 24.2305 35.3525 24.7295 34.8545C24.7456 34.8369 24.7616 34.8193 24.7775 34.8015C25.4139 34.4304 27.2886 32.8182 27.9599 32.2602C28.8115 31.5706 30.2358 30.7321 30.7353 29.7067C30.8532 29.4645 30.883 28.8766 30.9575 28.5726L30.8671 28.5223C30.0495 28.8054 29.1416 28.9481 28.2823 28.9345C27.7742 28.9264 27.2567 28.8888 26.7851 28.6693C25.9291 28.2707 21.3734 24.5414 20.6562 23.7558C20.8208 24.1912 20.4618 26.5821 20.3031 26.968C20.2313 27.5207 20.1003 28.3488 20.0703 28.8853L19.9165 29.9543C19.4687 30.4437 19.2943 31.5817 18.9789 32.1151C18.3068 33.252 17.7323 33.634 17.2035 34.9365C17.1636 35.096 17.1072 35.3573 17.0591 35.5044C17.1038 35.8925 17.2864 36.5028 17.2543 36.7444L17.2938 36.9071C17.4802 37.5257 17.7571 37.9717 17.9354 38.552L17.5071 39.1061L17.5241 39.241C17.4941 39.2519 17.3892 39.237 17.3509 39.2338L17.1773 39.408L17.0713 39.4484C16.8099 39.6735 16.7181 39.7655 16.4244 39.9253C16.2683 39.8915 16.3396 39.928 16.2135 39.8095L16.1634 39.7393C16.0034 39.6952 16.0564 39.7215 15.9143 39.551C14.8656 38.2933 13.8407 37.7339 12.8836 36.2553L12.8464 36.3438L12.8275 36.4267C12.5989 36.3775 12.2966 36.1714 12.1492 35.9937C11.4227 35.1194 10.3024 35.0258 9.74082 33.9206C9.59086 33.6431 9.22505 32.903 8.98703 32.8074L8.81211 32.6773C8.8325 32.6258 8.84476 32.523 8.85495 32.4628C8.57867 31.9511 8.23754 31.4834 7.841 31.0731L5.68837 28.2366C5.43588 27.8133 4.49726 26.3937 4.18257 26.1777C3.7123 25.1984 4.04591 22.8978 3.97972 21.5244C2.51352 20.0377 2.06423 17.6123 1.04524 15.6409C0.183896 13.7583 -0.649969 11.6979 0.748126 9.79466C2.09111 8.83178 3.66296 7.90761 5.07819 7.07733C6.066 6.50588 7.33645 5.92571 8.3872 5.36347C8.76749 5.15046 9.13005 4.917 9.55097 4.83199C9.988 4.68655 10.235 4.43659 10.701 4.26514C10.8193 4.98964 11.0345 6.0978 11.1125 6.79803L11.1958 7.3571C11.2763 7.92997 11.4252 9.49475 11.6325 9.89664L11.8014 9.89934C11.8639 9.40022 11.8567 8.75946 11.927 8.16724C11.824 7.54171 12.4142 4.64246 12.5658 3.89259C13.05 3.62693 13.3656 3.4163 13.8241 3.09767C14.3145 3.01139 15.1782 2.44153 15.8655 2.36271C16.2827 2.20553 16.9019 2.03472 17.3404 1.89816C17.7358 1.91751 17.6608 1.8547 17.9565 2.05185L18.0585 2.24693C18.1247 1.8942 18.048 2.03202 18.2598 1.79777L18.4225 1.78666C18.6404 2.04138 18.5518 2.1321 18.4089 2.4206L18.5524 2.47928L18.611 2.75271L18.6574 2.68927C18.8925 2.24931 18.7538 1.89118 19.2413 1.79745C19.2768 1.66169 19.2355 1.62314 19.1927 1.44361C19.2871 1.22807 19.2929 1.28786 19.5742 1.17232C19.8246 1.36447 19.7266 1.30832 20.079 1.32021L20.1374 1.25075L20.2814 1.32957C20.2819 1.18807 20.294 1.25376 20.2501 1.13135C20.4772 1.08669 20.7148 1.02358 20.9405 0.967816L21.1171 0.894572C21.2921 0.979504 21.3611 1.0162 21.5241 1.12432L21.5607 1.17879C21.0129 2.30894 19.8032 4.14651 19.4224 5.07751C19.762 5.03754 20.6109 3.45262 20.9047 3.05786C20.9328 2.84074 21.0386 2.72115 21.1574 2.53939C21.3694 2.59887 21.3594 2.59395 21.5793 2.57492C21.9406 2.77254 22.0173 2.85723 22.4135 2.85929L23.7846 0.280052L23.9593 0.144447L24.0901 0.253756L24.1683 0.00785815L24.4574 0.0275096Z" fill="#020F18"/>
<path d="M13.7187 15.2303C14.3488 15.0528 14.505 15.4691 14.848 15.9583L14.9792 16.1208L15.3727 16.6648L15.4937 16.8393L16.2544 17.992C17.3953 19.675 18.0214 20.5435 18.2612 22.6949C18.3244 23.2629 18.4083 23.9209 18.3825 24.4962C18.4779 24.7008 18.5318 24.9174 18.6821 25.0067C18.6864 24.1859 18.3807 22.1254 18.1916 21.2478C18.1578 21.091 18.1319 21.2255 18.0941 20.9235C18.2138 20.9712 20.296 23.374 20.6562 23.7558C20.8208 24.1912 20.4618 26.5821 20.3031 26.968C20.2313 27.5207 20.1003 28.3488 20.0703 28.8853L19.9165 29.9543C19.4687 30.4437 19.2943 31.5817 18.9789 32.1151C18.3068 33.252 17.7323 33.634 17.2035 34.9365C17.1636 35.096 17.1072 35.3573 17.0591 35.5044C17.1038 35.8925 17.2864 36.5028 17.2543 36.7444L17.2938 36.9071C17.4802 37.5257 17.7571 37.9717 17.9354 38.552L17.5071 39.1061L17.5241 39.241C17.4941 39.2519 17.3892 39.237 17.3509 39.2338L17.1773 39.408L17.0713 39.4484C16.8099 39.6735 16.7181 39.7655 16.4244 39.9253C16.2683 39.8915 16.3396 39.928 16.2135 39.8095L16.1634 39.7393C16.0034 39.6952 16.0564 39.7215 15.9143 39.551C14.8656 38.2933 13.8407 37.7339 12.8836 36.2553L12.8464 36.3438C11.9918 35.4461 11.0414 35.0161 10.3392 34.3094C9.78131 33.5084 9.32049 32.6252 8.77399 31.8139C8.02434 30.6328 6.96561 29.5394 6.18818 28.4005C5.93451 28.029 4.77562 26.3896 4.63718 26.0822L4.9956 26.0855C4.77635 25.9529 4.53804 25.7834 4.32293 25.6383C4.2656 24.4345 4.38439 22.6703 4.40773 21.3918C4.64737 21.5278 4.91656 21.6572 5.16314 21.782C7.38151 23.3528 9.69221 26.5271 11.6962 28.5004C12.2838 29.0788 13.0506 30.1786 13.3689 30.9725C13.486 30.7031 13.3747 30.4444 13.3481 30.1278C12.8418 29.082 13.2385 25.2792 13.2621 23.8892C13.2731 23.1951 13.2248 22.5014 13.1179 21.8167C13.0863 21.2643 13.198 19.7224 13.2378 19.095C13.3079 17.987 13.3282 16.6501 13.4436 15.5743L13.4811 15.3167L13.7187 15.2303Z" fill="#6E54FF"/>
<path d="M24.4574 0.0275096L24.6892 0.119483C28.1216 1.4766 31.2973 3.93842 34.4968 5.81739C34.8978 6.05291 35.3464 6.29906 35.7318 6.55711L35.8815 6.99136C36.7121 7.55139 37.3896 8.43116 38.3219 8.75169C38.4103 8.78214 38.7749 8.69713 38.8915 8.67239L38.7883 8.96422C38.6604 9.09126 38.5948 9.18277 38.4414 9.25906L38.3549 9.14883L38.2417 9.24828L38.058 9.2164C37.9397 8.96612 37.6043 8.75121 37.3811 8.57786C36.7235 10.7996 36.4711 11.8067 35.1245 13.7115L34.3274 13.752C34.134 13.7283 33.9322 13.6818 33.7893 13.8349C33.399 14.2528 32.9438 15.1042 32.5675 15.4994C31.8038 16.302 30.8146 16.9893 30.0198 17.7571C29.5659 18.0149 28.9024 18.8761 28.4163 18.9089L28.568 18.648C28.5562 18.4802 28.572 18.3992 28.4435 18.2724C27.2788 17.1479 25.7915 16.407 24.8396 15.0054C23.7234 13.3619 23.9292 14.3589 23.2165 14.2814C23.0196 14.1099 22.8649 13.5616 22.6249 13.2151L22.506 13.2303C22.5053 13.4397 22.5175 13.4357 22.4336 13.6205C22.3819 13.4186 22.1895 12.8108 22.2368 12.6685L22.4442 12.9099L22.5351 12.885L22.6134 12.7206C22.3933 12.3923 22.0269 12.6954 21.7723 12.2123L21.8401 12.132L22.1755 11.9907L22.2192 11.5412L22.441 11.6146L22.5448 11.6757C23.0754 9.48666 23.9929 7.72902 24.9192 5.71239C24.4168 4.48529 23.9916 3.64913 23.3851 2.48293L23.5191 2.25946C23.6342 1.8647 24.044 0.991654 24.2259 0.579066L24.4574 0.0275096Z" fill="#1297F5"/>
<path d="M34.3274 13.752L35.1245 13.7115C35.5494 13.9359 35.3134 13.8213 35.7562 13.8523C36.0381 14.0168 36.0517 14.0336 36.3637 14.0585C36.6691 14.0092 36.6727 13.9521 36.902 14.0669C36.9645 14.2742 36.9733 14.3169 37.0021 14.5329C37.2845 16.9027 37.5755 19.5514 37.4223 21.9368C37.38 22.5945 36.0139 24.2108 35.5587 24.723C33.3093 27.2289 30.4439 29.1916 26.999 28.4476C26.3475 28.3069 25.8005 27.6562 25.3128 27.1978C24.7173 26.6384 22.9045 25.5388 22.5437 24.8467L22.6495 24.6567L22.9771 24.3688C24.0375 23.4898 25.547 22.5939 26.4859 21.6494C27.8007 20.3267 28.5487 19.4471 30.0363 18.3189C31.1658 19.474 34.8656 22.7975 36.156 23.2522C35.9698 22.9788 35.2096 22.4667 34.8532 22.1904C33.2342 20.9354 31.4236 19.7064 30.0858 18.0905C30.0589 17.9552 30.0369 17.8441 30.0198 17.7571C30.8146 16.9893 31.8038 16.302 32.5675 15.4994C32.9438 15.1042 33.399 14.2528 33.7893 13.8349C33.9322 13.6818 34.134 13.7283 34.3274 13.752Z" fill="#1297F5"/>
<path d="M20.2607 9.32694C20.7046 9.83178 21.9022 11.0452 22.2192 11.5412L22.1755 11.9907L21.8401 12.132L21.7723 12.2123C22.0269 12.6954 22.3933 12.3923 22.6134 12.7206L22.5351 12.885L22.4442 12.9099L22.2368 12.6685C22.1895 12.8108 22.3819 13.4186 22.4336 13.6205C22.5175 13.4357 22.5053 13.4397 22.506 13.2303L22.6249 13.2151C22.8649 13.5616 23.0196 14.1099 23.2165 14.2814C23.9292 14.3589 23.7234 13.3619 24.8396 15.0054C25.7915 16.407 27.2788 17.1479 28.4435 18.2724C28.572 18.3992 28.5562 18.4802 28.568 18.648L28.4163 18.9089L27.9862 18.9717C27.8859 18.8052 27.8887 18.8022 27.8324 18.6115C27.5423 18.714 26.7353 19.6083 26.6379 19.9095L26.692 20.0259C25.945 20.4745 23.9678 21.729 23.8748 22.6886C23.1265 20.683 22.7681 20.1381 21.6036 18.3679L21.3848 18.0399C20.9717 17.5939 20.2245 15.9998 19.9679 15.3776C19.7819 16.3698 22.0113 19.2548 22.5076 20.2337C23.0513 21.1864 23.4796 22.2096 23.7822 23.2784C23.1292 23.7476 22.6017 24.1304 21.9825 24.6594C21.7912 24.4562 21.2771 23.9333 21.1397 23.7326C19.6776 22.6757 17.3576 19.1632 16.2613 17.6201C15.7388 16.8848 15.1503 16.0672 14.6357 15.3182C14.4512 15.0496 14.4611 15.0877 14.5061 14.8511C14.8835 14.3492 16.4144 13.088 16.9222 12.5765C17.5513 11.9428 18.3252 11.0916 18.9696 10.5206C19.3601 10.0619 19.8274 9.73535 20.2607 9.32694Z" fill="#1297F5"/>
<path d="M20.9405 0.967816L21.1171 0.894572C21.2921 0.979504 21.3611 1.0162 21.5241 1.12432L21.5607 1.17879C21.0129 2.30894 19.8032 4.14651 19.4224 5.07751L19.3456 5.20249C19.012 5.79249 18.2426 7.22197 17.9876 7.82244L17.9703 7.89016C17.5842 8.54503 17.2262 9.24764 16.8572 9.91694C16.5187 10.5469 16.2718 11.2849 15.7132 11.5594C14.5508 11.7992 12.9436 12.5378 11.8407 13.0647C11.4411 13.2286 11.0472 13.3946 10.6398 13.5355C10.3975 13.6577 10.0656 13.7861 9.90703 14.0003L9.77318 13.8536L10.3124 13.5297C10.2409 13.4504 10.1541 13.394 10.0678 13.328C9.45627 13.1179 8.84846 12.8955 8.24478 12.6608C7.80273 12.5082 7.55186 12.4371 7.09459 12.3371C6.78078 12.2219 6.26354 12.0362 6.05256 11.7802C6.04015 11.4965 5.9128 11.7011 6.01577 11.3788C6.34805 11.0649 6.86633 10.8873 7.28149 10.6825L7.37796 10.5932C7.53162 10.5 7.68482 10.4053 7.8373 10.3095C8.19897 10.0816 8.76882 9.77531 8.87017 9.35533L8.77901 9.33281C7.95106 10.2383 6.79467 10.7103 5.71097 11.1972C5.17156 10.6586 4.41261 10.1366 3.78869 9.70759C3.4242 9.46794 3.32906 9.39816 2.92498 9.26398L2.93281 9.21846C3.1596 8.9371 4.31584 8.33266 4.67072 8.13124C5.945 7.29699 7.05884 6.92951 8.24315 6.26782C8.53967 6.08083 8.29043 6.48479 8.68062 6.1219C8.87933 6.27686 8.83589 6.20517 8.95364 6.4131C9.12163 6.8234 9.20836 7.10825 9.33335 7.52871C9.44888 8.20721 9.4672 8.36216 9.87852 8.91378C10.0537 9.14867 10.4698 9.4654 10.3792 9.61782C10.0023 9.57056 9.62736 9.52694 9.25253 9.46382L9.67375 9.57484L13.916 10.4188L14.3806 10.3544L14.3925 10.3098L13.8602 10.2716C13.6992 10.1996 12.207 10.0139 11.8014 9.89934C11.8639 9.40022 11.8567 8.75946 11.927 8.16724C11.824 7.54171 12.4142 4.64246 12.5658 3.89259C13.05 3.62693 13.3656 3.4163 13.8241 3.09767C14.3145 3.01139 15.1782 2.44153 15.8655 2.36271C16.2827 2.20553 16.9019 2.03472 17.3404 1.89816C17.7358 1.91751 17.6608 1.8547 17.9565 2.05185L18.0585 2.24693C18.1247 1.8942 18.048 2.03202 18.2598 1.79777L18.4225 1.78666C18.6404 2.04138 18.5518 2.1321 18.4089 2.4206L18.5524 2.47928L18.611 2.75271L18.6574 2.68927C18.8925 2.24931 18.7538 1.89118 19.2413 1.79745C19.2768 1.66169 19.2355 1.62314 19.1927 1.44361C19.2871 1.22807 19.2929 1.28786 19.5742 1.17232C19.8246 1.36447 19.7266 1.30832 20.079 1.32021L20.1374 1.25075L20.2814 1.32957C20.2819 1.18807 20.294 1.25376 20.2501 1.13135C20.4772 1.08669 20.7148 1.02358 20.9405 0.967816Z" fill="#1297F5"/>
<path d="M18.0585 2.24693C18.1247 1.8942 18.048 2.03202 18.2598 1.79777L18.4225 1.78666C18.6404 2.04138 18.5518 2.1321 18.4089 2.4206C18.0753 2.77793 17.859 3.04629 17.5575 3.43121L17.4789 3.51289C17.5071 3.74429 17.5038 4.37744 17.3393 4.5151L17.1735 4.45388L17.0871 4.55618L16.866 5.15744C16.8034 5.42215 16.8183 5.40724 16.9142 5.66592L16.9615 5.84324C16.79 6.06386 16.7378 6.18423 16.5092 6.2951C16.4425 6.53142 16.4674 6.60691 16.3201 6.71492C16.1849 6.55711 16.1716 6.49082 16.0889 6.29669L15.9837 6.75996L15.8992 6.57535L15.7425 6.53031L15.7271 6.43023L15.8221 6.47781L15.6933 6.38344C15.6402 6.63927 15.6771 6.66829 15.531 6.82055L15.3288 6.78819L15.2066 6.90841C15.1395 7.11491 15.0761 7.37011 14.9569 7.53933L14.8504 7.9812C14.5651 8.18754 14.1291 8.38611 13.7856 8.2724L13.8292 8.19452C13.8828 8.09698 13.92 8.02053 13.9672 7.9203L13.9407 7.84655C13.7191 8.1038 13.4793 8.82402 12.9974 8.36232L12.9547 8.20451C13.0683 8.17501 13.1432 8.15741 13.2601 8.13441C12.913 7.93029 12.3707 7.9885 12.0585 8.25305L12.0341 8.36232C12.4411 8.32632 12.3828 8.09888 12.7365 8.14853C12.7994 8.33568 12.7885 8.33076 12.7041 8.59451C12.4108 8.61402 12.3345 8.7509 12.0495 8.80022C11.9726 8.54868 11.9613 8.42402 11.927 8.16724C11.824 7.54171 12.4142 4.64246 12.5658 3.89259C13.05 3.62693 13.3656 3.4163 13.8241 3.09767C14.3145 3.01139 15.1782 2.44153 15.8655 2.36271C16.2827 2.20553 16.9019 2.03472 17.3404 1.89816C17.7358 1.91751 17.6608 1.8547 17.9565 2.05185L18.0585 2.24693Z" fill="#1297F5"/>
<path d="M18.6574 2.68927C18.8925 2.24931 18.7538 1.89118 19.2413 1.79745C19.1939 2.08055 19.2481 2.24296 19.3065 2.51576L19.2296 2.64153C19.1692 2.6271 19.0591 2.59506 19.0028 2.59427C18.6651 3.29307 19.3407 3.47784 18.6713 3.90052L18.5838 3.88815L18.6396 3.74239L18.6041 3.6807L18.4595 3.82915C18.3723 3.7914 18.285 3.75349 18.1977 3.71575C18.0561 3.90385 18.1089 3.79695 18.0938 4.07133C18.2135 4.25785 18.1805 4.23136 18.3336 4.37712L18.3198 4.50083C18.1966 4.56601 18.1185 4.61899 17.9881 4.658L18.0456 4.81502C18.1805 4.84801 18.315 4.88322 18.4488 4.92049L18.4902 4.68576C18.6438 4.67719 18.7619 4.64056 18.9086 4.59266C18.9996 4.82327 18.3625 5.87385 18.2102 6.01279L18.1482 6.16013C18.0622 6.14601 17.8831 6.08765 17.7909 6.061L17.5434 6.36837C17.3608 6.0453 17.2853 6.03324 16.9615 5.84324L16.9142 5.66592C16.8183 5.40724 16.8034 5.42215 16.866 5.15744L17.0871 4.55618L17.1735 4.45388L17.3393 4.5151C17.5038 4.37744 17.5071 3.74429 17.4789 3.51289L17.5575 3.43121C17.859 3.04629 18.0753 2.77793 18.4089 2.4206L18.5524 2.47928L18.611 2.75271L18.6574 2.68927Z" fill="#1297F5"/>
<path d="M20.7369 39.8029C21.6643 39.0452 21.704 37.3296 22.4176 36.5866C23.1487 35.874 24.2334 35.559 25.0334 34.9554C26.9825 33.4845 28.8957 31.8751 30.7783 30.3089C31.3251 29.8542 30.892 28.8074 31.2385 28.4036C31.939 28.1567 32.6295 27.6146 33.3536 27.302L33.4948 27.4156C33.6095 28.3618 34.1688 28.7748 34.9395 29.147L35.0457 29.1978C33.9805 30.3319 33.4383 31.3249 32.1702 32.5129L32.0762 32.6114C31.0643 33.6578 29.9484 34.2472 28.9605 35.2426C28.6595 35.5458 28.4002 36.6703 28.1641 37.0725C27.6076 38.061 26.3064 39.6124 25.4999 40.387C25.0936 40.7326 24.453 41.2428 24.0854 41.6035L23.6129 41.7768C23.1598 41.9478 23.051 41.9542 22.5853 42C22.3568 41.6882 20.7569 39.8593 20.7369 39.8029Z" fill="#1297F5"/>
<path d="M23.7846 0.280052L23.9593 0.144447L24.0901 0.253756C23.8528 1.02158 23.3926 1.73766 23.0955 2.44867C22.3009 4.34936 20.6985 7.20072 20.1632 9.11648C19.3802 9.56818 17.858 11.1867 17.1824 11.8601C16.2279 12.8113 15.2472 13.8228 14.2439 14.7243C12.696 15.0062 11.4408 14.4381 9.90703 14.0003C10.0656 13.7861 10.3975 13.6577 10.6398 13.5355C11.0472 13.3946 11.4411 13.2286 11.8407 13.0647C12.9436 12.5378 14.5508 11.7992 15.7132 11.5594C16.2718 11.2849 16.5187 10.5469 16.8572 9.91694C17.2262 9.24764 17.5842 8.54503 17.9703 7.89016L17.9876 7.82244C18.2426 7.22197 19.012 5.79249 19.3456 5.20249L19.4224 5.07751C19.762 5.03754 20.6109 3.45262 20.9047 3.05786C20.9328 2.84074 21.0386 2.72115 21.1574 2.53939C21.3694 2.59887 21.3594 2.59395 21.5793 2.57492C21.9406 2.77254 22.0173 2.85723 22.4135 2.85929L23.7846 0.280052Z" fill="#1297F5" fill-opacity="0.2"/>
<path d="M20.9047 3.05786C20.9328 2.84074 21.0386 2.72115 21.1574 2.53939C21.3694 2.59887 21.3594 2.59395 21.5793 2.57492C21.9406 2.77254 22.0173 2.85723 22.4135 2.85929C22.126 3.51432 21.6275 4.73175 21.2772 5.30256C20.9005 6.21738 20.3868 7.02007 20.0436 7.94171L19.8846 7.88794C19.646 7.99056 19.6466 7.99564 19.3936 8.02736C19.4464 7.82704 19.5154 7.71412 19.6082 7.53474L19.4102 7.31745C19.2132 7.42229 19.2794 7.34282 19.2027 7.56122L19.3272 7.95646L19.2641 8.05955C19.0583 7.91935 18.8508 7.78199 18.6416 7.64766C18.3404 7.89666 18.4503 7.88128 18.0855 7.88985L17.9876 7.82244C18.2426 7.22197 19.012 5.79249 19.3456 5.20249L19.4224 5.07751C19.762 5.03754 20.6109 3.45262 20.9047 3.05786Z" fill="#1297F5"/>
<path d="M6.53967 12.8941L7.20052 13.1442C8.33268 13.6278 9.23701 14.0517 10.4164 14.4089L10.5419 14.4217C10.7496 14.4898 11.3183 14.6956 11.4981 14.6768L11.7052 14.7773C12.1319 14.9182 12.4222 15.0303 12.8733 15.0701C13.0051 15.0879 13.2621 15.1134 13.3799 15.1464L13.1407 15.1724C12.9699 15.5188 13.0105 16.2138 13.0157 16.6225C12.9984 16.8537 12.9841 17.1676 12.9559 17.3916L12.9262 17.8569C12.7725 17.8785 12.5853 17.8967 12.4385 17.9368C12.5156 18.215 12.5255 18.2488 12.71 18.459C12.6818 18.7774 12.735 18.7313 12.5697 18.8959C12.1678 18.7785 12.1318 18.6413 11.8255 18.7108L11.7405 18.8529C11.8618 18.9953 11.8075 18.9476 11.9834 19.0225L11.9429 19.2063L11.8428 19.272L11.6653 19.2245C11.4006 19.511 11.389 19.8562 11.1797 20.0239C11.0045 19.9243 11.0157 19.93 10.8867 19.7665L10.7772 19.7333C10.8353 20.0279 10.9823 19.7803 10.9114 20.2077L10.8106 20.2796C10.7424 20.2239 10.6598 20.1628 10.6 20.1005L10.4643 19.917C10.2931 19.9793 10.3003 19.9909 10.1654 20.1259L10.1094 20.0383L10.078 20.117L9.99716 20.107C9.81706 19.9187 9.78012 19.8469 9.51596 19.811L9.45391 19.7433L9.30587 19.8234C9.28282 19.5132 9.32758 19.543 9.18796 19.3176C9.03165 19.4283 8.92558 19.8164 8.83619 20.0221C8.66289 19.8182 8.65491 19.8077 8.52844 19.5677C8.56641 19.0769 8.62655 19.0724 8.7898 18.6234L8.65757 18.5119C8.56213 18.6356 8.55282 18.6477 8.45191 18.753L8.364 18.6621L8.44083 18.3895L8.31687 18.3214C8.0759 18.0628 8.0007 18.1118 7.90201 17.8199L7.99671 17.6937C8.48958 17.6954 7.95697 17.8414 8.35587 17.9291L8.36814 17.6694C8.23133 17.4533 8.23325 17.5146 7.93053 17.4174L7.90112 17.5711L7.78795 17.6274C7.65454 17.4883 7.5232 17.3472 7.39377 17.2039C7.10272 17.0447 7.1698 16.9083 6.88835 16.6947L6.89602 16.6112C6.84032 16.5053 6.29737 15.5821 6.2492 15.508L6.21271 15.4525L6.24758 15.3641C6.39695 15.399 6.40049 15.3929 6.55459 15.3989L6.68726 15.24C6.83368 14.9784 7.00521 14.7933 6.82082 14.5267L6.6586 14.5077C7.06372 14.1316 7.03372 14.2974 7.41682 14.0603C7.47946 14.037 7.59692 13.9299 7.65794 13.8807L7.65897 13.7562L7.56397 13.699C7.21101 13.7329 7.00521 13.6925 6.76069 13.9091C6.65816 13.8463 6.5376 13.7382 6.44097 13.6587L6.5215 13.5264L6.6131 13.3791C6.49372 13.0378 6.48781 13.1907 6.53967 12.8941Z" fill="#1297F5"/>
<path d="M6.53967 12.8941L7.20052 13.1442C8.33268 13.6278 9.23701 14.0517 10.4164 14.4089C10.1489 15.4406 10.8717 14.9653 9.88015 15.6317L9.79356 15.7648C9.59706 15.763 8.90696 15.6552 8.77916 15.8433C8.67929 15.9903 8.65047 16.1158 8.50657 16.2184C8.37641 16.0474 8.43448 16.1094 8.2204 16.019C8.03453 16.0725 8.03601 16.0853 7.84853 16.0944C7.61554 15.7798 7.53235 15.5911 7.39022 15.2125L7.53058 14.9434C7.7259 14.822 7.79194 14.8271 7.89388 14.6469L7.61036 14.455L7.57136 14.2322L7.41682 14.0603C7.47946 14.037 7.59692 13.9299 7.65794 13.8807L7.65897 13.7562L7.56397 13.699C7.21101 13.7329 7.00521 13.6925 6.76069 13.9091C6.65816 13.8463 6.5376 13.7382 6.44097 13.6587L6.5215 13.5264L6.6131 13.3791C6.49372 13.0378 6.48781 13.1907 6.53967 12.8941Z" fill="#1297F5"/>
<path d="M23.3851 2.48293C23.9916 3.64913 24.4168 4.48529 24.9192 5.71239C23.9929 7.72902 23.0754 9.48666 22.5448 11.6757L22.441 11.6146C22.4493 11.4806 20.7444 9.52615 20.4624 9.12203C21.0289 7.44639 22.5576 4.10924 23.3851 2.48293Z" fill="#6E54FF"/>
<path d="M4.6165 14.1624C4.53509 13.4774 3.82208 12.4237 3.95475 12.0149C4.24034 11.974 4.86973 12.2901 5.19107 12.4187C5.56841 12.5483 6.19158 12.7404 6.53967 12.8941C6.48781 13.1907 6.49372 13.0378 6.6131 13.3791L6.5215 13.5264L6.44097 13.6587C6.5376 13.7382 6.65816 13.8463 6.76069 13.9091C7.00521 13.6925 7.21101 13.7329 7.56397 13.699L7.65897 13.7562L7.65794 13.8807C7.59692 13.9299 7.47946 14.037 7.41682 14.0603C7.03372 14.2974 7.06372 14.1316 6.6586 14.5077L6.82082 14.5267C7.00521 14.7933 6.83368 14.9784 6.68726 15.24L6.55459 15.3989C6.40049 15.3929 6.39695 15.399 6.24758 15.3641L6.21271 15.4525L6.2492 15.508C6.29737 15.5821 6.84032 16.5053 6.89602 16.6112L6.74607 16.6785C6.44571 16.4471 5.85193 16.0084 5.48449 15.8289C5.42362 15.799 5.61554 15.439 5.44002 15.1572L5.19919 15.2929L5.11572 15.2301L5.14852 15.1193C5.33438 15.1083 5.53324 15.2009 5.68896 15.2958L5.68867 15.2658C5.45715 14.9565 5.40899 14.9151 5.27794 14.5551C5.15207 14.3174 5.0482 14.4168 4.90061 13.9735L4.6165 14.1624Z" fill="#1297F5"/>
<path d="M4.6165 14.1624L4.90061 13.9735C5.0482 14.4168 5.15207 14.3174 5.27794 14.5551C5.40899 14.9151 5.45715 14.9565 5.68867 15.2658L5.68896 15.2958C5.53324 15.2009 5.33438 15.1083 5.14852 15.1193L5.11572 15.2301L5.19919 15.2929L5.44002 15.1572C5.61554 15.439 5.42362 15.799 5.48449 15.8289C5.85193 16.0084 6.44571 16.4471 6.74607 16.6785L6.89602 16.6112L6.88835 16.6947L6.7341 16.9013C6.85155 17.2704 6.96974 17.2658 7.29921 17.4014L7.31207 17.4905L7.14837 17.6517C7.2085 18.1724 8.25955 18.7118 7.93053 19.4707C7.69901 19.34 7.18176 18.9722 7.05958 18.7352L7.27395 18.4934C7.17422 18.3057 7.24174 18.3903 6.97374 18.3034C6.58872 18.4038 6.41483 18.5386 6.5048 18.9844C6.70839 19.1988 6.81225 19.2171 7.07656 19.323L7.0776 19.5417L7.22535 19.501L7.1528 19.3901L7.20023 19.5394C6.89071 19.6834 6.78094 19.5787 6.48456 19.4328L6.217 19.6742C6.11387 19.3154 6.03705 18.4198 5.93053 18.15C5.32892 16.6254 4.91036 15.8057 4.6165 14.1624Z" fill="#6E54FF"/>
<path d="M10.701 4.26514C10.8193 4.98964 11.0345 6.0978 11.1125 6.79803L11.1958 7.3571C10.886 7.13204 9.99671 6.96964 9.6306 6.61183C9.5229 6.50668 9.36172 6.56488 9.20186 6.58169C9.01201 6.0545 8.90253 6.07591 8.47954 5.72112C8.54854 5.51255 8.78714 5.44499 9.01806 5.31605C9.21205 5.17188 9.3759 5.0017 9.55097 4.83199C9.988 4.68655 10.235 4.43659 10.701 4.26514Z" fill="#1297F5"/>
<path d="M9.20186 6.58169C9.36172 6.56488 9.5229 6.50668 9.6306 6.61183C9.99671 6.96964 10.886 7.13204 11.1958 7.3571C11.2763 7.92997 11.4252 9.49475 11.6325 9.89664C10.7396 9.63083 10.946 9.99275 10.1805 9.05462C9.7587 8.62655 9.6835 8.45621 9.51271 7.8613C9.41342 7.43355 9.30971 7.00707 9.20186 6.58169Z" fill="#1297F5"/>
<path d="M2.03748 11.0169C2.44939 11.0614 3.1392 11.5017 3.51639 11.7196C3.67522 12.3095 4.46343 14.3025 4.39221 14.7034L4.24654 14.6206C3.44784 14.0887 2.61708 13.6144 1.75973 13.2011C1.43336 12.2716 1.42066 11.8313 2.03748 11.0169Z" fill="#1297F5"/>
<path d="M37.3811 8.57786C37.6043 8.75121 37.9397 8.96612 38.058 9.2164L38.2417 9.24828L38.3549 9.14883L38.4414 9.25906C38.5948 9.18277 38.6604 9.09126 38.7883 8.96422C39.3712 9.40386 41.2627 11.7961 41.5117 12.5277C42.6276 15.806 43.4529 19.3922 44.1665 22.811C44.2755 23.3333 44.5279 24.8571 44.6803 25.1932C44.4738 25.2313 44.3721 25.2235 44.199 25.3323L44.3108 25.5033C44.3955 25.7188 44.3908 25.66 44.4148 25.8825C44.0012 26.2584 43.6667 26.581 43.2756 26.9835C42.904 27.3972 42.5595 27.9266 41.9877 27.8904C41.8023 27.6896 41.8776 27.6809 41.6278 27.6712C41.4465 27.6641 40.4796 27.9391 40.3804 28.0163L39.8828 27.9962L39.8751 27.8879C40.0056 27.6841 39.9973 27.6655 40.0793 27.4368C39.6717 27.5943 39.5361 27.9521 39.1677 28.0181C39.1376 27.8782 39.1335 27.8793 39.1261 27.7358L39.004 27.81C38.8743 28.1959 38.5821 28.3743 38.2111 28.4541C37.2233 28.6668 36.2161 28.8098 35.2229 29.0038C35.0724 29.0331 34.272 28.4566 34.1774 28.3213C33.6173 27.6695 33.5663 27.2774 34.1696 26.653C34.5864 27.1364 35.4585 28.1453 36.0298 28.3668C35.5786 27.6495 34.878 27.2998 34.3905 26.4159C34.8715 25.8806 35.3758 25.4414 35.892 24.8533L35.5587 24.723C36.0139 24.2108 37.38 22.5945 37.4223 21.9368C37.5755 19.5514 37.2845 16.9027 37.0021 14.5329C36.9733 14.3169 36.9645 14.2742 36.902 14.0669C36.6727 13.9521 36.6691 14.0092 36.3637 14.0585C36.0517 14.0336 36.0381 14.0168 35.7562 13.8523C35.3134 13.8213 35.5494 13.9359 35.1245 13.7115C36.4711 11.8067 36.7235 10.7996 37.3811 8.57786Z" fill="#1297F5"/>
<path d="M20.6562 23.7558C21.3734 24.5414 25.9291 28.2707 26.7851 28.6693C27.2567 28.8888 27.7742 28.9264 28.2823 28.9345C29.1416 28.9481 30.0495 28.8054 30.8671 28.5223L30.9575 28.5726C30.883 28.8766 30.8532 29.4645 30.7353 29.7067C30.2358 30.7321 28.8115 31.5706 27.9599 32.2602C27.2886 32.8182 25.4139 34.4304 24.7775 34.8015C24.7616 34.8193 24.7456 34.8369 24.7295 34.8545C24.2305 35.3525 22.451 36.0153 22.1139 36.5301C21.6639 37.2175 21.3022 38.8088 20.7471 39.5366C20.6945 39.6056 20.6926 39.6257 20.6583 39.7104C20.2748 39.6436 19.7153 39.3662 19.2589 39.2904C18.959 39.2405 18.3952 39.2354 18.194 39.1252C18.5249 38.6335 19.5112 37.9599 20.1006 37.1547C21.1318 35.7458 21.3317 34.674 22.169 33.2886C22.3509 32.9877 23.5931 31.9933 23.9892 31.5862C24.5475 31.0123 25.6272 29.607 25.6318 28.7313C25.3174 29.2157 25.2605 29.5578 24.8733 30.074C24.6177 30.4346 24.3448 30.8441 24.0585 31.1709C23.5093 31.872 22.7025 32.5674 21.9324 32.9571C21.5384 33.5887 21.3576 34.2884 21.0558 34.8175C20.5884 36.0361 18.6763 38.9418 17.5241 39.241L17.5071 39.1061L17.9354 38.552C17.7571 37.9717 17.4802 37.5257 17.2938 36.9071L17.2543 36.7444C17.2864 36.5028 17.1038 35.8925 17.0591 35.5044C17.1072 35.3573 17.1636 35.096 17.2035 34.9365C17.7323 33.634 18.3068 33.252 18.9789 32.1151C19.2943 31.5817 19.4687 30.4437 19.9165 29.9543L20.0703 28.8853C20.1003 28.3488 20.2313 27.5207 20.3031 26.968C20.4618 26.5821 20.8208 24.1912 20.6562 23.7558Z" fill="#1297F5"/>
<path d="M40.3804 28.0163C40.4796 27.9391 41.4465 27.6641 41.6278 27.6712C41.8776 27.6809 41.8023 27.6896 41.9877 27.8904L41.6721 28.003L41.632 28.1082L41.714 28.1805C41.8158 28.272 41.8757 28.3335 41.9688 28.4327C41.9277 28.659 41.8943 28.6533 41.7315 28.8182C41.6024 29.081 41.2797 29.7836 41.1463 30.0005L41.0011 30.3483C39.9263 32.7974 35.9397 34.936 33.7259 36.0779C33.0704 36.4161 32.5129 36.9452 31.9557 37.2813C31.2856 37.8833 30.7501 38.4609 30.1454 39.1356C29.7951 39.5085 29.4403 39.8765 29.0812 40.2395C29.0547 40.3399 29.0398 40.4252 28.9968 40.5158C27.9845 40.8 26.9146 40.9911 25.8834 41.2006C25.4139 41.296 24.5163 41.5591 24.0854 41.6035C24.453 41.2428 25.0936 40.7326 25.4999 40.387C25.8599 40.4766 27.7336 38.2345 27.9203 37.8751C29.0615 35.6775 29.9831 34.6811 31.9045 33.2139C32.9285 32.4318 34.0935 30.5154 35.0758 29.5713C35.2127 29.438 35.3709 29.3326 35.5429 29.2601C36.3547 28.9082 37.6851 28.8874 38.5621 28.61C39.0258 28.4633 39.4493 28.2238 39.8828 27.9962L40.3804 28.0163Z" fill="#1297F5"/>
<path d="M9.74082 33.9206C10.3024 35.0258 11.4227 35.1194 12.1492 35.9937C12.2966 36.1714 12.5989 36.3775 12.8275 36.4267L12.8464 36.3438L12.8836 36.2553C13.8407 37.7339 14.8656 38.2933 15.9143 39.551C16.0564 39.7215 16.0034 39.6952 16.1634 39.7393L16.2135 39.8095L16.174 40.0668L16.087 40.1258C14.9154 39.8904 14.3897 39.8892 13.2361 40.067C11.6019 38.4376 10.4877 36.782 9.29877 34.7804C9.65513 34.4518 9.6312 34.4182 9.74082 33.9206Z" fill="#1297F5"/>
<path d="M21.1574 2.53939C21.3905 2.09641 21.8784 1.08023 22.2142 0.773022C22.5663 0.734767 22.7477 0.737716 23.0603 0.542889C23.3062 0.389616 23.5075 0.231218 23.7846 0.280052L22.4135 2.85929C22.0173 2.85723 21.9406 2.77254 21.5793 2.57492C21.3594 2.59395 21.3694 2.59887 21.1574 2.53939Z" fill="#1297F5"/>
<path d="M20.2696 0.790419C20.9488 0.655892 23.7961 -0.0839251 24.1683 0.00785815L24.0901 0.253756L23.9593 0.144447L23.7846 0.280052C23.5075 0.231218 23.3062 0.389616 23.0603 0.542889C22.7477 0.737716 22.5663 0.734767 22.2142 0.773022C21.8784 1.08023 21.3905 2.09641 21.1574 2.53939C21.0386 2.72115 20.9328 2.84074 20.9047 3.05786C20.6109 3.45262 19.762 5.03754 19.4224 5.07751C19.8032 4.14651 21.0129 2.30894 21.5607 1.17879L21.5241 1.12432C21.3611 1.0162 21.2921 0.979504 21.1171 0.894572L20.9405 0.967816C20.6571 0.953304 20.4785 0.984802 20.2696 0.790419Z" fill="#1297F5" fill-opacity="0.2"/>
</svg>
