<svg width="119" height="40" viewBox="0 0 119 40" fill="none" xmlns="http://www.w3.org/2000/svg">
<path d="M5.74411 39.001H5.85685V39.0562L6.03278 39.1424L6.03884 39.1395L6.04143 39.1466L6.04739 39.1496L6.04489 39.1561L6.11984 39.3594H6.16757V39.4886L6.212 39.6091L6.16757 39.6309V39.8696H5.68022L5.4142 40V39.8696H5.30095L5.4142 39.5624V39.001H5.62117L5.64002 38.95L5.74411 39.001ZM34.3787 39.001H34.5858V39.5629L34.6989 39.8696H34.5858V40L34.3198 39.8696H33.8323V39.6309L33.788 39.6091L33.8323 39.4888V39.3594H33.8802L33.9549 39.1564L33.9524 39.1496L33.9585 39.1465L33.9612 39.1395L33.967 39.1424L34.1432 39.0561V39.001H34.2557L34.3598 38.95L34.3787 39.001ZM7.68147 38.8892L6.72174 39.3594H7.7636V39.8696H6.69952V39.363L6.52869 38.8995L7.5083 38.4196L7.68147 38.8892ZM9.35963 39.3594V39.8696H8.29564V39.3594H9.35963ZM10.9557 39.3594V39.8696H9.89167V39.3594H10.9557ZM12.5517 39.3594V39.8696H11.4877V39.3594H12.5517ZM14.1477 39.3594V39.8696H13.0837V39.3594H14.1477ZM15.7438 39.3594V39.8696H14.6798V39.3594H15.7438ZM17.3399 39.3594V39.8696H16.2758V39.3594H17.3399ZM18.9359 39.3594V39.8696H17.8718V39.3594H18.9359ZM20.532 39.3594V39.8696H19.4679V39.3594H20.532ZM22.128 39.3594V39.8696H21.064V39.3594H22.128ZM23.724 39.3594V39.8696H22.66V39.3594H23.724ZM25.3201 39.3594V39.8696H24.2561V39.3594H25.3201ZM26.9161 39.3594V39.8696H25.8521V39.3594H26.9161ZM28.5121 39.3594V39.8696H27.4481V39.3594H28.5121ZM30.1082 39.3594V39.8696H29.0442V39.3594H30.1082ZM31.7043 39.3594V39.8696H30.6402V39.3594H31.7043ZM33.4713 38.8995L33.3003 39.3635V39.8696H32.2362V39.3594H33.2783L32.3185 38.8892L32.4917 38.4196L33.4713 38.8995ZM9.15102 38.1692L8.17132 38.6492L7.99815 38.1796L8.97785 37.6996L9.15102 38.1692ZM32.0019 38.1796L31.8287 38.6492L30.849 38.1692L31.0221 37.6996L32.0019 38.1796ZM5.85685 37.1611V38.3619L6.26457 37.256L6.67194 37.4556L6.25558 38.5849L5.85304 38.3878H5.4142V37.1611H5.85685ZM34.5858 37.1611V38.3878H34.1468L33.7443 38.5849L33.3279 37.4556L33.7353 37.256L34.1432 38.3623V37.1611H34.5858ZM10.6205 37.4492L9.64078 37.9292L9.4677 37.4596L10.4473 36.9796L10.6205 37.4492ZM30.5323 37.4596L30.3592 37.9292L29.3795 37.4492L29.5527 36.9796L30.5323 37.4596ZM12.0899 36.7293L11.1103 37.2093L10.9372 36.7396L11.9169 36.2597L12.0899 36.7293ZM29.0628 36.7396L28.8897 37.2093L27.9101 36.7293L28.0831 36.2597L29.0628 36.7396ZM7.29649 35.7616L6.88012 36.8909L6.47275 36.6913L6.88911 35.5619L7.29649 35.7616ZM33.5272 36.6913L33.1197 36.8909L32.7033 35.7616L33.1108 35.562L33.5272 36.6913ZM5.85685 35.3213V36.5478H5.4142V35.3213H5.85685ZM34.5858 35.3213V36.5478H34.1432V35.3213H34.5858ZM13.5595 36.0093L12.5798 36.4893L12.4067 36.0197L13.3863 35.5397L13.5595 36.0093ZM27.5933 36.0197L27.4202 36.4893L26.4405 36.0093L26.6137 35.5397L27.5933 36.0197ZM15.029 35.2894L14.0493 35.7693L13.8762 35.2997L14.8559 34.8197L15.029 35.2894ZM26.1238 35.2997L25.9507 35.7693L24.971 35.2895L25.1441 34.8197L26.1238 35.2997ZM7.92103 34.0676L7.50467 35.1969L7.0973 34.9973L7.51366 33.868L7.92103 34.0676ZM32.9026 34.9973L32.4952 35.1969L32.0789 34.0676L32.4863 33.868L32.9026 34.9973ZM16.4985 34.5695L15.5188 35.0495L15.3456 34.5798L16.3253 34.0998L16.4985 34.5695ZM24.6543 34.5798L24.4812 35.0495L23.5015 34.5695L23.6747 34.0999L24.6543 34.5798ZM5.85685 33.4814V34.7079H5.4142V33.4814H5.85685ZM34.5858 33.4814V34.7079H34.1432V33.4814H34.5858ZM17.968 33.8495L16.9884 34.3295L16.8152 33.8599L17.7949 33.3799L17.968 33.8495ZM23.1848 33.8599L23.0116 34.3295L22.032 33.8495L22.2051 33.3799L23.1848 33.8599ZM19.4375 33.1296L18.4578 33.6095L18.2847 33.1399L19.2644 32.66L19.4375 33.1296ZM21.7153 33.1399L21.5422 33.6095L20.5625 33.1296L20.7356 32.66L21.7153 33.1399ZM8.54558 32.3735L8.12921 33.5029L7.72184 33.3033L8.13821 32.174L8.54558 32.3735ZM32.2781 33.3033L31.8707 33.5029L31.4543 32.3735L31.8617 32.174L32.2781 33.3033ZM20.907 32.4096L20.1046 32.8026L20.0726 32.8896L19.9999 32.8539L19.9273 32.8896L19.8952 32.8027L19.093 32.4096L19.2661 31.94L19.9999 32.2995L20.7338 31.94L20.907 32.4096ZM5.85685 31.6415V32.8681H5.4142V31.6415H5.85685ZM34.5858 31.6415V32.8681H34.1432V31.6415H34.5858ZM18.7763 31.7L18.6032 32.1696L17.6235 31.6897L17.7966 31.22L18.7763 31.7ZM22.3765 31.6897L21.3968 32.1696L21.2237 31.7L22.2034 31.22L22.3765 31.6897ZM9.17013 30.6796L8.75376 31.8088L8.34639 31.6093L8.76275 30.4799L9.17013 30.6796ZM31.6535 31.6093L31.2462 31.8088L30.8298 30.6796L31.2372 30.4799L31.6535 31.6093ZM17.3068 30.9801L17.1337 31.4497L16.154 30.9697L16.3272 30.5001L17.3068 30.9801ZM23.846 30.9697L22.8663 31.4497L22.6932 30.9801L23.6728 30.5001L23.846 30.9697ZM5.85685 29.8016V31.0282H5.4142V29.8016H5.85685ZM34.5858 29.8016V31.0282H34.1432V29.8016H34.5858ZM15.8373 30.2601L15.6641 30.7297L14.6844 30.2497L14.8576 29.7801L15.8373 30.2601ZM25.3156 30.2497L24.3359 30.7297L24.1627 30.2601L25.1424 29.7801L25.3156 30.2497ZM9.79467 28.9855L9.37831 30.1149L8.97085 29.9153L9.38721 28.786L9.79467 28.9855ZM31.029 29.9153L30.6216 30.1149L30.2052 28.9855L30.6126 28.786L31.029 29.9153ZM14.3678 29.5401L14.1947 30.0097L13.215 29.5298L13.3881 29.0602L14.3678 29.5401ZM26.785 29.5298L25.8053 30.0097L25.6322 29.5401L26.6119 29.0602L26.785 29.5298ZM12.8983 28.8202L12.7251 29.2898L11.7455 28.8098L11.9186 28.3402L12.8983 28.8202ZM28.2545 28.8098L27.2749 29.2898L27.1017 28.8202L28.0814 28.3402L28.2545 28.8098ZM5.85685 27.9617V29.1883H5.4142V27.9617H5.85685ZM34.5858 27.9618V29.1883H34.1432V27.9618H34.5858ZM11.4287 28.1002L11.2557 28.5698L10.276 28.0898L10.4491 27.6202L11.4287 28.1002ZM29.724 28.0898L28.7443 28.5698L28.5713 28.1002L29.5509 27.6202L29.724 28.0898ZM31.1935 27.3699L30.2593 27.8275L30.4044 28.2213L29.9971 28.4209L29.5807 27.2915L29.9881 27.0919L30.0861 27.3579L31.0204 26.9003L31.1935 27.3699ZM9.91363 27.3578L10.0118 27.0919L10.4191 27.2915L10.0029 28.4208L9.59539 28.2213L9.74055 27.8275L8.8065 27.3699L8.97958 26.9003L9.91363 27.3578ZM5.85685 26.1218V27.3485H5.4142V26.1218H5.85685ZM34.5858 26.1218V27.3485H34.1432V26.1218H34.5858ZM8.48973 26.6603L8.31665 27.1299L7.33695 26.6499L7.51012 26.1803L8.48973 26.6603ZM32.6631 26.6499L31.6834 27.1299L31.5103 26.6603L32.4899 26.1803L32.6631 26.6499ZM11.0437 25.5975L10.6273 26.7269L10.2199 26.5272L10.6363 25.398L11.0437 25.5975ZM29.7799 26.5272L29.3725 26.7269L28.9562 25.5975L29.3635 25.398L29.7799 26.5272ZM7.02026 25.9403L6.8471 26.41L5.86748 25.9301L6.04056 25.4604L7.02026 25.9403ZM34.1325 25.9301L33.1529 26.4099L32.9797 25.9403L33.9594 25.4604L34.1325 25.9301ZM5.85685 24.2819V25.5086H5.44455L5.37763 25.6901L4.39793 25.2101L4.5711 24.7405L5.4142 25.1534V24.2819H5.85685ZM34.5858 24.2819V25.1534L35.4289 24.7405L35.6021 25.2101L34.6224 25.6901L34.5555 25.5086H34.1432V24.2819H34.5858ZM11.6682 23.9035L11.2519 25.0329L10.8445 24.8333L11.2608 23.7039L11.6682 23.9035ZM29.1553 24.8333L28.748 25.0329L28.3316 23.9035L28.739 23.7039L29.1553 24.8333ZM4.08125 24.5005L3.90808 24.9701L2.92847 24.4901L3.10155 24.0205L4.08125 24.5005ZM37.0715 24.4901L36.0919 24.9701L35.9188 24.5005L36.8984 24.0205L37.0715 24.4901ZM2.61179 23.7805L2.43862 24.2502L1.45892 23.7702L1.63208 23.3006L2.61179 23.7805ZM38.5411 23.7702L37.5614 24.2502L37.3882 23.7805L38.3679 23.3006L38.5411 23.7702ZM34.5858 22.4421V23.6687H34.1432V22.4421H34.5858ZM5.85685 22.4421V23.6686H5.4142V22.4421H5.85685ZM1.14223 23.0502L1.1316 23.0554L1.14223 23.0606L0.969067 23.5302L0 23.0554L0.969153 22.5806L1.14223 23.0502ZM40 23.0554L39.0308 23.5302L38.8578 23.0606L38.8683 23.0554L38.8578 23.0502L39.0308 22.5806L40 23.0554ZM12.2928 22.2096L11.8764 23.3388L11.469 23.1392L11.8854 22.0099L12.2928 22.2096ZM28.5308 23.1393L28.1234 23.3388L27.7071 22.2095L28.1144 22.0099L28.5308 23.1393ZM2.61179 22.3303L1.63208 22.8102L1.45892 22.3406L2.43862 21.8606L2.61179 22.3303ZM38.5411 22.3406L38.3679 22.8102L37.3882 22.3303L37.5614 21.8606L38.5411 22.3406ZM4.08125 21.6103L3.10164 22.0903L2.92847 21.6207L3.90817 21.1407L4.08125 21.6103ZM37.0715 21.6207L36.8984 22.0903L35.9188 21.6103L36.0918 21.1407L37.0715 21.6207ZM5.44455 20.6022H5.85685V21.8288H5.4142V20.9572L4.5711 21.3703L4.39793 20.9007L5.37763 20.4207L5.44455 20.6022ZM35.6021 20.9007L35.4289 21.3703L34.5858 20.9572V21.8288H34.1432V20.6022H34.5555L34.6224 20.4207L35.6021 20.9007ZM12.9173 20.5155L12.501 21.6449L12.0936 21.4453L12.5099 20.3159L12.9173 20.5155ZM27.9062 21.4453L27.4989 21.6449L27.0825 20.5155L27.4899 20.3159L27.9062 21.4453ZM7.02026 20.1704L6.04056 20.6503L5.86748 20.1807L6.8471 19.7008L7.02026 20.1704ZM34.1325 20.1807L33.9594 20.6503L32.9797 20.1704L33.1529 19.7008L34.1325 20.1807ZM5.85685 18.7623V19.9889H5.4142V18.7623H5.85685ZM34.5858 18.7623V19.9889H34.1432V18.7623H34.5858ZM13.5419 18.8215L13.1255 19.9508L12.7181 19.7513L13.1345 18.6219L13.5419 18.8215ZM27.2817 19.7513L26.8743 19.9508L26.458 18.8215L26.8653 18.6219L27.2817 19.7513ZM8.48973 19.4504L7.51012 19.9304L7.33695 19.4608L8.31665 18.9808L8.48973 19.4504ZM32.6631 19.4608L32.4899 19.9304L31.5103 19.4504L31.6834 18.9808L32.6631 19.4608ZM9.95928 18.7304L8.97958 19.2104L8.8065 18.7408L9.78611 18.2608L9.95928 18.7304ZM31.1935 18.7408L31.0204 19.2104L30.0407 18.7304L30.2139 18.2608L31.1935 18.7408ZM11.4287 18.0105L10.4491 18.4905L10.276 18.0209L11.2557 17.5409L11.4287 18.0105ZM29.724 18.0209L29.5509 18.4905L28.5713 18.0105L28.7443 17.5409L29.724 18.0209ZM14.1664 17.1275L13.75 18.2569L13.3427 18.0572L13.759 16.9279L14.1664 17.1275ZM26.6572 18.0572L26.2498 18.2569L25.8334 17.1275L26.2408 16.9279L26.6572 18.0572ZM5.85685 16.9225V18.149H5.4142V16.9225H5.85685ZM34.5858 16.9225V18.149H34.1432V16.9225H34.5858ZM12.8983 17.2906L11.9186 17.7705L11.7455 17.3009L12.7251 16.8209L12.8983 17.2906ZM28.2545 17.3009L28.0814 17.7705L27.1017 17.2905L27.2749 16.8209L28.2545 17.3009ZM14.791 15.4335L14.3746 16.5628L14.3627 16.5569L14.3678 16.5707L13.3881 17.0506L13.215 16.5809L14.0351 16.1791L14.3836 15.2339L14.791 15.4335ZM25.9647 16.179L26.785 16.5809L26.6119 17.0506L25.6322 16.5707L25.6373 16.5568L25.6252 16.5628L25.2089 15.4335L25.6163 15.2339L25.9647 16.179ZM15.8373 15.8507L14.8576 16.3307L14.6844 15.8611L15.6641 15.3811L15.8373 15.8507ZM25.3156 15.861L25.1424 16.3307L24.1627 15.8507L24.3359 15.3811L25.3156 15.861ZM5.85685 15.0825V16.3092H5.4142V15.0825H5.85685ZM34.5858 15.0826V16.3092H34.1432V15.0826H34.5858ZM17.3068 15.1307L16.3272 15.6107L16.154 15.1411L17.1337 14.6611L17.3068 15.1307ZM23.846 15.1411L23.6728 15.6107L22.6932 15.1307L22.8663 14.6611L23.846 15.1411ZM18.7763 14.4108L17.7966 14.8908L17.6235 14.4211L18.6032 13.9412L18.7763 14.4108ZM22.3765 14.4211L22.2034 14.8908L21.2237 14.4108L21.3968 13.9412L22.3765 14.4211ZM15.4155 13.7395L14.9991 14.8688L14.5918 14.6692L15.0081 13.5399L15.4155 13.7395ZM25.4081 14.6692L25.0007 14.8688L24.5844 13.7395L24.9918 13.5399L25.4081 14.6692ZM5.85685 13.2426V14.4693H5.4142V13.2426H5.85685ZM34.5858 13.2426V14.4693H34.1432V13.2426H34.5858ZM20.1047 13.308L20.907 13.7012L20.7339 14.1708L20 13.8112L19.2662 14.1708L19.093 13.7012L19.8953 13.3081L19.9274 13.2212L20 13.2568L20.0727 13.2212L20.1047 13.308ZM19.4375 12.9812L19.2644 13.4508L18.2847 12.9709L18.4578 12.5013L19.4375 12.9812ZM21.7153 12.9709L20.7356 13.4508L20.5625 12.9812L21.5422 12.5013L21.7153 12.9709ZM16.04 12.0455L15.6237 13.1748L15.2163 12.9752L15.6327 11.8459L16.04 12.0455ZM24.7836 12.9752L24.3762 13.1748L23.9599 12.0455L24.3672 11.8459L24.7836 12.9752ZM17.968 12.2613L17.7949 12.7309L16.8152 12.2509L16.9884 11.7813L17.968 12.2613ZM23.1848 12.2509L22.2051 12.7309L22.032 12.2613L23.0116 11.7813L23.1848 12.2509ZM5.85685 11.4028V12.6294H5.4142V11.4028H5.85685ZM34.5858 11.4028V12.6294H34.1432V11.4028H34.5858ZM16.6646 10.3514L16.2676 11.4282L16.4985 11.5413L16.3253 12.0109L15.3456 11.5309L15.5188 11.0613L15.8602 11.2286L16.2572 10.1519L16.6646 10.3514ZM24.1396 11.2286L24.4812 11.0613L24.6544 11.5309L23.6747 12.0109L23.5015 11.5413L23.7322 11.4282L23.3353 10.3514L23.7427 10.1519L24.1396 11.2286ZM15.029 10.8213L14.8559 11.291L13.8762 10.811L14.0493 10.3414L15.029 10.8213ZM26.1238 10.811L25.1441 11.291L24.971 10.8213L25.9507 10.3414L26.1238 10.811ZM5.85685 9.56291V10.7895H5.4142V9.56291H5.85685ZM34.5858 9.56291V10.7895H34.1432V9.56291H34.5858ZM13.5595 10.1014L13.3863 10.571L12.4067 10.091L12.5798 9.62141L13.5595 10.1014ZM27.5933 10.091L26.6137 10.571L26.4405 10.1014L27.4202 9.62141L27.5933 10.091ZM12.0899 9.38142L11.9169 9.85103L10.9372 9.37106L11.1103 8.90145L12.0899 9.38142ZM29.0628 9.37106L28.0831 9.85103L27.9101 9.38142L28.8897 8.90145L29.0628 9.37106ZM17.2891 8.65747L16.8728 9.78675L16.4654 9.58722L16.8817 8.45785L17.2891 8.65747ZM23.5345 9.58722L23.1271 9.78675L22.7108 8.65747L23.1181 8.45785L23.5345 9.58722ZM10.6205 8.66146L10.4473 9.13107L9.4677 8.65109L9.64078 8.18149L10.6205 8.66146ZM30.5323 8.65109L29.5527 9.13107L29.3795 8.66146L30.3592 8.18149L30.5323 8.65109ZM5.85685 7.72304V8.94958H5.4142V7.72304H5.85685ZM34.5858 7.72304V8.94958H34.1432V7.72304H34.5858ZM9.15093 7.9415L8.97785 8.41111L7.99815 7.93113L8.17132 7.46152L9.15093 7.9415ZM32.0019 7.93123L31.0221 8.41111L30.8491 7.9415L31.8287 7.46152L32.0019 7.93123ZM17.9137 6.96341L17.4973 8.09279L17.0899 7.89316L17.5062 6.76389L17.9137 6.96341ZM22.91 7.89316L22.5026 8.09279L22.0862 6.96341L22.4936 6.76389L22.91 7.89316ZM33.4713 7.21127L32.4917 7.69125L32.3185 7.22154L33.2982 6.74166L33.4713 7.21127ZM7.68147 7.22154L7.5083 7.69115L6.52869 7.21127L6.70177 6.74156L7.68147 7.22154ZM6.212 6.50158L6.03884 6.97128L5.85685 6.88209V7.10972H5.4142V6.1108L6.212 6.50158ZM34.5858 7.10972H34.1432V6.88209L33.9612 6.97128L33.788 6.50168L34.5858 6.1108V7.10972ZM18.5381 5.26945L18.1218 6.39882L17.7144 6.1992L18.1308 5.06983L18.5381 5.26945ZM22.2854 6.1992L21.878 6.39882L21.4617 5.26945L21.8691 5.06983L22.2854 6.1992ZM19.1627 3.57539L18.7463 4.70476L18.339 4.50514L18.7553 3.37586L19.1627 3.57539ZM21.6609 4.50524L21.2535 4.70476L20.8371 3.57549L21.2445 3.37586L21.6609 4.50524ZM19.7872 1.88143L19.3709 3.0108L18.9635 2.81118L19.3799 1.6818L19.7872 1.88143ZM21.0363 2.81118L20.629 3.0108L20.2126 1.88143L20.62 1.6818L21.0363 2.81118ZM20.4118 1.11722L20.0044 1.31674L19.9999 1.30448L19.9954 1.31674L19.588 1.11722L19.9999 0L20.4118 1.11722Z" fill="white"/>
<path d="M50.24 31V10.42H53.614V31H50.24ZM66.3337 31.42C64.3177 31.42 62.591 30.9813 61.1537 30.104C59.7163 29.2173 58.6103 27.9853 57.8357 26.408C57.0703 24.8307 56.6877 23.0013 56.6877 20.92C56.6877 18.8387 57.0703 17.0093 57.8357 15.432C58.6103 13.8547 59.7163 12.6273 61.1537 11.75C62.591 10.8633 64.3177 10.42 66.3337 10.42C68.3497 10.42 70.0763 10.8633 71.5137 11.75C72.9603 12.6273 74.0663 13.8547 74.8317 15.432C75.6063 17.0093 75.9937 18.8387 75.9937 20.92C75.9937 23.0013 75.6063 24.8307 74.8317 26.408C74.0663 27.9853 72.9603 29.2173 71.5137 30.104C70.0763 30.9813 68.3497 31.42 66.3337 31.42ZM66.3337 28.242C67.687 28.2513 68.8117 27.9527 69.7077 27.346C70.613 26.7393 71.2897 25.8853 71.7377 24.784C72.195 23.6827 72.4237 22.3947 72.4237 20.92C72.4237 19.4453 72.195 18.1667 71.7377 17.084C71.2897 15.992 70.613 15.1427 69.7077 14.536C68.8117 13.9293 67.687 13.6167 66.3337 13.598C64.9803 13.5887 63.8557 13.8873 62.9597 14.494C62.0637 15.1007 61.387 15.9547 60.9297 17.056C60.4817 18.1573 60.2577 19.4453 60.2577 20.92C60.2577 22.3947 60.4817 23.678 60.9297 24.77C61.3777 25.8527 62.0497 26.6973 62.9457 27.304C63.851 27.9107 64.9803 28.2233 66.3337 28.242ZM87.0963 31.42C85.7896 31.42 84.5623 31.1913 83.4143 30.734C82.2756 30.2673 81.2723 29.586 80.4043 28.69C79.5456 27.794 78.8736 26.6973 78.3883 25.4C77.903 24.0933 77.6603 22.6 77.6603 20.92C77.6603 18.7173 78.071 16.8367 78.8923 15.278C79.7136 13.71 80.8383 12.5107 82.2663 11.68C83.6943 10.84 85.3043 10.42 87.0963 10.42C89.579 10.42 91.5436 10.9987 92.9903 12.156C94.4463 13.304 95.431 14.9187 95.9443 17L92.5003 17.546C92.1176 16.3513 91.4923 15.3993 90.6243 14.69C89.7563 13.9713 88.6503 13.612 87.3063 13.612C85.953 13.5933 84.8283 13.8873 83.9323 14.494C83.0363 15.1007 82.3596 15.9547 81.9023 17.056C81.4543 18.1573 81.2303 19.4453 81.2303 20.92C81.2303 22.3947 81.4543 23.678 81.9023 24.77C82.3503 25.8527 83.0223 26.6973 83.9183 27.304C84.8236 27.9107 85.953 28.2233 87.3063 28.242C88.3236 28.2513 89.215 28.0693 89.9803 27.696C90.7456 27.3133 91.371 26.7393 91.8563 25.974C92.3416 25.1993 92.6683 24.2333 92.8363 23.076H89.2803V20.43H96.4203C96.439 20.5793 96.453 20.7987 96.4623 21.088C96.4716 21.3773 96.4763 21.55 96.4763 21.606C96.4763 23.51 96.0983 25.204 95.3423 26.688C94.5956 28.1627 93.5223 29.32 92.1223 30.16C90.7223 31 89.047 31.42 87.0963 31.42ZM107.814 31.42C105.798 31.42 104.071 30.9813 102.634 30.104C101.197 29.2173 100.091 27.9853 99.3161 26.408C98.5508 24.8307 98.1681 23.0013 98.1681 20.92C98.1681 18.8387 98.5508 17.0093 99.3161 15.432C100.091 13.8547 101.197 12.6273 102.634 11.75C104.071 10.8633 105.798 10.42 107.814 10.42C109.83 10.42 111.557 10.8633 112.994 11.75C114.441 12.6273 115.547 13.8547 116.312 15.432C117.087 17.0093 117.474 18.8387 117.474 20.92C117.474 23.0013 117.087 24.8307 116.312 26.408C115.547 27.9853 114.441 29.2173 112.994 30.104C111.557 30.9813 109.83 31.42 107.814 31.42ZM107.814 28.242C109.167 28.2513 110.292 27.9527 111.188 27.346C112.093 26.7393 112.77 25.8853 113.218 24.784C113.675 23.6827 113.904 22.3947 113.904 20.92C113.904 19.4453 113.675 18.1667 113.218 17.084C112.77 15.992 112.093 15.1427 111.188 14.536C110.292 13.9293 109.167 13.6167 107.814 13.598C106.461 13.5887 105.336 13.8873 104.44 14.494C103.544 15.1007 102.867 15.9547 102.41 17.056C101.962 18.1573 101.738 19.4453 101.738 20.92C101.738 22.3947 101.962 23.678 102.41 24.77C102.858 25.8527 103.53 26.6973 104.426 27.304C105.331 27.9107 106.461 28.2233 107.814 28.242Z" fill="white"/>
</svg>
