<svg width="64" height="64" viewBox="0 0 64 64" fill="none" xmlns="http://www.w3.org/2000/svg">
<g clip-path="url(#clip0_286_1937)">
<path d="M57.8079 31.6288C57.8092 32.1475 57.8116 32.6834 57.7823 33.2167C57.7664 33.4914 57.7494 33.7636 57.7286 34.0382C57.7091 34.2847 57.6847 34.5301 57.6615 34.7754C57.5882 35.3942 57.5077 36.0106 57.393 36.6233C57.3319 36.948 57.2685 37.2715 57.1977 37.5937C57.1318 37.8915 57.0597 38.1869 56.9853 38.4835C56.8327 39.0498 56.6704 39.6125 56.4849 40.1691C56.3018 40.7183 56.0967 41.2566 55.8819 41.7936C55.6768 42.2843 55.4596 42.7689 55.2313 43.2486C55.0226 43.6867 54.7944 44.1152 54.5612 44.5399V44.5411C54.5576 44.5485 54.5527 44.5558 54.549 44.5631C54.4245 44.7828 54.2891 45.022 54.1475 45.2576C53.9876 45.5237 53.8228 45.7849 53.6556 46.0461C53.381 46.4769 53.0856 46.8956 52.7841 47.3081C53.1027 46.0778 53.2052 44.7901 53.1637 43.522C53.1051 41.7497 52.7719 39.9958 52.2788 38.2955C52.219 38.0868 52.1555 37.8793 52.0908 37.673C52.4741 37.291 52.8183 36.8711 53.1149 36.4195C53.6824 35.5566 54.0962 34.5801 54.2891 33.5646C54.3867 33.0495 54.4441 32.5283 54.4428 32.0023C54.4428 31.7411 54.4319 31.4774 54.4038 31.2175C54.3769 30.9563 54.3379 30.6987 54.2891 30.4412C54.1939 29.9371 54.0425 29.4367 53.8448 28.9631C53.6446 28.4822 53.4029 28.0208 53.1161 27.5863C52.8171 27.1347 52.4729 26.7136 52.0908 26.3303C52.1567 26.124 52.219 25.9166 52.2788 25.7078C52.7719 24.0076 53.1051 22.2536 53.1637 20.4814C53.2052 19.2144 53.1027 17.9292 52.7853 16.6989C52.9184 16.8795 53.0514 17.065 53.1808 17.2505C53.4994 17.7046 53.7984 18.1708 54.0877 18.6444C54.3562 19.0948 54.6162 19.5489 54.8591 20.0127C55.1142 20.4997 55.3497 20.9952 55.5768 21.4944C55.7928 21.9876 55.9966 22.4831 56.1846 22.9872C56.3787 23.5047 56.5508 24.0283 56.7143 24.5556C56.8693 25.0817 57.017 25.6126 57.1391 26.1497C57.205 26.4414 57.2685 26.7343 57.327 27.0285C57.3832 27.308 57.4308 27.5875 57.4796 27.8682C57.4845 27.9073 57.4882 27.9488 57.4967 27.9878C57.5016 28.0416 57.5162 28.0977 57.5236 28.1502C57.5309 28.2027 57.5382 28.2564 57.5467 28.3089C57.576 28.5139 57.6029 28.7202 57.6273 28.9252C57.6822 29.3854 57.7298 29.8468 57.7555 30.3094C57.7799 30.7439 57.797 31.1772 57.8079 31.6129C57.8079 31.6178 57.8079 31.6239 57.8079 31.6288Z" fill="#1297F5"/>
<path d="M48.4482 44.3297C48.4836 44.7325 48.5019 45.1402 48.5019 45.5173C48.497 45.8835 48.4738 46.2497 48.436 46.5829C48.4042 46.8319 48.3627 47.0772 48.3115 47.325C48.2651 47.5227 48.2138 47.7192 48.154 47.9145C48.0979 48.0866 48.0356 48.2551 47.9673 48.4235C47.8794 48.6237 47.7854 48.8165 47.6975 48.974C47.6158 49.1156 47.5291 49.251 47.4388 49.3853C47.3387 49.522 47.2374 49.6526 47.13 49.7796C47.0226 49.8992 46.9115 50.0115 46.798 50.1213C46.7199 50.1921 46.6405 50.2617 46.56 50.3264C46.4672 50.4008 46.3744 50.4692 46.2792 50.5375C46.1108 50.651 45.9387 50.7523 45.7935 50.8329C45.6519 50.9049 45.5103 50.972 45.3663 51.0343C45.2161 51.1002 45.0636 51.1515 44.9122 51.2027C44.5705 51.3077 44.2275 51.3846 43.8808 51.442C43.6465 51.4725 43.4121 51.4981 43.1778 51.5152C42.9398 51.5323 42.703 51.5323 42.4979 51.5311C42.1147 51.5213 41.7326 51.4957 41.3506 51.4517C40.9796 51.4102 40.6122 51.3443 40.2448 51.2711C39.7102 51.1576 39.1817 51.0221 38.6556 50.8598C38.1283 50.6974 37.6084 50.5082 37.1214 50.3178C36.6331 50.1201 36.1498 49.9077 35.6701 49.6819C35.498 49.6013 35.3271 49.5184 35.1562 49.4329C35.0647 49.4927 34.9732 49.5525 34.8816 49.6123C34.7913 49.6709 34.701 49.7283 34.6107 49.7857C34.5667 49.8137 34.5216 49.8418 34.4776 49.8699C34.1346 50.0859 33.788 50.2959 33.4377 50.5009C33.3547 50.5497 33.2717 50.5973 33.1887 50.6462C33.1057 50.695 33.0227 50.7426 32.9385 50.789C33.0239 50.8353 33.1106 50.8805 33.196 50.9244C33.2815 50.9696 33.3681 51.0135 33.4548 51.0587C34.2921 51.4883 35.1465 51.8826 36.0204 52.2329C37.6633 52.8908 39.3684 53.4193 41.1211 53.689C42.7372 53.938 44.3971 53.9905 46.0083 53.678C45.8032 53.8111 45.5957 53.9392 45.3895 54.0662L45.3846 54.0686C45.3797 54.0723 45.3748 54.0747 45.3699 54.0772C44.9317 54.3384 44.4826 54.5947 44.0236 54.8363C43.561 55.0805 43.0899 55.3063 42.6139 55.526C42.0646 55.7701 41.5105 56.0056 40.9454 56.2095C40.6488 56.3169 40.3522 56.4206 40.0519 56.5195C39.77 56.6135 39.4856 56.6989 39.2 56.7844H39.1975C39.1914 56.7868 39.1853 56.788 39.1792 56.7905C38.6886 56.9284 38.182 57.0639 37.6694 57.1762C37.4094 57.2335 37.1482 57.2921 36.8858 57.3409C36.627 57.3885 36.367 57.4349 36.1071 57.4789C35.581 57.5606 35.0208 57.6388 34.4581 57.69C34.1444 57.7181 33.8295 57.7437 33.5146 57.7633C33.2326 57.7803 32.9507 57.7901 32.6687 57.7999C32.3392 57.806 32.0109 57.8096 31.6813 57.806C31.3798 57.8023 31.0771 57.7913 30.7769 57.7791C30.169 57.7535 29.5624 57.6949 28.9582 57.629C28.4078 57.5582 27.8573 57.4838 27.3117 57.3788C27.0419 57.3263 26.7722 57.2763 26.5049 57.2152C26.2339 57.1542 25.9642 57.0907 25.6944 57.026C25.1537 56.8869 24.6167 56.7355 24.0857 56.5634C23.5462 56.3901 23.0153 56.1961 22.4868 55.991C22.2232 55.8848 21.962 55.7762 21.702 55.6627C21.4151 55.5382 21.132 55.4064 20.85 55.2745C20.3203 55.0255 19.8052 54.7472 19.2938 54.4629C18.8751 54.2224 18.4345 53.96 18.0049 53.6817C18.3003 53.7391 18.5993 53.7842 18.8983 53.8172C19.6319 53.8977 20.3703 53.9148 21.1063 53.8782C22.0767 53.8306 23.0434 53.6915 23.9893 53.484C25.6798 53.1117 27.3251 52.5502 28.9057 51.846C29.964 51.3736 30.9978 50.8475 32.0035 50.2739C32.1671 50.1811 32.3306 50.0859 32.493 49.9907C32.7725 49.8272 33.0483 49.6587 33.323 49.4878C33.3889 49.4463 33.4548 49.4048 33.5207 49.3633C33.6318 49.2938 33.7428 49.223 33.8527 49.151C33.9638 49.079 34.0748 49.0057 34.1859 48.9325C35.299 48.1977 36.378 47.4104 37.418 46.5768C38.7923 45.4771 40.1032 44.3017 41.353 43.0616C42.4186 42.0046 43.4341 40.8963 44.3971 39.7453C44.6168 39.8039 44.8402 39.8527 45.066 39.893C45.5127 39.9723 45.9668 40.0114 46.4196 40.0114C46.7565 40.0114 47.0934 39.9894 47.4278 39.9479C47.4815 40.1005 47.5352 40.2531 47.5865 40.4081C47.8306 41.1575 48.0442 41.9289 48.2102 42.7332C48.3127 43.252 48.3945 43.7793 48.4482 44.3102C48.4482 44.3163 48.4494 44.3224 48.4494 44.3285L48.4482 44.3297Z" fill="#1297F5"/>
<path d="M39.8095 27.5029C39.713 27.6445 39.6215 27.7885 39.5348 27.935C39.0015 28.8346 38.6597 29.8379 38.5071 30.8705C38.357 31.8848 38.4217 32.9259 38.6609 33.9207C38.8818 34.8397 39.2822 35.7112 39.8095 36.4948C39.4543 36.9037 39.0918 37.3102 38.7232 37.7093C37.8261 38.6809 36.8899 39.6158 35.9171 40.5178C35.9134 40.5215 35.9061 40.5288 35.8976 40.5361C35.8793 40.5508 35.8622 40.5666 35.8451 40.5837C35.8439 40.5849 35.8414 40.5862 35.8402 40.5886C35.8182 40.6057 35.7987 40.6252 35.7792 40.6447L35.7731 40.6508C35.7718 40.6508 35.7718 40.6521 35.7706 40.6521C35.297 41.0878 34.8113 41.515 34.3169 41.9349C33.2965 42.799 32.2322 43.6266 31.1191 44.4126L31.1142 44.4163C31.1093 44.4187 31.1056 44.4224 31.102 44.4248C30.9787 44.5103 30.853 44.5981 30.7248 44.686C30.2305 45.0241 29.7264 45.3537 29.2089 45.6722C29.1271 45.7235 29.0453 45.7736 28.9623 45.8236C28.9074 45.8565 28.8537 45.8895 28.7988 45.9225C28.7206 45.9701 28.6413 46.0164 28.562 46.0628C28.2117 46.2691 27.8553 46.4705 27.494 46.667C27.4037 46.7158 27.3133 46.7646 27.2218 46.8135C27.1644 46.844 27.1058 46.8745 27.0485 46.9038C26.177 47.3542 25.2494 47.7814 24.2729 48.1561L24.268 48.1573C24.2631 48.1598 24.257 48.1622 24.2522 48.1634C23.5809 48.4136 22.8827 48.6419 22.1552 48.8286C21.6768 48.9482 21.1544 49.0556 20.6149 49.1338C20.2133 49.1887 19.8056 49.2265 19.3894 49.2412C19.0587 49.2497 18.7157 49.2412 18.3703 49.2168C18.1359 49.1948 17.9028 49.1667 17.6684 49.1252C17.4634 49.0862 17.262 49.0398 17.0606 48.9861C16.8751 48.9311 16.692 48.8713 16.5126 48.803C16.3331 48.7285 16.1574 48.6492 15.9865 48.5613C15.8449 48.4844 15.7082 48.4039 15.574 48.3172C15.4324 48.222 15.2944 48.117 15.1614 48.0084C15.0271 47.8912 14.899 47.7716 14.7781 47.6471C14.6427 47.5006 14.5182 47.3493 14.401 47.1943C14.2704 47.0112 14.152 46.8232 14.0446 46.6304C13.9006 46.3558 13.7773 46.0762 13.6748 45.7906C13.5454 45.4135 13.4538 45.0314 13.3843 44.6457C13.3049 44.1526 13.2659 43.6278 13.2622 43.0993C13.2695 42.3401 13.344 41.5858 13.4721 40.8364C13.6821 39.6695 14.008 38.5234 14.4144 37.3919C14.4669 37.2504 14.5304 37.0758 14.5975 36.9025C14.9295 36.0505 15.303 35.212 15.7119 34.3857C15.8754 34.6493 16.0426 34.9105 16.2123 35.1705C17.1851 36.6572 18.2409 38.0877 19.3711 39.4596C20.4757 40.801 21.6536 42.0801 22.8937 43.2982C23.8421 44.2295 24.8283 45.1254 25.8511 45.9762C25.9768 46.0811 26.1038 46.1849 26.2307 46.2886C26.3174 46.2447 26.404 46.2007 26.4895 46.1556C26.5615 46.119 26.6335 46.0811 26.7043 46.0433C26.8898 45.9456 27.0729 45.8468 27.2547 45.7467C27.433 45.6491 27.6112 45.549 27.7869 45.4477C27.815 45.4318 27.8443 45.4147 27.8724 45.3976C28.0615 45.289 28.2483 45.1779 28.4326 45.0656C28.3081 44.9655 28.1824 44.8642 28.0591 44.7629C27.6234 44.4053 27.1925 44.0391 26.7677 43.6681C26.7653 43.6656 26.7629 43.6632 26.7604 43.662C26.7543 43.6571 26.7482 43.651 26.7458 43.6498C25.4984 42.5452 24.2973 41.382 23.1561 40.1565C22.3884 39.3326 21.6499 38.4843 20.9371 37.6129C20.8163 37.4627 20.6954 37.3138 20.5758 37.1625C20.145 36.6193 19.7263 36.0688 19.3186 35.5086C19.2942 35.4732 19.271 35.4378 19.243 35.4049C18.8304 34.8361 18.4325 34.2587 18.0468 33.6741C17.6831 33.1224 17.3364 32.5634 17.0032 31.9995C17.3352 31.4356 17.6831 30.8753 18.0468 30.3237C18.4313 29.739 18.8304 29.1617 19.243 28.5929C19.2698 28.5599 19.2942 28.5245 19.3186 28.4904C19.7251 27.9313 20.145 27.3797 20.5758 26.8365C20.6954 26.6864 20.8163 26.5362 20.9371 26.3861C21.6499 25.5146 22.3884 24.6651 23.1561 23.8425C24.2973 22.6158 25.4984 21.4526 26.7458 20.3492C26.7482 20.3468 26.7543 20.3419 26.7604 20.3358C26.7629 20.3333 26.7653 20.3309 26.7677 20.3297C27.1962 19.9562 27.6295 19.5863 28.0689 19.2275C28.1934 19.1262 28.3179 19.0249 28.4436 18.9248C28.3154 18.8479 28.1873 18.771 28.0579 18.6953C27.9712 18.6441 27.8846 18.594 27.7967 18.544C27.6173 18.4402 27.4366 18.3389 27.2547 18.2388C26.9215 18.0558 26.5834 17.8763 26.2405 17.7018C26.177 17.7531 26.1135 17.8056 26.0501 17.858C25.9866 17.9105 25.9231 17.9618 25.8609 18.0155C24.8344 18.8687 23.8445 19.7658 22.8937 20.7007C21.6548 21.9176 20.477 23.198 19.3711 24.5394C18.2409 25.9125 17.1863 27.3418 16.2123 28.8297C16.0426 29.0884 15.8754 29.3509 15.7107 29.6133C15.3018 28.787 14.9283 27.9497 14.5975 27.0977C14.5304 26.9244 14.4669 26.7511 14.4144 26.6083C14.0092 25.4768 13.6821 24.3307 13.4721 23.1638C13.344 22.4144 13.2695 21.6601 13.2622 20.9009C13.2659 20.3724 13.3049 19.8476 13.3843 19.3557C13.4526 18.97 13.5442 18.5879 13.6748 18.2108C13.7773 17.9252 13.9006 17.6469 14.0446 17.371C14.152 17.1782 14.2704 16.9914 14.401 16.8071C14.5182 16.6509 14.6427 16.5008 14.7781 16.3543C14.899 16.2286 15.0271 16.109 15.1614 15.993C15.2957 15.8844 15.4324 15.7794 15.574 15.6842C15.7082 15.5975 15.8437 15.5158 15.9865 15.4401C16.1574 15.3522 16.3331 15.2729 16.5126 15.1996C16.692 15.1301 16.8751 15.0703 17.0606 15.0153C17.262 14.9604 17.4646 14.9153 17.6684 14.8762C17.9028 14.8359 18.1359 14.8066 18.3703 14.7847C18.7169 14.7602 19.0587 14.7517 19.3894 14.7602C19.8056 14.7749 20.2133 14.8127 20.6149 14.8677C21.1544 14.9458 21.6768 15.0532 22.1552 15.1728C22.8827 15.3595 23.5821 15.5878 24.2522 15.838C24.257 15.8404 24.2631 15.8417 24.268 15.8441L24.2729 15.8465C25.2494 16.2213 26.1782 16.6485 27.0485 17.0988C27.1071 17.1294 27.1644 17.1586 27.2218 17.1892C27.3133 17.2368 27.4037 17.2868 27.494 17.3356C27.8553 17.5321 28.2117 17.7335 28.562 17.9398C28.5669 17.9423 28.573 17.9459 28.5778 17.9484C28.6816 18.0094 28.7841 18.0704 28.8866 18.1327C28.9941 18.1974 29.1015 18.2633 29.2089 18.3292C29.7252 18.6477 30.2305 18.9773 30.7248 19.3166C30.8517 19.4033 30.9787 19.4911 31.102 19.5778C31.1069 19.5802 31.1105 19.5839 31.1142 19.5863L31.1191 19.59C32.2322 20.3748 33.2965 21.2024 34.3169 22.0678C34.8113 22.4876 35.2983 22.9148 35.7706 23.3506C35.7706 23.3506 35.7718 23.3518 35.7731 23.3518L35.7792 23.3579C35.7987 23.3762 35.8182 23.397 35.8402 23.414C35.8414 23.4153 35.8439 23.4165 35.8451 23.4189C35.8622 23.4348 35.8793 23.4507 35.8976 23.4665C35.9049 23.4738 35.9134 23.4812 35.9171 23.4848C36.8899 24.3868 37.8261 25.3218 38.7232 26.2934C39.0918 26.6876 39.4555 27.094 39.8095 27.5029Z" fill="#1297F5"/>
<path d="M48.5021 18.4816C48.5021 18.8588 48.4838 19.2664 48.4484 19.6692V19.6729C48.4484 19.679 48.4472 19.6863 48.4472 19.6924C48.3935 20.2222 48.3117 20.7507 48.2092 21.2694C48.042 22.0725 47.8284 22.8439 47.5855 23.5946C47.5342 23.7496 47.4805 23.9034 47.4268 24.0559C47.2474 24.034 47.0668 24.0169 46.8861 24.0059C46.8739 24.0035 46.8617 24.0022 46.8495 24.001C46.2624 23.9705 45.668 24.0047 45.0858 24.1035C45.0382 24.1096 44.9893 24.117 44.943 24.1292C44.7587 24.1646 44.5756 24.2061 44.3949 24.2549C43.4319 23.1039 42.4164 21.9969 41.3521 20.9398C40.1034 19.6997 38.7913 18.5243 37.417 17.4246C36.3771 16.591 35.2981 15.8037 34.1849 15.0701C33.964 14.9237 33.7419 14.7809 33.5185 14.6393C33.4526 14.5978 33.3867 14.5563 33.3208 14.5148C33.0461 14.3427 32.7691 14.1755 32.4908 14.0107C32.3284 13.9143 32.1661 13.8203 32.0026 13.7275C30.9956 13.1539 29.963 12.6278 28.9048 12.1554C27.3241 11.4512 25.6788 10.8885 23.9883 10.5174C23.0424 10.3087 22.0745 10.1696 21.1054 10.1232C20.3681 10.0878 19.6297 10.1049 18.8974 10.1842C18.5971 10.2172 18.2956 10.2624 17.999 10.3209C18.2016 10.1903 18.4055 10.0634 18.6105 9.93768C19.0719 9.66061 19.5394 9.39453 20.0154 9.14431C20.4939 8.89288 20.9809 8.66097 21.4715 8.43761C22.0013 8.20448 22.5639 7.97135 23.1364 7.76142C23.6722 7.56491 24.2166 7.38914 24.7646 7.22559C25.2931 7.07546 25.8241 6.93509 26.3599 6.81426C26.8689 6.6983 27.3827 6.6031 27.8978 6.51766C28.4629 6.431 29.0293 6.35532 29.6005 6.30162C30.1961 6.24547 30.7918 6.21374 31.3898 6.19543C31.6706 6.19055 31.9842 6.18444 32.2967 6.19055C32.608 6.19543 32.9168 6.2052 33.2268 6.21862C33.7992 6.24181 34.3717 6.2943 34.9417 6.35655C35.4897 6.42246 36.0353 6.49813 36.5784 6.59822C37.1472 6.70319 37.7124 6.8228 38.2726 6.96194C38.8243 7.10231 39.4053 7.26465 39.9777 7.45261C40.5331 7.6357 41.0823 7.83465 41.6279 8.05069C42.1442 8.26063 42.6569 8.48155 43.1585 8.72444C43.6577 8.96611 44.1484 9.21999 44.6329 9.48973C44.9369 9.66183 45.2383 9.83881 45.5362 10.0219C45.5374 10.0219 45.5386 10.0231 45.5386 10.0243C45.5581 10.0353 45.5764 10.0475 45.5948 10.0585C45.7351 10.1452 45.8743 10.2331 46.011 10.3234C44.3986 10.0109 42.7386 10.0634 41.1214 10.3124C39.3687 10.5821 37.6635 11.1106 36.0206 11.7685C35.1516 12.1164 34.3009 12.5094 33.4672 12.9366C33.3806 12.9805 33.2951 13.0257 33.2085 13.0696C33.1218 13.1148 33.0364 13.16 32.9509 13.2063C33.1181 13.3016 33.2841 13.3968 33.4501 13.4944C33.8004 13.6995 34.1471 13.9094 34.4901 14.1254C34.501 14.1328 34.512 14.1389 34.523 14.1474C34.6207 14.2084 34.7183 14.2707 34.8147 14.3329C34.8221 14.3378 34.8294 14.3415 34.8367 14.3464C34.9478 14.4184 35.0588 14.4904 35.1687 14.5624C35.2651 14.5148 35.3615 14.4672 35.4592 14.4208C35.5336 14.3854 35.6081 14.3488 35.6826 14.3146C36.1573 14.09 36.637 13.8801 37.1216 13.6836C37.6086 13.492 38.1286 13.304 38.6558 13.1404C39.1807 12.9781 39.7104 12.8414 40.245 12.7291C40.6124 12.6559 40.9798 12.59 41.3508 12.5485C41.7317 12.5057 42.1149 12.4789 42.4982 12.4691C42.7032 12.4691 42.94 12.4691 43.178 12.485C43.4136 12.5021 43.6467 12.5277 43.8811 12.5582C44.2277 12.6156 44.5707 12.6925 44.9125 12.7975C45.065 12.8487 45.2176 12.9 45.3665 12.9659C45.5105 13.0294 45.6521 13.0953 45.7937 13.1673C45.9377 13.2478 46.1098 13.3492 46.2795 13.4627C46.3747 13.531 46.4675 13.5994 46.5602 13.6738C46.6408 13.7397 46.7201 13.8093 46.7982 13.8789C46.913 13.9887 47.0228 14.101 47.1302 14.2206C47.2376 14.3476 47.3389 14.4782 47.439 14.6149C47.5293 14.7479 47.616 14.8846 47.6978 15.0262C47.7844 15.1837 47.8784 15.3765 47.9675 15.5767C48.0359 15.7451 48.0981 15.9136 48.1543 16.0857C48.2129 16.2809 48.2653 16.4762 48.3117 16.674C48.363 16.9205 48.4045 17.1671 48.4362 17.4161C48.4741 17.7493 48.4973 18.1155 48.5021 18.4816Z" fill="#1297F5"/>
<path d="M13.5819 30.5107C13.8224 31.0124 14.0726 31.5092 14.335 31.9998C14.0738 32.4905 13.8224 32.9873 13.5819 33.4889C12.8569 35.0012 12.2344 36.5648 11.7596 38.1747C11.2592 39.8652 10.9223 41.6069 10.8442 43.3706C10.7868 44.6864 10.8869 46.0241 11.2177 47.3008C11.0847 47.1214 10.9541 46.9395 10.8271 46.7552C10.5171 46.3048 10.2193 45.8484 9.93367 45.3833C9.64318 44.8963 9.36489 44.402 9.10125 43.8991C8.85836 43.4365 8.63621 42.9642 8.42017 42.4881C8.19559 41.9755 7.98077 41.458 7.78914 40.9319C7.59263 40.3937 7.41443 39.8493 7.24721 39.3013C7.08854 38.7459 6.93597 38.1881 6.81391 37.6218C6.74922 37.3252 6.68941 37.0286 6.63205 36.7307C6.57834 36.4525 6.53318 36.1729 6.48802 35.8947C6.41113 35.3649 6.33545 34.801 6.29029 34.2347C6.24635 33.6854 6.21461 33.1374 6.19874 32.5869C6.18776 31.9608 6.19752 31.3371 6.2256 30.7121C6.25367 30.1067 6.31104 29.5026 6.37939 28.9008C6.4453 28.3796 6.51853 27.8609 6.61618 27.3446C6.71871 26.8039 6.83466 26.2681 6.96526 25.7335C7.10685 25.1818 7.25941 24.6276 7.43884 24.0808C7.62314 23.5157 7.82576 22.9579 8.04302 22.405C8.20535 22.0071 8.37257 21.6128 8.552 21.221C8.72898 20.8353 8.91694 20.4545 9.11223 20.0774C9.2111 19.887 9.31363 19.6978 9.41737 19.5098C9.45155 19.4622 9.47596 19.4036 9.50403 19.3536C9.51746 19.3316 9.52966 19.3084 9.54187 19.2864C9.54675 19.2803 9.55042 19.273 9.55408 19.2657C9.83114 18.7824 10.1168 18.3051 10.4243 17.8401C10.6807 17.4532 10.9455 17.0736 11.2189 16.6989C10.8882 17.9756 10.7893 19.3133 10.8467 20.6291C10.9248 22.3928 11.2616 24.1345 11.7621 25.825C12.2344 27.4337 12.8569 28.9985 13.5819 30.5107Z" fill="#1297F5"/>
</g>
<defs>
<clipPath id="clip0_286_1937">
<rect width="64" height="64" fill="white"/>
</clipPath>
</defs>
</svg>
