<svg width="237" height="72" viewBox="0 0 237 72" fill="none" xmlns="http://www.w3.org/2000/svg">
<g clip-path="url(#clip0_286_1060)">
<path d="M61.2469 35.6374C61.2481 36.1448 61.2505 36.669 61.2218 37.1908C61.2063 37.4594 61.1896 37.7257 61.1693 37.9944C61.1502 38.2356 61.1263 38.4756 61.1036 38.7156C61.032 39.3209 60.9532 39.9239 60.8409 40.5233C60.7812 40.8409 60.7191 41.1574 60.6499 41.4726C60.5854 41.7639 60.515 42.0529 60.4421 42.343C60.2929 42.8971 60.1341 43.4475 59.9526 43.992C59.7735 44.5293 59.5729 45.0559 59.3627 45.5812C59.1621 46.0612 58.9496 46.5353 58.7263 47.0045C58.5221 47.4332 58.2988 47.8523 58.0708 48.2678V48.269C58.0672 48.2762 58.0624 48.2833 58.0588 48.2905C57.937 48.5054 57.8045 48.7394 57.666 48.9699C57.5096 49.2302 57.3484 49.4857 57.1848 49.7412C56.9161 50.1627 56.6272 50.5723 56.3323 50.9759C56.6439 49.7723 56.7442 48.5126 56.7036 47.272C56.6463 45.5383 56.3203 43.8224 55.8379 42.1591C55.7794 41.955 55.7173 41.752 55.6541 41.5502C56.029 41.1765 56.3657 40.7657 56.6558 40.3239C57.2111 39.4797 57.6158 38.5245 57.8045 37.5311C57.9 37.0272 57.9561 36.5174 57.955 36.0027C57.955 35.7472 57.9442 35.4893 57.9167 35.235C57.8905 34.9794 57.8523 34.7275 57.8045 34.4756C57.7114 33.9824 57.5633 33.4929 57.3699 33.0296C57.1741 32.5591 56.9376 32.1078 56.657 31.6827C56.3645 31.2409 56.0278 30.829 55.6541 30.4541C55.7185 30.2523 55.7794 30.0493 55.8379 29.8451C56.3203 28.1818 56.6463 26.466 56.7036 24.7323C56.7442 23.4929 56.6439 22.2356 56.3335 21.032C56.4636 21.2087 56.5938 21.3902 56.7203 21.5717C57.032 22.0159 57.3245 22.472 57.6075 22.9353C57.8702 23.3759 58.1245 23.82 58.3621 24.2738C58.6117 24.7502 58.8421 25.235 59.0642 25.7233C59.2755 26.2057 59.475 26.6905 59.6588 27.1836C59.8487 27.6899 60.017 28.2021 60.177 28.718C60.3287 29.2326 60.4732 29.752 60.5926 30.2774C60.657 30.5627 60.7191 30.8493 60.7764 31.1371C60.8314 31.4105 60.8779 31.6839 60.9257 31.9585C60.9305 31.9968 60.9341 32.0374 60.9424 32.0756C60.9472 32.1281 60.9615 32.183 60.9687 32.2344C60.9758 32.2857 60.983 32.3383 60.9914 32.3896C61.02 32.5902 61.0463 32.792 61.0702 32.9926C61.1239 33.4427 61.1705 33.8941 61.1955 34.3466C61.2194 34.7717 61.2361 35.1956 61.2469 35.6218C61.2469 35.6266 61.2469 35.6326 61.2469 35.6374Z" fill="#1297F5"/>
<path d="M52.0911 48.0624C52.1257 48.4564 52.1436 48.8552 52.1436 49.2242C52.1388 49.5824 52.1161 49.9406 52.0791 50.2666C52.0481 50.5102 52.0075 50.7502 51.9573 50.9926C51.912 51.186 51.8618 51.3782 51.8033 51.5693C51.7484 51.7376 51.6875 51.9024 51.6206 52.0672C51.5346 52.263 51.4427 52.4517 51.3567 52.6057C51.2767 52.7442 51.192 52.8767 51.1036 53.0081C51.0057 53.1418 50.9066 53.2696 50.8015 53.3938C50.6964 53.5108 50.5878 53.6206 50.4767 53.7281C50.4003 53.7973 50.3227 53.8654 50.2439 53.9287C50.1532 54.0015 50.0624 54.0684 49.9693 54.1352C49.8045 54.2463 49.6361 54.3454 49.4941 54.4242C49.3555 54.4946 49.217 54.5603 49.0761 54.6212C48.9293 54.6857 48.78 54.7358 48.632 54.786C48.2976 54.8887 47.9621 54.9639 47.623 55.02C47.3938 55.0499 47.1645 55.0749 46.9352 55.0917C46.7024 55.1084 46.4708 55.1084 46.2702 55.1072C45.8952 55.0976 45.5215 55.0726 45.1478 55.0296C44.7848 54.989 44.4254 54.9245 44.066 54.8529C43.543 54.7418 43.026 54.6093 42.5114 54.4505C41.9955 54.2917 41.4869 54.1066 41.0105 53.9203C40.5329 53.7269 40.06 53.5191 39.5908 53.2982C39.4224 53.2194 39.2552 53.1382 39.0881 53.0547C38.9985 53.1132 38.909 53.1717 38.8194 53.2302C38.7311 53.2875 38.6427 53.3436 38.5543 53.3997C38.5114 53.4272 38.4672 53.4546 38.4242 53.4821C38.0887 53.6935 37.7496 53.8988 37.4069 54.0994C37.3257 54.1472 37.2445 54.1938 37.1633 54.2415C37.0821 54.2893 37.0009 54.3358 36.9185 54.3812C37.0021 54.4266 37.0869 54.4708 37.1705 54.5138C37.254 54.5579 37.3388 54.6009 37.4236 54.6451C38.2427 55.0654 39.0785 55.4511 39.9335 55.7938C41.5406 56.4373 43.2087 56.9544 44.9233 57.2182C46.5042 57.4618 48.1281 57.5132 49.7042 57.2075C49.5036 57.3376 49.3006 57.463 49.0988 57.5872L49.094 57.5896C49.0893 57.5932 49.0845 57.5955 49.0797 57.5979C48.6511 57.8535 48.2117 58.1042 47.7627 58.3406C47.3102 58.5794 46.8493 58.8003 46.3836 59.0152C45.8463 59.2541 45.3042 59.4845 44.7514 59.6839C44.4612 59.789 44.1711 59.8905 43.8773 59.9872C43.6015 60.0791 43.3233 60.1627 43.0439 60.2463H43.0415C43.0355 60.2487 43.0296 60.2499 43.0236 60.2523C42.5436 60.3872 42.0481 60.5197 41.5466 60.6296C41.2923 60.6857 41.0367 60.743 40.78 60.7908C40.5269 60.8373 40.2726 60.8827 40.0182 60.9257C39.5036 61.0057 38.9555 61.0821 38.4051 61.1323C38.0982 61.1597 37.7902 61.1848 37.4821 61.2039C37.2063 61.2206 36.9305 61.2302 36.6546 61.2397C36.3323 61.2457 36.0111 61.2493 35.6887 61.2457C35.3938 61.2421 35.0976 61.2314 34.8039 61.2194C34.2093 61.1944 33.6158 61.137 33.0248 61.0726C32.4863 61.0033 31.9478 60.9305 31.414 60.8278C31.1502 60.7764 30.8863 60.7275 30.6248 60.6678C30.3597 60.6081 30.0958 60.546 29.832 60.4827C29.303 60.3466 28.7776 60.1985 28.2582 60.0302C27.7305 59.8606 27.2111 59.6708 26.694 59.4702C26.4361 59.3663 26.1806 59.26 25.9263 59.149C25.6457 59.0272 25.3687 58.8982 25.0929 58.7693C24.5746 58.5257 24.0708 58.2535 23.5705 57.9752C23.1609 57.74 22.7299 57.4833 22.3096 57.2111C22.5985 57.2672 22.8911 57.3114 23.1836 57.3436C23.9012 57.4224 24.6236 57.4391 25.3436 57.4033C26.2929 57.3567 27.2385 57.2206 28.1639 57.0176C29.8176 56.6535 31.4272 56.1042 32.9735 55.4152C34.0087 54.9532 35.02 54.4385 36.0039 53.8773C36.1639 53.7866 36.3239 53.6935 36.4827 53.6003C36.7561 53.4403 37.026 53.2755 37.2946 53.1084C37.3591 53.0678 37.4236 53.0272 37.4881 52.9866C37.5967 52.9185 37.7054 52.8493 37.8129 52.7788C37.9215 52.7084 38.0302 52.6367 38.1388 52.5651C39.2278 51.8463 40.2833 51.0761 41.3006 50.2606C42.6451 49.1848 43.9275 48.0349 45.1502 46.8218C46.1926 45.7878 47.186 44.7036 48.1281 43.5776C48.343 43.635 48.5615 43.6827 48.7824 43.7221C49.2194 43.7997 49.6636 43.8379 50.1066 43.8379C50.4361 43.8379 50.7657 43.8164 51.0929 43.7758C51.1454 43.9251 51.1979 44.0744 51.2481 44.226C51.4869 44.9591 51.6958 45.7138 51.8582 46.5006C51.9585 47.0081 52.0385 47.5239 52.0911 48.0433C52.0911 48.0493 52.0923 48.0552 52.0923 48.0612L52.0911 48.0624Z" fill="#1297F5"/>
<path d="M43.6396 31.6014C43.5453 31.7399 43.4557 31.8808 43.3709 32.0241C42.8491 32.9041 42.5148 33.8856 42.3656 34.8957C42.2187 35.888 42.282 36.9065 42.516 37.8796C42.7321 38.7787 43.1238 39.6312 43.6396 40.3978C43.2921 40.7978 42.9375 41.1954 42.5769 41.5859C41.6993 42.5363 40.7835 43.4509 39.8318 44.3333C39.8282 44.3369 39.8211 44.3441 39.8127 44.3512C39.7948 44.3656 39.7781 44.3811 39.7614 44.3978C39.7602 44.399 39.7578 44.4002 39.7566 44.4026C39.7351 44.4193 39.716 44.4384 39.6969 44.4575L39.6909 44.4635C39.6897 44.4635 39.6897 44.4647 39.6885 44.4647C39.2253 44.8909 38.75 45.3089 38.2664 45.7196C37.2682 46.565 36.227 47.3745 35.1381 48.1435L35.1333 48.1471C35.1285 48.1495 35.125 48.153 35.1214 48.1554C35.0008 48.239 34.8778 48.325 34.7524 48.4109C34.2688 48.7417 33.7757 49.0641 33.2694 49.3757C33.1894 49.4259 33.1094 49.4748 33.0282 49.5238C32.9745 49.556 32.922 49.5883 32.8682 49.6205C32.7918 49.6671 32.7142 49.7124 32.6366 49.7578C32.2939 49.9596 31.9453 50.1566 31.5918 50.3489C31.5035 50.3966 31.4151 50.4444 31.3256 50.4921C31.2694 50.522 31.2121 50.5518 31.156 50.5805C30.3035 51.0211 29.396 51.439 28.4408 51.8056L28.436 51.8068C28.4312 51.8092 28.4253 51.8115 28.4205 51.8127C27.7638 52.0575 27.0808 52.2808 26.3691 52.4635C25.9011 52.5805 25.39 52.6856 24.8623 52.762C24.4694 52.8157 24.0706 52.8527 23.6635 52.8671C23.3399 52.8754 23.0044 52.8671 22.6664 52.8432C22.4372 52.8217 22.2091 52.7942 21.9799 52.7536C21.7793 52.7154 21.5823 52.67 21.3853 52.6175C21.2038 52.5638 21.0247 52.5053 20.8491 52.4384C20.6736 52.3656 20.5017 52.288 20.3345 52.202C20.196 52.1268 20.0623 52.048 19.9309 51.9632C19.7924 51.87 19.6575 51.7674 19.5273 51.6611C19.396 51.5465 19.2706 51.4295 19.1524 51.3077C19.0199 51.1644 18.8981 51.0163 18.7835 50.8647C18.6557 50.6856 18.5399 50.5017 18.4348 50.313C18.2939 50.0444 18.1733 49.7709 18.073 49.4915C17.9464 49.1226 17.8569 48.7489 17.7888 48.3715C17.7112 47.8892 17.673 47.3757 17.6694 46.8587C17.6766 46.116 17.7494 45.3781 17.8748 44.645C18.0802 43.5035 18.399 42.3823 18.7966 41.2754C18.8479 41.1369 18.91 40.9662 18.9757 40.7966C19.3005 39.9632 19.6658 39.1429 20.0658 38.3345C20.2258 38.5924 20.3894 38.848 20.5554 39.1023C21.507 40.5566 22.5399 41.956 23.6456 43.2981C24.7261 44.6103 25.8784 45.8617 27.0915 47.0533C28.0193 47.9644 28.9841 48.8408 29.9847 49.673C30.1076 49.7757 30.2318 49.8772 30.356 49.9787C30.4408 49.9357 30.5256 49.8927 30.6091 49.8486C30.6796 49.8127 30.75 49.7757 30.8193 49.7387C31.0008 49.6432 31.1799 49.5465 31.3578 49.4486C31.5321 49.353 31.7064 49.2551 31.8784 49.156C31.9059 49.1405 31.9345 49.1238 31.962 49.1071C32.147 49.0008 32.3297 48.8921 32.51 48.7823C32.3882 48.6844 32.2653 48.5853 32.1447 48.4862C31.7184 48.1363 31.2969 47.7781 30.8814 47.4151C30.879 47.4127 30.8766 47.4103 30.8742 47.4092C30.8682 47.4044 30.8623 47.3984 30.8599 47.3972C29.6396 46.3166 28.4647 45.1787 27.3482 43.9799C26.5972 43.1739 25.8748 42.3441 25.1775 41.4915C25.0593 41.3447 24.9411 41.199 24.8241 41.0509C24.4026 40.5196 23.993 39.9811 23.5942 39.433C23.5703 39.3984 23.5476 39.3638 23.5202 39.3315C23.1166 38.7751 22.7273 38.2103 22.35 37.6384C21.9942 37.0987 21.6551 36.5518 21.3291 36.0002C21.6539 35.4486 21.9942 34.9005 22.35 34.3608C22.7261 33.7889 23.1166 33.2241 23.5202 32.6677C23.5464 32.6354 23.5703 32.6008 23.5942 32.5674C23.9918 32.0205 24.4026 31.4808 24.8241 30.9495C24.9411 30.8026 25.0593 30.6557 25.1775 30.5089C25.8748 29.6563 26.5972 28.8253 27.3482 28.0205C28.4647 26.8205 29.6396 25.6826 30.8599 24.6032C30.8623 24.6008 30.8682 24.596 30.8742 24.59C30.8766 24.5877 30.879 24.5853 30.8814 24.5841C31.3005 24.2187 31.7244 23.8569 32.1542 23.5059C32.276 23.4068 32.3978 23.3077 32.5208 23.2098C32.3954 23.1345 32.27 23.0593 32.1435 22.9853C32.0587 22.9351 31.9739 22.8862 31.8879 22.8372C31.7124 22.7357 31.5357 22.6366 31.3578 22.5387C31.0318 22.3596 30.7011 22.1841 30.3656 22.0133C30.3035 22.0635 30.2414 22.1148 30.1793 22.1662C30.1172 22.2175 30.0551 22.2677 29.9942 22.3202C28.99 23.1548 28.0217 24.0324 27.0915 24.9471C25.8796 26.1375 24.7273 27.39 23.6456 28.7023C22.5399 30.0456 21.5082 31.4438 20.5554 32.8993C20.3894 33.1524 20.2259 33.4092 20.0647 33.6659C19.6647 32.8575 19.2993 32.0384 18.9757 31.205C18.91 31.0354 18.8479 30.8659 18.7966 30.7262C18.4002 29.6193 18.0802 28.4981 17.8748 27.3566C17.7494 26.6235 17.6766 25.8856 17.6694 25.1429C17.673 24.6259 17.7112 24.1124 17.7888 23.6312C17.8557 23.2539 17.9453 22.8802 18.073 22.5112C18.1733 22.2318 18.2939 21.9596 18.4348 21.6897C18.5399 21.5011 18.6557 21.3184 18.7835 21.1381C18.8981 20.9853 19.0199 20.8384 19.1524 20.6951C19.2706 20.5721 19.396 20.4551 19.5273 20.3417C19.6587 20.2354 19.7924 20.1327 19.9309 20.0396C20.0623 19.9548 20.1948 19.8748 20.3345 19.8008C20.5017 19.7148 20.6736 19.6372 20.8491 19.5656C21.0247 19.4975 21.2038 19.439 21.3853 19.3853C21.5823 19.3315 21.7805 19.2874 21.9799 19.2492C22.2091 19.2097 22.4372 19.1811 22.6664 19.1596C23.0056 19.1357 23.3399 19.1274 23.6635 19.1357C24.0706 19.1501 24.4694 19.1871 24.8623 19.2408C25.39 19.3172 25.9011 19.4223 26.3691 19.5393C27.0808 19.722 27.765 19.9453 28.4205 20.19C28.4253 20.1924 28.4312 20.1936 28.436 20.196L28.4408 20.1984C29.396 20.565 30.3047 20.9829 31.156 21.4235C31.2133 21.4533 31.2694 21.482 31.3256 21.5118C31.4151 21.5584 31.5035 21.6074 31.5918 21.6551C31.9453 21.8474 32.2939 22.0444 32.6366 22.2462C32.6414 22.2486 32.6473 22.2521 32.6521 22.2545C32.7536 22.3142 32.8539 22.3739 32.9542 22.4348C33.0593 22.4981 33.1644 22.5626 33.2694 22.6271C33.7745 22.9387 34.2688 23.2611 34.7524 23.593C34.8766 23.6778 35.0008 23.7638 35.1214 23.8486C35.1262 23.8509 35.1297 23.8545 35.1333 23.8569L35.1381 23.8605C36.227 24.6283 37.2682 25.4378 38.2664 26.2844C38.75 26.6951 39.2264 27.113 39.6885 27.5393C39.6885 27.5393 39.6897 27.5405 39.6909 27.5405L39.6969 27.5465C39.716 27.5644 39.7351 27.5847 39.7566 27.6014C39.7578 27.6026 39.7602 27.6038 39.7614 27.6062C39.7781 27.6217 39.7948 27.6372 39.8127 27.6527C39.8199 27.6599 39.8282 27.6671 39.8318 27.6706C40.7835 28.553 41.6993 29.4677 42.5769 30.4181C42.9375 30.8038 43.2933 31.2014 43.6396 31.6014Z" fill="#1297F5"/>
<path d="M52.1435 22.7764C52.1435 23.1453 52.1256 23.5441 52.0909 23.9382V23.9418C52.0909 23.9477 52.0897 23.9549 52.0897 23.9609C52.0372 24.4791 51.9572 24.9961 51.8569 25.5035C51.6933 26.2892 51.4844 27.0438 51.2467 27.7782C51.1966 27.9298 51.1441 28.0803 51.0915 28.2295C50.916 28.208 50.7393 28.1913 50.5626 28.1806C50.5506 28.1782 50.5387 28.177 50.5267 28.1758C49.9524 28.1459 49.3709 28.1794 48.8014 28.2761C48.7548 28.2821 48.707 28.2892 48.6617 28.3012C48.4814 28.3358 48.3023 28.3764 48.1256 28.4241C47.1835 27.2982 46.19 26.2152 45.1488 25.1812C43.9273 23.968 42.6438 22.8182 41.2993 21.7424C40.282 20.9268 39.2265 20.1567 38.1375 19.4391C37.9214 19.2958 37.7041 19.1561 37.4856 19.0176C37.4211 18.977 37.3566 18.9364 37.2921 18.8958C37.0235 18.7274 36.7524 18.5638 36.4802 18.4027C36.3214 18.3083 36.1626 18.2164 36.0026 18.1256C35.0175 17.5644 34.0073 17.0498 32.9721 16.5877C31.4259 15.8988 29.8163 15.3483 28.1626 14.9853C27.2372 14.7812 26.2903 14.645 25.3423 14.5997C24.6211 14.565 23.8987 14.5818 23.1823 14.6594C22.8885 14.6916 22.5936 14.7358 22.3035 14.7931C22.5017 14.6653 22.7011 14.5412 22.9017 14.4182C23.353 14.1471 23.8103 13.8868 24.276 13.6421C24.7441 13.3961 25.2205 13.1692 25.7005 12.9507C26.2187 12.7227 26.7691 12.4946 27.3291 12.2892C27.8533 12.097 28.3859 11.925 28.922 11.765C29.439 11.6182 29.9584 11.4809 30.4826 11.3627C30.9805 11.2492 31.4832 11.1561 31.987 11.0725C32.5399 10.9877 33.0939 10.9137 33.6527 10.8612C34.2354 10.8062 34.8181 10.7752 35.4032 10.7573C35.6778 10.7525 35.9847 10.7465 36.2903 10.7525C36.5948 10.7573 36.8969 10.7668 37.2002 10.78C37.7602 10.8027 38.3202 10.854 38.8778 10.9149C39.4139 10.9794 39.9476 11.0534 40.479 11.1513C41.0354 11.254 41.5882 11.371 42.1363 11.5071C42.676 11.6444 43.2444 11.8033 43.8044 11.9871C44.3476 12.1662 44.885 12.3609 45.4187 12.5722C45.9238 12.7776 46.4253 12.9937 46.916 13.2313C47.4044 13.4677 47.8844 13.7161 48.3584 13.98C48.6557 14.1483 48.9506 14.3215 49.242 14.5006C49.2432 14.5006 49.2444 14.5018 49.2444 14.503C49.2635 14.5137 49.2814 14.5256 49.2993 14.5364C49.4366 14.6212 49.5727 14.7071 49.7064 14.7955C48.1291 14.4898 46.5053 14.5412 44.9232 14.7847C43.2085 15.0486 41.5405 15.5656 39.9333 16.2092C39.0832 16.5495 38.2509 16.934 37.4354 17.3519C37.3506 17.3949 37.2671 17.4391 37.1823 17.4821C37.0975 17.5262 37.0139 17.5704 36.9303 17.6158C37.0939 17.7089 37.2563 17.8021 37.4187 17.8976C37.7614 18.0982 38.1005 18.3035 38.436 18.5149C38.4468 18.5221 38.4575 18.528 38.4682 18.5364C38.5638 18.5961 38.6593 18.657 38.7536 18.7179C38.7608 18.7227 38.7679 18.7262 38.7751 18.731C38.8838 18.8015 38.9924 18.8719 39.0999 18.9424C39.1942 18.8958 39.2885 18.8492 39.3841 18.8038C39.4569 18.7692 39.5297 18.7334 39.6026 18.7C40.067 18.4803 40.5363 18.2749 41.0103 18.0827C41.4868 17.8952 41.9954 17.7113 42.5112 17.5513C43.0247 17.3925 43.5429 17.2588 44.0659 17.1489C44.4253 17.0773 44.7847 17.0128 45.1476 16.9722C45.5202 16.9304 45.8951 16.9041 46.27 16.8946C46.4706 16.8946 46.7023 16.8946 46.9351 16.9101C47.1656 16.9268 47.3936 16.9519 47.6229 16.9818C47.962 17.0379 48.2975 17.1131 48.6318 17.2158C48.7811 17.2659 48.9303 17.3161 49.076 17.3806C49.2169 17.4427 49.3554 17.5071 49.4939 17.5776C49.6348 17.6564 49.8032 17.7555 49.9691 17.8665C50.0623 17.9334 50.153 18.0003 50.2438 18.0731C50.3226 18.1376 50.4002 18.2056 50.4766 18.2737C50.5888 18.3812 50.6963 18.491 50.8014 18.608C50.9065 18.7322 51.0056 18.86 51.1035 18.9937C51.1918 19.1238 51.2766 19.2576 51.3566 19.3961C51.4414 19.5501 51.5333 19.7388 51.6205 19.9346C51.6873 20.0994 51.7482 20.2641 51.8032 20.4325C51.8605 20.6235 51.9118 20.8146 51.9572 21.008C52.0073 21.2492 52.0479 21.4904 52.079 21.734C52.116 22.06 52.1387 22.4182 52.1435 22.7764Z" fill="#1297F5"/>
<path d="M17.9824 34.5436C18.2176 35.0344 18.4624 35.5203 18.7191 36.0003C18.4636 36.4803 18.2176 36.9663 17.9824 37.4571C17.2731 38.9365 16.6642 40.466 16.1997 42.0409C15.7101 43.6947 15.3806 45.3985 15.3042 47.1239C15.248 48.4111 15.346 49.7197 15.6695 50.9687C15.5394 50.7932 15.4116 50.6153 15.2874 50.435C14.9842 49.9944 14.6928 49.5478 14.4134 49.0929C14.1292 48.6165 13.857 48.1329 13.5991 47.6409C13.3615 47.1884 13.1442 46.7263 12.9328 46.2606C12.7131 45.7591 12.503 45.2529 12.3155 44.7382C12.1233 44.2117 11.9489 43.6791 11.7854 43.143C11.6301 42.5997 11.4809 42.0541 11.3615 41.5C11.2982 41.2099 11.2397 40.9197 11.1836 40.6284C11.131 40.3562 11.0869 40.0827 11.0427 39.8105C10.9674 39.2923 10.8934 38.7406 10.8492 38.1866C10.8063 37.6493 10.7752 37.1132 10.7597 36.5747C10.7489 35.9621 10.7585 35.352 10.786 34.7406C10.8134 34.1484 10.8695 33.5574 10.9364 32.9687C11.0009 32.4588 11.0725 31.9514 11.168 31.4463C11.2683 30.9174 11.3818 30.3932 11.5095 29.8702C11.648 29.3305 11.7973 28.7884 11.9728 28.2535C12.1531 27.7006 12.3513 27.155 12.5639 26.6141C12.7227 26.2248 12.8863 25.8391 13.0618 25.4559C13.2349 25.0785 13.4188 24.706 13.6098 24.3371C13.7066 24.1508 13.8069 23.9657 13.9083 23.7818C13.9418 23.7353 13.9657 23.678 13.9931 23.629C14.0063 23.6075 14.0182 23.5848 14.0301 23.5633C14.0349 23.5574 14.0385 23.5502 14.0421 23.543C14.3131 23.0702 14.5925 22.6033 14.8934 22.1484C15.1442 21.7699 15.4033 21.3985 15.6707 21.032C15.3471 22.2809 15.2504 23.5896 15.3066 24.8768C15.383 26.6021 15.7125 28.306 16.2021 29.9597C16.6642 31.5335 17.2731 33.0642 17.9824 34.5436Z" fill="#1297F5"/>
<path d="M82.97 46H78.686V21.928H86.948C90.042 21.928 95.652 22.812 95.652 28.83C95.652 33.862 92.694 36.038 86.268 36.038H82.97V46ZM82.97 25.6V32.366H85.758C88.274 32.366 91.164 32.094 91.164 28.966C91.164 26.688 89.498 25.6 86.166 25.6H82.97ZM103.245 20.296V46H99.1652V20.296H103.245ZM107.929 29.68H112.009V38.112C112.009 41.376 113.029 42.736 115.001 42.736C117.415 42.736 118.741 41.104 118.741 38.588V29.68H122.821V46H118.945V43.382H118.877C117.925 45.422 116.191 46.408 113.879 46.408C109.119 46.408 107.929 42.804 107.929 40.118V29.68ZM128.915 33.148H125.549V29.68H128.915V24.954H132.995V29.68H137.483V33.148H132.995V40.39C132.995 42.124 133.675 42.94 135.273 42.94C136.293 42.94 137.143 42.702 137.483 42.43V45.864C136.701 46.238 135.171 46.408 134.253 46.408C130.411 46.408 128.915 44.912 128.915 40.798V33.148ZM148.725 29.272C153.723 29.272 157.599 32.74 157.599 37.84C157.599 42.94 153.723 46.408 148.725 46.408C143.727 46.408 139.851 42.94 139.851 37.84C139.851 32.774 143.761 29.272 148.725 29.272ZM143.931 37.84C143.931 40.662 145.971 42.736 148.725 42.736C151.581 42.736 153.519 40.56 153.519 37.84C153.519 35.018 151.479 32.944 148.691 32.944C145.971 32.944 143.931 35.052 143.931 37.84ZM165.499 46H161.419V29.68H165.295V32.298H165.363C166.349 30.156 168.219 29.272 170.361 29.272C175.223 29.272 176.311 33.046 176.311 35.562V46H172.231V37.534C172.231 34.27 171.177 32.944 169.239 32.944C166.621 32.944 165.499 34.848 165.499 37.024V46ZM183.017 21.69C184.513 21.69 185.669 22.744 185.669 24.138C185.669 25.6 184.479 26.586 183.017 26.586C181.555 26.586 180.433 25.464 180.433 24.138C180.433 22.812 181.555 21.69 183.017 21.69ZM185.091 29.68V46H181.011V29.68H185.091ZM189.775 29.68H193.855V38.112C193.855 41.376 194.875 42.736 196.847 42.736C199.261 42.736 200.587 41.104 200.587 38.588V29.68H204.667V46H200.791V43.382H200.723C199.771 45.422 198.037 46.408 195.725 46.408C190.965 46.408 189.775 42.804 189.775 40.118V29.68ZM213.208 46H209.128V29.68H213.004V32.23H213.072C213.956 30.394 215.69 29.272 218.07 29.272C220.586 29.272 222.32 30.258 223.17 32.298C224.36 30.224 226.094 29.272 228.542 29.272C232.554 29.272 234.424 31.89 234.424 36.378V46H230.344V36.65C230.344 34.236 229.358 32.944 227.318 32.944C225.176 32.944 223.816 34.508 223.816 37.16V46H219.736V36.174C219.736 34.542 219.09 32.944 216.948 32.944C214.432 32.944 213.208 34.746 213.208 37.092V46Z" fill="white"/>
</g>
<defs>
<clipPath id="clip0_286_1060">
<rect width="237" height="72" fill="white"/>
</clipPath>
</defs>
</svg>
