<svg width="540" height="540" viewBox="0 0 540 540" fill="none" xmlns="http://www.w3.org/2000/svg">
<circle cx="269.579" cy="269.579" r="268.681" stroke="#1297F5" stroke-opacity="0.2" stroke-width="1.79668"/>
<path d="M532.698 328.917C533.906 332.385 534.952 335.892 535.828 339.435L534.957 339.651C535.83 343.179 536.534 346.742 537.064 350.337L537.952 350.206C538.485 353.815 538.843 357.456 539.022 361.127H539.023L538.127 361.171C538.216 362.982 538.26 364.801 538.26 366.627C538.26 368.452 538.216 370.272 538.127 372.084L539.022 372.127C538.843 375.797 538.485 379.439 537.952 383.048L537.064 382.918C536.534 386.513 535.83 390.075 534.957 393.602L535.828 393.817C534.952 397.361 533.906 400.868 532.698 404.337L531.851 404.042C530.662 407.454 529.314 410.83 527.812 414.164L528.629 414.532C527.135 417.846 525.491 421.119 523.7 424.347L522.916 423.913C521.166 427.068 519.276 430.181 517.25 433.25L517.999 433.745C516.004 436.766 513.877 439.742 511.625 442.673L510.914 442.126C508.721 444.979 506.407 447.79 503.977 450.553L504.65 451.144C502.26 453.862 499.757 456.534 497.146 459.158L496.511 458.526C493.97 461.08 491.326 463.589 488.583 466.05L489.182 466.717C486.486 469.135 483.696 471.507 480.813 473.83L480.25 473.132C477.442 475.395 474.545 477.613 471.564 479.782L472.093 480.508C469.163 482.64 466.152 484.724 463.063 486.761L462.57 486.013C459.556 488.002 456.466 489.944 453.305 491.838L453.765 492.606C450.654 494.47 447.475 496.286 444.229 498.055L443.802 497.268C440.627 498.998 437.388 500.681 434.088 502.316L434.485 503.118C431.234 504.729 427.924 506.294 424.557 507.81L424.189 506.995C420.889 508.481 417.534 509.922 414.127 511.314L414.466 512.144C411.104 513.518 407.691 514.845 404.229 516.125L403.919 515.285C400.52 516.542 397.074 517.752 393.583 518.915L393.864 519.763C390.415 520.913 386.923 522.018 383.388 523.073L383.132 522.214C379.655 523.252 376.136 524.243 372.58 525.187L372.81 526.052C369.291 526.986 365.735 527.876 362.144 528.717L361.94 527.844C358.41 528.67 354.844 529.449 351.246 530.182L351.425 531.058C347.861 531.784 344.267 532.466 340.641 533.098L340.487 532.216C336.911 532.839 333.305 533.417 329.671 533.948L329.8 534.834C326.197 535.36 322.566 535.839 318.91 536.271L318.806 535.384C315.195 535.811 311.559 536.192 307.899 536.526L307.98 537.418C304.349 537.749 300.694 538.036 297.018 538.274L296.961 537.379C293.338 537.613 289.693 537.802 286.028 537.943L286.062 538.838C282.423 538.978 278.766 539.071 275.09 539.118L275.079 538.224C273.25 538.248 271.417 538.26 269.579 538.26C267.741 538.26 265.908 538.248 264.079 538.224L264.067 539.118C260.392 539.071 256.734 538.978 253.096 538.838L253.13 537.943C249.466 537.802 245.821 537.613 242.197 537.379L242.14 538.274C238.463 538.036 234.809 537.749 231.178 537.418L231.259 536.526C227.599 536.192 223.963 535.811 220.353 535.384L220.247 536.271C216.591 535.839 212.96 535.36 209.357 534.834L209.487 533.948C205.853 533.417 202.247 532.839 198.671 532.216L198.517 533.098C194.891 532.466 191.296 531.784 187.732 531.058L187.912 530.182C184.314 529.449 180.748 528.67 177.218 527.844L177.014 528.717C173.422 527.876 169.866 526.986 166.348 526.052L166.578 525.187C163.022 524.243 159.504 523.252 156.026 522.214L155.77 523.073C152.235 522.018 148.742 520.913 145.293 519.763L145.575 518.915C142.084 517.752 138.638 516.542 135.239 515.285L134.928 516.125C131.466 514.845 128.053 513.518 124.691 512.144L125.031 511.314C121.624 509.922 118.269 508.481 114.969 506.995L114.601 507.81C111.234 506.294 107.923 504.729 104.672 503.118L105.07 502.316C101.77 500.681 98.5311 498.998 95.3564 497.268L94.9277 498.055C91.6821 496.286 88.5028 494.47 85.3926 492.606L85.8535 491.838C82.6922 489.944 79.6025 488.002 76.5879 486.013L76.0938 486.761C73.0055 484.724 69.994 482.64 67.0645 480.508L67.5938 479.782C64.6131 477.613 61.7167 475.395 58.9082 473.132L58.3438 473.83C55.4615 471.507 52.6712 469.135 49.9756 466.717L50.5752 466.05C47.832 463.589 45.1882 461.08 42.6475 458.526L42.0107 459.158C39.4005 456.534 36.8976 453.862 34.5068 451.144L35.1816 450.553C32.7513 447.79 30.4372 444.979 28.2441 442.126L27.5322 442.673C25.2803 439.742 23.1534 436.766 21.1582 433.745L21.9082 433.25C19.8818 430.181 17.9919 427.068 16.2422 423.913L15.457 424.347C13.6665 421.119 12.0218 417.846 10.5283 414.532L11.3467 414.164C9.84418 410.83 8.49649 407.454 7.30762 404.042L6.45898 404.337C5.25075 400.868 4.20563 397.361 3.3291 393.817L4.20117 393.602C3.32866 390.075 2.62409 386.513 2.09375 382.918L1.20508 383.048C0.672661 379.439 0.31435 375.797 0.134766 372.127L1.03125 372.084C0.964756 370.725 0.922965 369.362 0.90625 367.995L0.898438 366.627C0.898443 364.801 0.942601 362.982 1.03125 361.171L0.134766 361.127C0.314374 357.456 0.672638 353.815 1.20508 350.206L2.09375 350.337C2.62411 346.742 3.3286 343.179 4.20117 339.651L3.3291 339.435C4.13506 336.177 5.08318 332.949 6.16992 329.755L6.45898 328.917L7.30762 329.212C8.49644 325.799 9.84425 322.424 11.3467 319.091L10.5283 318.721C12.0218 315.408 13.6665 312.135 15.457 308.906L16.2422 309.342C17.9919 306.187 19.8818 303.073 21.9082 300.005L21.1592 299.51L21.1582 299.509C23.1534 296.488 25.2803 293.511 27.5322 290.581L28.2441 291.128C30.4372 288.274 32.7513 285.465 35.1816 282.702L34.5078 282.109C36.8986 279.391 39.4004 276.719 42.0107 274.095L42.6475 274.728C45.1882 272.174 47.832 269.666 50.5752 267.205L49.9756 266.537C52.6713 264.119 55.4613 261.746 58.3438 259.423L58.9082 260.123C61.7167 257.859 64.613 255.641 67.5938 253.471L67.0645 252.746C69.994 250.614 73.0055 248.53 76.0938 246.493L76.5879 247.241C79.6025 245.253 82.6922 243.311 85.8535 241.417L85.3926 240.647C88.5028 238.784 91.6821 236.967 94.9277 235.199L95.3564 235.986C98.5311 234.256 101.77 232.573 105.07 230.937L104.672 230.136C107.923 228.524 111.234 226.96 114.601 225.443L114.969 226.26C118.269 224.773 121.624 223.333 125.031 221.94L124.691 221.109C128.053 219.735 131.466 218.408 134.928 217.129L135.239 217.97C138.638 216.713 142.084 215.503 145.575 214.34L145.293 213.49C148.742 212.341 152.235 211.236 155.77 210.18L156.026 211.041C159.504 210.003 163.022 209.011 166.578 208.067L166.348 207.201C169.866 206.267 173.421 205.376 177.013 204.536L177.014 204.537L177.218 205.411C180.748 204.585 184.314 203.805 187.912 203.072L187.732 202.194C191.296 201.468 194.891 200.788 198.517 200.155L198.671 201.039C202.247 200.415 205.853 199.837 209.487 199.306L209.357 198.42C212.96 197.894 216.591 197.414 220.247 196.981L220.353 197.871C223.963 197.444 227.599 197.062 231.259 196.728L231.177 195.836C234.808 195.504 238.463 195.217 242.14 194.979L242.197 195.876C245.821 195.641 249.465 195.453 253.13 195.311L253.096 194.416C256.734 194.275 260.392 194.182 264.067 194.135L264.079 195.03C265.908 195.007 267.741 194.995 269.579 194.995C271.417 194.995 273.25 195.007 275.079 195.03L275.09 194.135C278.766 194.182 282.423 194.275 286.062 194.416L286.028 195.311C289.693 195.453 293.338 195.641 296.961 195.876L297.018 194.979C300.694 195.217 304.348 195.504 307.979 195.836L307.899 196.728C311.559 197.062 315.195 197.444 318.806 197.871L318.91 196.981C322.566 197.414 326.197 197.894 329.8 198.42L329.671 199.306C333.305 199.837 336.911 200.415 340.487 201.039L340.641 200.155C344.266 200.788 347.862 201.468 351.425 202.194L351.246 203.072C354.844 203.805 358.41 204.585 361.94 205.411L362.145 204.537V204.536C365.736 205.376 369.291 206.267 372.81 207.201L372.58 208.067C376.136 209.011 379.655 210.003 383.132 211.041L383.388 210.18C386.923 211.236 390.415 212.341 393.864 213.49L393.583 214.34C397.074 215.503 400.52 216.713 403.919 217.97L404.229 217.129C407.691 218.408 411.104 219.735 414.466 221.109L414.127 221.94C417.534 223.333 420.889 224.773 424.189 226.26L424.557 225.443C427.924 226.96 431.234 228.524 434.485 230.136L434.088 230.937C437.388 232.573 440.627 234.256 443.802 235.986L444.229 235.199C447.475 236.967 450.654 238.784 453.765 240.647L453.305 241.417C456.466 243.311 459.556 245.253 462.57 247.241L463.063 246.493C466.152 248.53 469.163 250.614 472.093 252.746L471.564 253.471C474.545 255.641 477.441 257.859 480.25 260.123L480.813 259.423C483.696 261.746 486.486 264.119 489.182 266.537L488.583 267.205C491.326 269.666 493.97 272.174 496.511 274.728L497.146 274.095C499.757 276.719 502.259 279.391 504.649 282.109L503.977 282.702C506.407 285.465 508.721 288.274 510.914 291.128L511.625 290.581C513.877 293.511 516.004 296.488 517.999 299.509V299.51L517.25 300.005C519.276 303.073 521.166 306.187 522.916 309.342L523.7 308.906C525.491 312.135 527.135 315.408 528.629 318.721L527.812 319.091C529.314 322.424 530.662 325.799 531.851 329.212L532.698 328.917Z" stroke="#1297F5" stroke-width="1.79668" stroke-dasharray="10.78 10.78"/>
<path d="M269.579 416.05C343.974 416.05 411.298 422.986 459.999 434.188C484.356 439.79 504.006 446.448 517.544 453.81C524.313 457.491 529.513 461.325 533.01 465.256C536.502 469.181 538.26 473.157 538.26 477.154C538.26 481.152 536.502 485.129 533.01 489.054C529.513 492.984 524.313 496.819 517.544 500.5C504.006 507.862 484.356 514.52 459.999 520.122C411.298 531.323 343.974 538.26 269.579 538.26C195.184 538.26 127.86 531.323 79.1592 520.122C54.8018 514.52 35.1525 507.862 21.6143 500.5C14.8449 496.819 9.6456 492.984 6.14844 489.054C2.65619 485.129 0.898438 481.152 0.898438 477.154C0.898516 473.157 2.65627 469.181 6.14844 465.256C9.6456 461.325 14.8448 457.491 21.6143 453.81C35.1525 446.448 54.8018 439.79 79.1592 434.188C127.86 422.986 195.184 416.05 269.579 416.05Z" stroke="#020F18" stroke-width="1.79668"/>
</svg>
