<svg width="300" height="300" viewBox="0 0 300 300" fill="none" xmlns="http://www.w3.org/2000/svg">
<circle cx="150" cy="150" r="149.5" stroke="#1297F5" stroke-opacity="0.2" stroke-width="0.999714"/>
<path d="M153.065 108.021C155.111 108.048 157.146 108.099 159.171 108.177L159.152 108.676C161.191 108.754 163.219 108.86 165.235 108.99L165.267 108.491C167.312 108.624 169.346 108.783 171.366 108.968L171.322 109.465C173.359 109.651 175.382 109.863 177.391 110.101L177.448 109.604C179.483 109.845 181.503 110.112 183.508 110.405L183.437 110.899C185.459 111.195 187.465 111.516 189.455 111.863L189.54 111.371C191.557 111.723 193.558 112.102 195.54 112.506L195.441 112.994C197.443 113.402 199.427 113.836 201.392 114.296L201.505 113.809C203.503 114.276 205.482 114.771 207.439 115.291L207.312 115.773C209.291 116.299 211.249 116.851 213.184 117.429L213.326 116.949V116.948C215.293 117.535 217.236 118.151 219.155 118.79L218.998 119.264C220.941 119.911 222.859 120.584 224.75 121.283L224.922 120.815C226.848 121.528 228.747 122.266 230.618 123.03L230.43 123.492C232.326 124.267 234.193 125.069 236.029 125.896L236.233 125.441C238.107 126.285 239.949 127.156 241.758 128.053L241.537 128.499C243.373 129.409 245.175 130.346 246.941 131.309L247.18 130.87C248.986 131.854 250.755 132.865 252.485 133.901L252.229 134.33C253.988 135.384 255.707 136.464 257.385 137.57L257.659 137.154C259.378 138.288 261.053 139.448 262.683 140.635L262.39 141.038C264.048 142.245 265.66 143.479 267.223 144.738L267.534 144.351C269.138 145.643 270.692 146.961 272.191 148.307L271.858 148.679C273.385 150.048 274.856 151.444 276.27 152.865L276.622 152.514C278.075 153.974 279.467 155.46 280.798 156.973L280.424 157.302C281.776 158.839 283.064 160.402 284.284 161.99L284.679 161.687C285.932 163.317 287.115 164.973 288.226 166.654L287.81 166.93C288.937 168.637 289.989 170.369 290.963 172.125L291.397 171.883C292.394 173.679 293.309 175.501 294.14 177.345L293.687 177.55C294.523 179.405 295.273 181.283 295.935 183.182L296.403 183.018C297.076 184.947 297.657 186.899 298.145 188.87L297.662 188.99C298.148 190.953 298.54 192.935 298.835 194.936L299.326 194.863C299.622 196.871 299.822 198.897 299.922 200.939L299.426 200.964C299.475 201.972 299.5 202.984 299.5 204C299.5 205.016 299.475 206.028 299.426 207.036L299.922 207.06C299.822 209.102 299.622 211.128 299.326 213.136L298.835 213.064C298.54 215.065 298.148 217.047 297.662 219.01L298.145 219.129C297.657 221.1 297.076 223.052 296.403 224.981L295.935 224.818C295.273 226.717 294.523 228.595 293.687 230.45L294.14 230.654C293.309 232.498 292.394 234.32 291.397 236.116L290.963 235.875C289.989 237.631 288.937 239.363 287.81 241.07L288.226 241.345C287.115 243.026 285.932 244.682 284.679 246.312L284.284 246.01C283.064 247.598 281.776 249.161 280.424 250.698L280.798 251.026C279.467 252.539 278.075 254.025 276.622 255.485L276.27 255.135C274.856 256.556 273.385 257.952 271.858 259.321L272.191 259.692C270.691 261.038 269.138 262.357 267.534 263.649L267.223 263.262C265.66 264.521 264.048 265.755 262.39 266.962L262.683 267.364C261.053 268.551 259.378 269.711 257.659 270.845L257.385 270.43C255.707 271.536 253.988 272.616 252.229 273.67L252.485 274.098C250.755 275.134 248.986 276.145 247.18 277.129L246.941 276.691C245.175 277.654 243.373 278.591 241.537 279.501L241.758 279.946C239.949 280.843 238.107 281.714 236.233 282.558L236.029 282.104C234.193 282.931 232.326 283.733 230.43 284.508L230.618 284.969C228.747 285.733 226.848 286.471 224.922 287.184L224.75 286.717C222.859 287.416 220.941 288.089 218.998 288.736L219.155 289.209C217.236 289.848 215.293 290.464 213.326 291.051L213.184 290.571C211.249 291.149 209.291 291.701 207.312 292.227L207.439 292.708C205.482 293.228 203.503 293.723 201.505 294.19L201.392 293.704C199.427 294.164 197.443 294.598 195.441 295.006L195.54 295.493C193.558 295.897 191.557 296.276 189.54 296.628L189.455 296.137C187.465 296.484 185.459 296.805 183.437 297.101L183.508 297.594C181.503 297.887 179.483 298.154 177.448 298.395L177.391 297.899C175.382 298.137 173.359 298.349 171.322 298.535L171.366 299.031C169.346 299.216 167.312 299.375 165.267 299.508L165.235 299.01C163.219 299.14 161.191 299.246 159.152 299.324L159.171 299.822C157.146 299.9 155.111 299.951 153.065 299.978L153.061 299.48C152.043 299.494 151.022 299.5 150 299.5C148.978 299.5 147.957 299.494 146.939 299.48L146.934 299.978C144.888 299.951 142.853 299.9 140.828 299.822L140.848 299.324C138.809 299.246 136.781 299.14 134.765 299.01L134.732 299.508C132.687 299.375 130.653 299.216 128.633 299.031L128.678 298.535C126.641 298.349 124.618 298.137 122.609 297.899L122.551 298.395C120.516 298.154 118.496 297.887 116.491 297.594L116.563 297.101C114.541 296.805 112.535 296.484 110.545 296.137L110.459 296.628C108.442 296.276 106.441 295.897 104.459 295.493L104.559 295.006C102.557 294.598 100.573 294.164 98.6084 293.704L98.4941 294.19C96.4956 293.723 94.5173 293.228 92.5596 292.708L92.6875 292.227C90.7086 291.701 88.7512 291.149 86.8164 290.571L86.6738 291.051H86.6729C84.706 290.464 82.763 289.848 80.8438 289.209L81.002 288.736C79.0593 288.089 77.1413 287.416 75.25 286.717L75.0771 287.184C73.151 286.471 71.2517 285.733 69.3809 284.969L69.5703 284.508C67.6743 283.733 65.807 282.931 63.9707 282.104L63.7656 282.558C61.8921 281.714 60.0503 280.843 58.2412 279.946L58.4629 279.501C56.6268 278.591 54.825 277.654 53.0586 276.691L52.8193 277.129C51.0134 276.145 49.2443 275.134 47.5137 274.098L47.7705 273.67C46.0116 272.616 44.2925 271.536 42.6152 270.43L42.3398 270.845C40.6214 269.711 38.9465 268.551 37.3164 267.364L37.6104 266.962C35.9519 265.755 34.34 264.521 32.7773 263.262L32.4648 263.648C30.8612 262.356 29.3074 261.038 27.8076 259.692L28.1416 259.321C26.6153 257.952 25.1442 256.556 23.7305 255.135L23.377 255.485C21.9244 254.025 20.5315 252.539 19.2012 251.026L19.5762 250.698C18.2239 249.161 16.9361 247.598 15.7158 246.01L15.3203 246.312C14.0672 244.682 12.8837 243.026 11.7734 241.345L12.1904 241.07C11.0628 239.363 10.0107 237.631 9.03711 235.875L8.60156 236.116C7.60523 234.32 6.69042 232.498 5.85938 230.654L6.31348 230.45C5.4775 228.595 4.72691 226.717 4.06543 224.818L3.5957 224.981C2.9235 223.052 2.34217 221.1 1.85449 219.129L2.33789 219.01C1.85238 217.047 1.46014 215.065 1.16504 213.064L0.672852 213.137C0.376557 211.128 0.17707 209.102 0.0771484 207.06L0.574219 207.036C0.537215 206.28 0.514181 205.521 0.504883 204.761L0.5 204C0.5 202.984 0.52489 201.972 0.574219 200.964L0.0771484 200.939C0.177087 198.897 0.376604 196.871 0.672852 194.863L1.16504 194.936C1.46014 192.935 1.85238 190.953 2.33789 188.99L1.85449 188.87C2.3422 186.899 2.92347 184.947 3.5957 183.018L4.06543 183.182C4.72692 181.283 5.47749 179.405 6.31348 177.55L5.85938 177.345C6.69044 175.501 7.60521 173.679 8.60156 171.883L9.03711 172.125C10.0107 170.369 11.0628 168.637 12.1904 166.93L11.7734 166.654C12.8837 164.973 14.0672 163.317 15.3203 161.687L15.7158 161.99C16.9361 160.402 18.2239 158.839 19.5762 157.302L19.2012 156.973C20.5315 155.46 21.9244 153.974 23.377 152.514L23.7305 152.865C25.1442 151.444 26.6153 150.048 28.1416 148.679L27.8076 148.307C29.3074 146.961 30.8612 145.643 32.4648 144.351L32.7773 144.738C34.34 143.479 35.9519 142.245 37.6104 141.038L37.3164 140.635C38.9465 139.448 40.6214 138.288 42.3398 137.154L42.6152 137.57C44.2925 136.464 46.0116 135.384 47.7705 134.33L47.5137 133.901C49.2443 132.865 51.0134 131.854 52.8193 130.87L53.0586 131.309C54.825 130.346 56.6268 129.409 58.4629 128.499L58.2412 128.053C60.0503 127.156 61.8921 126.285 63.7656 125.441L63.9707 125.896C65.807 125.069 67.6743 124.267 69.5703 123.492L69.3809 123.03C71.2517 122.266 73.151 121.528 75.0771 120.815L75.25 121.283C77.1413 120.584 79.0593 119.911 81.002 119.264L80.8438 118.79C82.763 118.151 84.7061 117.535 86.6729 116.948L86.6738 116.949L86.8164 117.429C88.7512 116.851 90.7087 116.299 92.6875 115.773L92.5596 115.291C94.5173 114.771 96.4956 114.276 98.4941 113.809L98.6084 114.296C100.573 113.836 102.557 113.402 104.559 112.994L104.459 112.506C106.441 112.102 108.442 111.723 110.459 111.371L110.545 111.863C112.535 111.516 114.541 111.195 116.563 110.899L116.491 110.405C118.496 110.112 120.516 109.845 122.551 109.604L122.609 110.101C124.618 109.863 126.641 109.651 128.678 109.465L128.632 108.968C130.653 108.783 132.686 108.624 134.732 108.491L134.765 108.99C136.781 108.86 138.809 108.754 140.848 108.676L140.828 108.177C142.853 108.099 144.888 108.048 146.934 108.021L146.939 108.52C147.957 108.506 148.978 108.5 150 108.5C151.022 108.5 152.043 108.506 153.061 108.52L153.065 108.021Z" stroke="#1297F5" stroke-width="0.999714" stroke-dasharray="6 6"/>
<path d="M150 231.5C191.395 231.5 228.856 235.359 255.954 241.591C269.507 244.709 280.441 248.413 287.974 252.509C291.74 254.558 294.633 256.691 296.579 258.878C298.522 261.063 299.5 263.275 299.5 265.5C299.5 267.724 298.522 269.937 296.579 272.121C294.633 274.308 291.74 276.442 287.974 278.49C280.441 282.586 269.507 286.291 255.954 289.408C228.856 295.64 191.395 299.5 150 299.5C108.605 299.5 71.1441 295.64 44.0459 289.408C30.4929 286.291 19.5593 282.586 12.0264 278.49C8.25972 276.442 5.3668 274.308 3.4209 272.121C1.47773 269.937 0.5 267.724 0.5 265.5C0.500001 263.275 1.47773 261.063 3.4209 258.878C5.3668 256.691 8.25973 254.558 12.0264 252.509C19.5593 248.413 30.4929 244.709 44.0459 241.591C71.1441 235.359 108.605 231.5 150 231.5Z" stroke="#020F18" stroke-width="0.999714"/>
</svg>
