<svg width="419" height="419" viewBox="0 0 419 419" fill="none" xmlns="http://www.w3.org/2000/svg">
<path d="M105.065 390.219L0.691697 209.439L105.065 28.6573L313.813 28.6573L418.187 209.439L313.813 390.219L105.065 390.219Z" stroke="#1297F5" stroke-opacity="0.2" stroke-width="1.19679"/>
<path d="M390.219 313.813L209.439 418.186L28.6577 313.813L28.6577 105.064L209.439 0.690481L390.219 105.065L390.219 313.813Z" stroke="#1297F5" stroke-opacity="0.2" stroke-width="1.19679"/>
<path d="M99.0825 128.551L96.2153 121.807L96.2153 121.806L96.766 121.572L93.8998 114.828L93.3491 115.061L93.3491 115.062L90.4819 108.317L90.4819 108.316L91.0326 108.083L88.1664 101.337L87.6157 101.572L87.6157 101.573L84.7494 94.8267L84.7485 94.8267L85.2993 94.5923L82.433 87.8472L81.8823 88.0816L81.8823 88.0826L79.016 81.3374L79.016 81.3365L79.5659 81.1021L78.4868 78.5621L81.2455 78.5621L81.2455 77.9644L88.5707 77.9644L88.5707 78.5621L95.8969 78.5621L95.8969 77.9644L103.222 77.9644L103.222 78.5621L110.548 78.5621L110.548 77.9644L117.874 77.9644L117.874 78.5621L125.2 78.5621L125.2 77.9644L132.526 77.9644L132.526 78.5621L139.851 78.5621L139.851 77.9644L147.177 77.9644L147.177 78.5621L154.502 78.5621L154.502 77.9644L161.829 77.9644L161.829 78.5621L169.155 78.5621L169.155 77.9644L176.48 77.9644L176.48 78.5621L183.806 78.5621L183.806 77.9644L191.131 77.9644L191.131 78.5621L198.457 78.5621L198.457 77.9644L205.784 77.9644L205.784 78.5621L213.109 78.5621L213.109 77.9644L220.435 77.9644L220.435 78.5621L227.76 78.5621L227.76 77.9644L235.086 77.9644L235.086 78.5621L242.413 78.5621L242.413 77.9644L249.738 77.9644L249.738 78.5621L257.064 78.5621L257.064 77.9644L264.389 77.9644L264.389 78.5621L271.715 78.5621L271.715 77.9644L279.041 77.9644L279.041 78.5621L286.367 78.5621L286.367 77.9644L293.693 77.9644L293.693 78.5621L301.018 78.5621L301.018 77.9644L308.344 77.9644L308.344 78.5621L315.669 78.5621L315.669 77.9644L322.996 77.9644L322.996 78.5621L330.322 78.5621L330.322 77.9644L337.647 77.9644L337.647 78.5621L340.406 78.5621L339.326 81.1021L339.876 81.3365L339.877 81.3375L337.01 88.0816L336.459 87.8472L333.593 94.5924L334.144 94.8267L331.278 101.573L331.277 101.572L330.726 101.337L327.86 108.083L328.411 108.316L325.544 115.062L325.543 115.061L324.993 114.828L322.126 121.572L322.677 121.806L319.811 128.551L319.26 128.317L316.393 135.062L316.944 135.296L314.078 142.042L313.527 141.807L310.66 148.552L311.21 148.786L311.211 148.787L308.344 155.531L307.793 155.297L304.927 162.042L305.478 162.276L302.611 169.021L302.06 168.787L299.194 175.532L299.745 175.766L296.878 182.512L296.877 182.511L296.327 182.277L293.46 189.022L294.011 189.255L291.145 196.002L291.144 196.001L290.594 195.767L287.727 202.511L288.278 202.746L285.412 209.491L284.861 209.256L281.994 216.002L282.544 216.236L282.545 216.237L279.678 222.981L279.127 222.747L276.26 229.492L276.811 229.725L276.812 229.726L273.945 236.47L273.394 236.237L270.528 242.981L271.079 243.215L268.211 249.961L267.661 249.726L264.794 256.471L265.345 256.706L262.479 263.452L262.478 263.451L261.927 263.216L259.061 269.961L259.612 270.195L256.746 276.94L256.195 276.707L253.328 283.451L253.878 283.685L251.012 290.43L250.461 290.196L247.594 296.941L248.145 297.175L248.146 297.176L245.279 303.92L244.728 303.686L241.862 310.431L242.413 310.665L239.545 317.41L238.995 317.176L236.128 323.92L236.679 324.155L233.813 330.901L233.812 330.9L233.261 330.666L230.395 337.411L230.946 337.645L228.08 344.39L227.529 344.156L224.662 350.901L225.212 351.134L222.346 357.879L221.795 357.646L218.928 364.39L219.479 364.625L216.613 371.37L216.062 371.135L213.196 377.88L213.746 378.115L210.879 384.86L210.329 384.626L209.447 386.702L208.564 384.626L208.013 384.86L208.013 384.861L205.147 378.115L205.146 378.115L205.697 377.88L202.83 371.135L202.28 371.37L202.28 371.371L199.413 364.626L199.413 364.625L199.963 364.39L197.097 357.646L196.546 357.879L196.546 357.88L193.68 351.136L193.68 351.135L194.231 350.901L191.364 344.156L190.814 344.39L187.947 337.646L187.947 337.645L188.497 337.411L185.63 330.666L185.08 330.9L185.08 330.901L182.213 324.156L182.213 324.155L182.764 323.921L179.898 317.176L179.347 317.41L179.347 317.411L176.481 310.666L176.48 310.666L177.031 310.431L174.164 303.686L173.614 303.92L173.614 303.921L170.747 297.176L170.747 297.175L171.297 296.941L168.431 290.196L167.88 290.43L167.88 290.431L165.014 283.686L165.014 283.685L165.565 283.452L162.698 276.707L162.147 276.94L162.147 276.941L159.281 270.197L159.281 270.196L159.831 269.961L156.964 263.216L156.414 263.451L153.547 256.707L153.547 256.706L154.098 256.471L151.232 249.726L150.681 249.96L150.681 249.961L147.814 243.216L147.814 243.215L148.365 242.981L145.498 236.237L144.948 236.47L144.948 236.471L142.081 229.725L142.08 229.725L142.631 229.492L139.765 222.747L139.215 222.981L136.348 216.237L136.348 216.236L136.899 216.002L134.032 209.256L133.482 209.491L130.615 202.747L130.615 202.746L131.165 202.511L128.298 195.767L127.748 196.001L124.881 189.256L124.881 189.255L125.432 189.022L122.566 182.277L122.015 182.511L122.015 182.512L119.149 175.766L119.148 175.766L119.699 175.532L116.832 168.787L116.282 169.021L116.282 169.022L113.415 162.276L113.414 162.276L113.965 162.042L111.099 155.297L110.548 155.531L110.548 155.532L107.682 148.787L107.682 148.786L108.233 148.552L105.366 141.807L104.816 142.042L101.949 135.297L101.949 135.296L102.499 135.062L99.6323 128.317L99.0825 128.551Z" stroke="#1297F5" stroke-width="1.19679" stroke-dasharray="7.18 7.18"/>
<path d="M128.169 320.191L121.425 323.059L121.424 323.059L121.189 322.508L114.445 325.374L114.679 325.925L114.68 325.925L107.934 328.792L107.933 328.792L107.7 328.241L100.955 331.107L101.189 331.658L101.19 331.658L94.4442 334.524L94.4442 334.525L94.2098 333.975L87.4647 336.841L87.6991 337.392L87.7001 337.392L80.955 340.258L80.954 340.258L80.7196 339.708L78.1796 340.787L78.1796 338.028L77.5819 338.028L77.5819 330.703L78.1796 330.703L78.1796 323.377L77.5819 323.377L77.5819 316.052L78.1796 316.052L78.1796 308.726L77.5819 308.726L77.5819 301.399L78.1796 301.399L78.1796 294.074L77.5819 294.074L77.5819 286.748L78.1796 286.748L78.1796 279.423L77.5819 279.423L77.5819 272.097L78.1796 272.097L78.1796 264.772L77.5819 264.772L77.5819 257.445L78.1796 257.445L78.1796 250.119L77.5819 250.119L77.5819 242.794L78.1796 242.794L78.1796 235.468L77.5819 235.468L77.5819 228.143L78.1796 228.143L78.1796 220.816L77.5819 220.816L77.5819 213.49L78.1796 213.49L78.1796 206.165L77.5819 206.165L77.5819 198.839L78.1796 198.839L78.1796 191.514L77.5819 191.514L77.5819 184.188L78.1796 184.188L78.1796 176.861L77.5819 176.861L77.5819 169.536L78.1796 169.536L78.1796 162.21L77.5819 162.21L77.5819 154.885L78.1796 154.885L78.1796 147.559L77.5819 147.559L77.5819 140.232L78.1796 140.232L78.1796 132.907L77.5819 132.907L77.5819 125.581L78.1796 125.581L78.1796 118.256L77.5819 118.256L77.5819 110.93L78.1796 110.93L78.1796 103.605L77.5819 103.605L77.5819 96.2784L78.1796 96.2784L78.1796 88.9522L77.5819 88.9522L77.5819 81.627L78.1796 81.627L78.1796 78.8682L80.7196 79.9483L80.954 79.3975L80.955 79.3965L87.6991 82.2637L87.4648 82.8145L94.2099 85.6807L94.4442 85.1299L101.19 87.9961L101.189 87.9971L100.955 88.5479L107.7 91.4141L107.934 90.8633L114.68 93.7295L114.679 93.7305L114.445 94.2813L121.189 97.1475L121.424 96.5967L128.169 99.4629L127.934 100.014L134.68 102.881L134.914 102.33L141.659 105.196L141.425 105.747L148.17 108.614L148.403 108.064L148.404 108.063L155.148 110.93L154.915 111.481L161.659 114.347L161.893 113.796L168.639 116.663L168.404 117.214L175.149 120.08L175.384 119.529L182.13 122.396L182.129 122.397L181.894 122.947L188.64 125.814L188.873 125.263L195.619 128.129L195.618 128.13L195.385 128.68L202.129 131.547L202.363 130.996L209.108 133.862L208.874 134.413L215.619 137.28L215.853 136.73L215.854 136.729L222.599 139.596L222.364 140.147L229.109 143.014L229.343 142.463L229.344 142.462L236.088 145.329L235.854 145.88L242.599 148.746L242.833 148.195L249.578 151.063L249.344 151.613L256.089 154.48L256.323 153.929L263.069 156.795L263.068 156.796L262.834 157.347L269.579 160.213L269.812 159.662L276.558 162.528L276.324 163.079L283.068 165.946L283.303 165.396L290.048 168.262L289.813 168.813L296.558 171.68L296.793 171.129L296.794 171.128L303.538 173.995L303.304 174.546L310.049 177.412L310.282 176.861L317.027 179.729L316.794 180.279L323.538 183.146L323.772 182.595L330.518 185.461L330.517 185.462L330.283 186.013L337.028 188.879L337.263 188.328L344.008 191.194L343.773 191.745L350.518 194.612L350.752 194.062L357.497 196.928L357.264 197.479L364.008 200.346L364.242 199.795L370.987 202.661L370.753 203.212L377.498 206.078L377.732 205.527L384.477 208.395L384.243 208.945L386.319 209.827L384.243 210.71L384.477 211.261L384.478 211.261L377.732 214.127L377.732 214.128L377.498 213.577L370.753 216.443L370.987 216.994L370.988 216.994L364.243 219.86L364.242 219.86L364.008 219.311L357.264 222.177L357.497 222.728L357.498 222.728L350.754 225.594L350.753 225.594L350.518 225.043L343.773 227.91L344.008 228.46L337.264 231.327L337.263 231.327L337.028 230.776L330.283 233.644L330.517 234.193L330.518 234.193L323.773 237.061L323.772 237.061L323.539 236.51L316.794 239.376L317.027 239.927L317.028 239.927L310.283 242.793L310.283 242.794L310.049 242.243L303.304 245.109L303.538 245.66L303.539 245.66L296.794 248.526L296.793 248.526L296.558 247.977L289.813 250.843L290.048 251.394L290.049 251.394L283.304 254.26L283.303 254.26L283.069 253.709L276.324 256.576L276.558 257.127L276.558 257.127L269.814 259.993L269.813 259.993L269.579 259.442L262.834 262.31L263.068 262.859L256.324 265.727L256.323 265.727L256.089 265.176L249.344 268.042L249.578 268.593L249.579 268.593L242.834 271.46L242.833 271.46L242.599 270.909L235.854 273.775L236.088 274.326L236.089 274.326L229.343 277.192L229.343 277.193L229.109 276.643L222.364 279.509L222.599 280.059L215.854 282.926L215.853 282.926L215.619 282.375L208.874 285.242L209.108 285.792L202.364 288.659L202.363 288.659L202.129 288.108L195.385 290.976L195.618 291.525L188.874 294.393L188.873 294.393L188.64 293.842L181.894 296.708L182.129 297.259L182.13 297.259L175.384 300.125L175.384 300.126L175.149 299.575L168.404 302.441L168.639 302.992L168.64 302.992L161.893 305.858L161.893 305.859L161.659 305.309L154.915 308.175L155.148 308.726L155.149 308.726L148.404 311.592L148.403 311.592L148.17 311.041L141.425 313.908L141.659 314.458L134.915 317.325L134.914 317.325L134.68 316.774L127.934 319.642L128.169 320.191Z" stroke="#1297F5" stroke-width="1.19679" stroke-dasharray="7.18 7.18"/>
<path d="M290.723 320.191L297.467 323.059L297.468 323.059L297.702 322.508L304.446 325.374L304.213 325.925L304.212 325.925L310.957 328.792L310.958 328.792L311.191 328.241L317.937 331.108L317.702 331.658L317.701 331.658L324.447 334.525L324.447 334.525L324.682 333.975L331.427 336.841L331.192 337.392L331.191 337.392L337.937 340.258L337.938 340.258L338.172 339.708L340.712 340.787L340.712 338.028L341.31 338.028L341.31 330.703L340.712 330.703L340.712 323.377L341.31 323.377L341.31 316.052L340.712 316.052L340.712 308.726L341.31 308.726L341.31 301.4L340.712 301.4L340.712 294.074L341.31 294.074L341.31 286.748L340.712 286.748L340.712 279.423L341.31 279.423L341.31 272.097L340.712 272.097L340.712 264.772L341.31 264.772L341.31 257.445L340.712 257.445L340.712 250.119L341.31 250.119L341.31 242.794L340.712 242.794L340.712 235.468L341.31 235.468L341.31 228.143L340.712 228.143L340.712 220.817L341.31 220.817L341.31 213.49L340.712 213.49L340.712 206.165L341.31 206.165L341.31 198.839L340.712 198.839L340.712 191.514L341.31 191.514L341.31 184.188L340.712 184.188L340.712 176.861L341.31 176.861L341.31 169.536L340.712 169.536L340.712 162.21L341.31 162.21L341.31 154.885L340.712 154.885L340.712 147.559L341.31 147.559L341.31 140.233L340.712 140.233L340.712 132.907L341.31 132.907L341.31 125.581L340.712 125.581L340.712 118.256L341.31 118.256L341.31 110.93L340.712 110.93L340.712 103.605L341.31 103.605L341.31 96.2784L340.712 96.2784L340.712 88.9522L341.31 88.9522L341.31 81.627L340.712 81.627L340.712 78.8683L338.172 79.9483L337.938 79.3976L337.937 79.3966L331.192 82.2638L331.427 82.8145L324.682 85.6808L324.447 85.13L317.701 87.9962L317.702 87.9972L317.937 88.5479L311.191 91.4142L310.958 90.8634L304.212 93.7296L304.213 93.7306L304.446 94.2813L297.702 97.1476L297.468 96.5968L290.723 99.463L290.957 100.014L284.212 102.881L283.978 102.33L277.232 105.196L277.467 105.747L270.722 108.614L270.488 108.064L270.487 108.063L263.743 110.93L263.977 111.481L257.232 114.347L256.998 113.796L250.253 116.663L250.487 117.214L243.742 120.08L243.508 119.529L236.762 122.396L236.763 122.397L236.997 122.947L230.252 125.814L230.019 125.263L223.272 128.129L223.273 128.13L223.507 128.68L216.763 131.547L216.528 130.996L209.783 133.862L210.018 134.413L203.272 137.28L203.038 136.73L203.037 136.729L196.293 139.596L196.527 140.147L189.782 143.014L189.549 142.463L189.548 142.462L182.804 145.329L183.037 145.88L176.293 148.746L176.059 148.195L169.314 151.063L169.548 151.613L162.803 154.48L162.568 153.929L155.822 156.795L155.823 156.796L156.058 157.347L149.313 160.213L149.079 159.662L142.334 162.528L142.567 163.079L135.823 165.946L135.589 165.396L128.844 168.262L129.078 168.813L122.333 171.68L122.099 171.129L122.098 171.128L115.354 173.995L115.588 174.546L108.843 177.412L108.609 176.861L101.864 179.729L102.098 180.279L95.3535 183.146L95.1192 182.595L88.3731 185.461L88.374 185.462L88.6084 186.013L81.8633 188.879L81.6289 188.328L74.8838 191.194L75.1182 191.745L68.3731 194.612L68.1397 194.062L61.3946 196.928L61.6279 197.479L54.8838 200.346L54.6494 199.795L47.9043 202.661L48.1387 203.212L41.3936 206.078L41.1592 205.527L34.4141 208.395L34.6485 208.945L32.5723 209.827L34.6485 210.71L34.4141 211.261L34.4131 211.261L41.1592 214.127L41.1592 214.128L41.3936 213.577L48.1387 216.443L47.9043 216.994L47.9033 216.994L54.6485 219.86L54.6494 219.86L54.8838 219.311L61.6279 222.177L61.3945 222.728L61.3936 222.728L68.1377 225.594L68.1387 225.594L68.3731 225.043L75.1182 227.91L74.8838 228.46L81.6279 231.327L81.6289 231.327L81.8633 230.776L88.6084 233.644L88.374 234.193L88.3731 234.193L95.1182 237.061L95.1192 237.061L95.3526 236.51L102.098 239.376L101.864 239.927L101.863 239.927L108.608 242.793L108.608 242.794L108.843 242.243L115.588 245.109L115.354 245.66L115.353 245.66L122.098 248.526L122.099 248.526L122.333 247.977L129.078 250.843L128.844 251.394L128.843 251.394L135.588 254.26L135.589 254.26L135.822 253.709L142.567 256.576L142.334 257.127L142.333 257.127L149.077 259.993L149.078 259.993L149.313 259.442L156.058 262.31L155.823 262.859L162.567 265.727L162.568 265.727L162.803 265.176L169.548 268.042L169.313 268.593L169.313 268.593L176.058 271.46L176.059 271.46L176.293 270.909L183.037 273.775L182.804 274.326L182.803 274.326L189.549 277.192L189.549 277.193L189.782 276.643L196.527 279.509L196.293 280.059L203.037 282.926L203.038 282.926L203.272 282.375L210.018 285.242L209.783 285.792L216.527 288.659L216.528 288.659L216.763 288.108L223.507 290.976L223.273 291.525L230.018 294.393L230.019 294.393L230.252 293.842L236.997 296.708L236.763 297.259L236.762 297.259L243.508 300.125L243.508 300.126L243.742 299.575L250.487 302.441L250.253 302.992L250.252 302.992L256.998 305.858L256.998 305.859L257.232 305.309L263.977 308.175L263.743 308.726L263.742 308.726L270.487 311.592L270.488 311.592L270.722 311.041L277.467 313.908L277.232 314.458L283.977 317.325L283.978 317.325L284.212 316.775L290.957 319.642L290.723 320.191Z" stroke="#1297F5" stroke-opacity="0.2" stroke-width="1.19679" stroke-dasharray="7.18 7.18"/>
</svg>
