<svg width="389" height="389" viewBox="0 0 389 389" fill="none" xmlns="http://www.w3.org/2000/svg">
<circle cx="195.125" cy="194.259" r="97.1363" stroke="#1297F5" stroke-opacity="0.2" stroke-width="0.857143"/>
<circle cx="195.126" cy="194.259" r="149.403" stroke="#1297F5" stroke-opacity="0.2" stroke-width="0.857143"/>
<path d="M192.081 194.259V194.688H194.697C194.693 195.606 194.679 196.522 194.649 197.438L195.075 197.45C195.005 199.584 194.867 201.708 194.659 203.821L194.233 203.78C194.025 205.894 193.749 207.996 193.404 210.082L193.825 210.151C193.478 212.255 193.062 214.343 192.579 216.413L192.164 216.316C191.682 218.382 191.133 220.43 190.519 222.456L190.928 222.579C190.309 224.617 189.625 226.634 188.875 228.625L188.476 228.475C187.729 230.458 186.918 232.417 186.043 234.348L186.432 234.523C185.554 236.462 184.612 238.372 183.608 240.25L183.231 240.049C182.234 241.916 181.174 243.752 180.054 245.554L180.416 245.777C179.294 247.583 178.111 249.354 176.869 251.087L176.522 250.839C175.291 252.558 174 254.24 172.652 255.882L172.982 256.152C171.636 257.793 170.232 259.393 168.772 260.951L168.462 260.66C168.1 261.046 167.735 261.43 167.366 261.811L166.251 262.944C165.5 263.695 164.738 264.432 163.966 265.155L164.257 265.467C162.699 266.926 161.1 268.33 159.459 269.677L159.188 269.347C157.546 270.694 155.864 271.984 154.145 273.216L154.394 273.562C152.66 274.804 150.89 275.987 149.085 277.109L148.859 276.747C147.058 277.867 145.222 278.928 143.354 279.926L143.556 280.303C141.677 281.307 139.767 282.247 137.829 283.125L137.653 282.736C135.723 283.611 133.765 284.422 131.781 285.169L131.932 285.567C129.94 286.317 127.924 287.004 125.886 287.622L125.762 287.213C123.736 287.827 121.688 288.376 119.622 288.857L119.719 289.273C117.649 289.756 115.561 290.172 113.457 290.52L113.389 290.098C111.302 290.442 109.2 290.72 107.086 290.928L107.127 291.354C105.014 291.561 102.89 291.7 100.757 291.77L100.744 291.343C99.6866 291.377 98.626 291.396 97.5645 291.396C96.5031 291.396 95.4432 291.377 94.3857 291.343L94.3721 291.77C92.2389 291.7 90.1145 291.562 88.002 291.354L88.0439 290.928C85.9302 290.72 83.828 290.442 81.7412 290.098L81.6719 290.52C79.5683 290.172 77.4801 289.756 75.4102 289.273L75.5068 288.857C73.441 288.376 71.393 287.827 69.3672 287.213L69.2432 287.622C67.2048 287.004 65.1888 286.318 63.1973 285.568L63.3486 285.169C61.3652 284.422 59.406 283.611 57.4756 282.736L57.2988 283.125C55.3611 282.247 53.4513 281.307 51.5732 280.303L51.7754 279.926C49.9082 278.928 48.0721 277.867 46.2705 276.747L46.0439 277.109C44.239 275.987 42.4684 274.804 40.7354 273.562L40.9854 273.216C39.2663 271.984 37.5841 270.694 35.9424 269.347L35.6699 269.677C34.0293 268.33 32.4297 266.926 30.8721 265.467L31.1641 265.155C30.3918 264.432 29.6295 263.695 28.8789 262.944C28.1284 262.194 27.3912 261.432 26.668 260.66L26.3564 260.951C24.8972 259.393 23.4923 257.793 22.1455 256.152L22.4775 255.882C21.1301 254.24 19.8393 252.558 18.6074 250.839L18.2598 251.087C17.0177 249.354 15.8353 247.583 14.7129 245.777L15.0762 245.554C13.956 243.752 12.8964 241.916 11.8984 240.049L11.5205 240.25C10.5165 238.372 9.57536 236.462 8.69727 234.523L9.08691 234.348C8.21233 232.417 7.40082 230.459 6.6543 228.476L6.25391 228.625C5.50446 226.634 4.81847 224.618 4.2002 222.58L4.61133 222.456C3.9967 220.43 3.44761 218.382 2.96582 216.316L2.54883 216.413C2.06616 214.343 1.651 212.255 1.30371 210.151L1.72559 210.082C1.3811 207.995 1.10459 205.894 0.896484 203.78L0.469727 203.821C0.261713 201.708 0.12347 199.584 0.0537109 197.45L0.480469 197.438C0.450536 196.522 0.436664 195.606 0.432617 194.688H3.04883V194.259H9.14648V194.688H15.2441V194.259H21.3428V194.688H27.4404V194.259H33.5381V194.688H39.6357V194.259H45.7334V194.688H51.8311V194.259H57.9287V194.688H64.0273V194.259H70.125V194.688H76.2227V194.259H82.3203V194.688H88.418V194.259H94.5156V194.688H100.614V194.259H106.712V194.688H112.81V194.259H118.907V194.688H125.005V194.259H131.103V194.688H137.2V194.259H143.299V194.688H149.396V194.259H155.494V194.688H161.592V194.259H167.689V194.688H173.787V194.259H179.885V194.688H185.983V194.259H192.081Z" stroke="#1297F5" stroke-width="0.857143" stroke-dasharray="6 6"/>
<path d="M388.044 184.695C388.252 186.808 388.391 188.932 388.46 191.065L388.035 191.079C388.065 191.994 388.079 192.912 388.083 193.83H385.466V194.258H379.369V193.83H373.27V194.258H367.172V193.83H361.075V194.258H354.977V193.83H348.879V194.258H342.782V193.83H336.684V194.258H330.585V193.83H324.488V194.258H318.39V193.83H312.292V194.258H306.195V193.83H300.097V194.258H294V193.83H287.901V194.258H281.803V193.83H275.706V194.258H269.608V193.83H263.51V194.258H257.413V193.83H251.314V194.258H245.216V193.83H239.119V194.258H233.021V193.83H226.923V194.258H220.826V193.83H214.728V194.258H208.629V193.83H202.532V194.258H196.434V193.83H193.817C193.821 192.912 193.836 191.994 193.866 191.079L193.439 191.065C193.496 189.308 193.6 187.556 193.751 185.812L193.855 184.695L194.282 184.737C194.49 182.624 194.766 180.521 195.111 178.435L194.689 178.365C195.036 176.262 195.451 174.173 195.934 172.104L196.351 172.2C196.833 170.134 197.382 168.086 197.997 166.061L197.586 165.937L197.585 165.936C198.204 163.898 198.89 161.882 199.639 159.891L200.04 160.042C200.786 158.059 201.598 156.099 202.472 154.169L202.083 153.992C202.953 152.071 203.885 150.178 204.879 148.315L204.906 148.267L205.284 148.469C206.282 146.602 207.341 144.765 208.461 142.964L208.098 142.738C209.221 140.933 210.403 139.162 211.645 137.429L211.993 137.679C213.225 135.96 214.515 134.278 215.863 132.636L215.531 132.363C216.877 130.722 218.283 129.123 219.742 127.565L220.053 127.857C220.777 127.085 221.514 126.323 222.264 125.572C223.015 124.822 223.777 124.085 224.549 123.361L224.257 123.05C225.815 121.591 227.414 120.186 229.055 118.839L229.328 119.171C230.969 117.823 232.651 116.533 234.371 115.301L234.121 114.953C235.854 113.711 237.624 112.529 239.429 111.406L239.656 111.77C241.457 110.649 243.294 109.59 245.161 108.592L244.958 108.214C246.837 107.21 248.746 106.269 250.684 105.391L250.861 105.78C252.791 104.906 254.75 104.094 256.734 103.348L256.583 102.947C258.574 102.198 260.589 101.512 262.627 100.894L262.628 100.895L262.752 101.305C264.778 100.69 266.826 100.141 268.892 99.6592L268.795 99.2422C270.865 98.7595 272.954 98.3444 275.057 97.9971L275.126 98.4189C277.213 98.0744 279.315 97.798 281.429 97.5898L281.387 97.1631C283.5 96.9551 285.624 96.8168 287.757 96.7471L287.771 97.1738C288.828 97.1392 289.888 97.1221 290.95 97.1221C292.011 97.1221 293.072 97.1392 294.129 97.1738L294.142 96.7471C296.275 96.8168 298.4 96.9551 300.512 97.1631L300.471 97.5898C302.585 97.798 304.687 98.0744 306.774 98.4189L306.842 97.9971C308.946 98.3444 311.034 98.7595 313.104 99.2422L313.007 99.6592C315.073 100.141 317.121 100.69 319.147 101.305L319.272 100.895V100.894C321.31 101.512 323.326 102.199 325.317 102.948L325.167 103.348C327.15 104.094 329.108 104.906 331.039 105.78L331.214 105.391C333.152 106.269 335.062 107.21 336.941 108.214L336.74 108.592C338.607 109.59 340.443 110.649 342.245 111.77L342.469 111.406C344.274 112.529 346.046 113.711 347.779 114.953L347.53 115.301C349.249 116.533 350.931 117.823 352.573 119.171L352.844 118.839C354.485 120.186 356.084 121.591 357.642 123.05L357.351 123.361C358.123 124.085 358.886 124.822 359.636 125.572C360.387 126.323 361.124 127.085 361.847 127.857L362.158 127.565C363.617 129.123 365.021 130.723 366.368 132.363H366.369L366.038 132.636C367.385 134.278 368.676 135.96 369.908 137.679L370.254 137.429C371.496 139.162 372.679 140.933 373.801 142.738L373.439 142.964C374.559 144.765 375.619 146.602 376.617 148.469L376.994 148.267C377.997 150.145 378.939 152.054 379.817 153.992L379.428 154.169C380.303 156.099 381.114 158.059 381.861 160.042L382.259 159.891C383.009 161.882 383.695 163.898 384.313 165.937L383.904 166.061C384.518 168.086 385.068 170.134 385.549 172.2L385.964 172.104C386.447 174.173 386.863 176.262 387.21 178.365L386.79 178.435C387.134 180.521 387.411 182.624 387.619 184.737L388.044 184.695Z" stroke="#1297F5" stroke-width="0.857143" stroke-dasharray="6 6"/>
<path d="M194.256 196.437H194.685V193.82C195.603 193.824 196.52 193.838 197.435 193.868L197.448 193.442C199.581 193.512 201.706 193.65 203.819 193.858L203.778 194.284C205.891 194.492 207.993 194.769 210.08 195.113L210.149 194.692C212.253 195.04 214.341 195.456 216.411 195.938L216.314 196.354C218.38 196.835 220.428 197.384 222.454 197.999L222.577 197.59C224.615 198.208 226.631 198.893 228.623 199.643L228.472 200.042C230.456 200.789 232.415 201.6 234.345 202.475L234.521 202.086C236.459 202.964 238.369 203.905 240.248 204.909L240.046 205.286C241.913 206.284 243.75 207.344 245.551 208.464L245.775 208.102C247.58 209.224 249.351 210.406 251.084 211.648L250.836 211.995C252.556 213.227 254.238 214.518 255.879 215.865L256.15 215.535C257.791 216.882 259.391 218.286 260.949 219.745L260.658 220.056C261.044 220.417 261.427 220.783 261.808 221.151L262.942 222.267C263.693 223.017 264.429 223.779 265.153 224.552L265.464 224.261C266.923 225.818 268.328 227.418 269.674 229.059L269.344 229.33C270.692 230.972 271.982 232.654 273.213 234.373L273.56 234.124C274.802 235.857 275.985 237.628 277.107 239.433L276.745 239.658C277.865 241.46 278.925 243.296 279.923 245.163L280.3 244.962C281.304 246.84 282.245 248.75 283.123 250.688L282.734 250.864C283.608 252.795 284.42 254.753 285.167 256.736L285.565 256.586C286.315 258.578 287.001 260.593 287.62 262.632L287.21 262.756C287.825 264.782 288.373 266.83 288.855 268.896L289.271 268.799C289.754 270.869 290.17 272.957 290.517 275.061L290.095 275.129C290.44 277.216 290.717 279.318 290.925 281.432L291.351 281.391C291.559 283.503 291.697 285.628 291.767 287.761L291.34 287.773C291.375 288.831 291.393 289.892 291.393 290.953C291.393 292.015 291.375 293.074 291.34 294.132L291.767 294.146C291.697 296.279 291.559 298.403 291.351 300.516L290.925 300.474C290.717 302.587 290.44 304.69 290.095 306.776L290.517 306.846C290.17 308.949 289.754 311.037 289.271 313.107L288.855 313.011C288.373 315.077 287.825 317.125 287.21 319.15L287.62 319.274C287.001 321.313 286.316 323.329 285.566 325.32L285.167 325.169C284.42 327.152 283.609 329.112 282.734 331.042L283.123 331.219C282.245 333.156 281.304 335.066 280.3 336.944L279.923 336.742C278.925 338.609 277.865 340.445 276.745 342.247L277.107 342.474C275.985 344.279 274.802 346.049 273.56 347.782L273.213 347.532C271.982 349.251 270.692 350.933 269.344 352.575L269.674 352.848C268.328 354.488 266.923 356.088 265.464 357.646L265.153 357.354C264.429 358.126 263.693 358.888 262.942 359.639C262.191 360.389 261.43 361.126 260.658 361.85L260.949 362.161C259.391 363.62 257.791 365.025 256.15 366.372L255.879 366.04C254.238 367.387 252.555 368.678 250.836 369.91L251.084 370.258C249.351 371.5 247.58 372.682 245.775 373.805L245.551 373.441C243.75 374.562 241.913 375.621 240.046 376.619L240.248 376.997C238.369 378.001 236.459 378.942 234.521 379.82L234.345 379.431C232.415 380.305 230.457 381.117 228.473 381.863L228.623 382.264C226.631 383.013 224.616 383.699 222.578 384.317L222.454 383.906C220.428 384.521 218.38 385.07 216.314 385.552L216.411 385.969C214.341 386.451 212.252 386.867 210.149 387.214L210.08 386.792C207.993 387.136 205.891 387.413 203.778 387.621L203.819 388.048C201.706 388.256 199.581 388.394 197.448 388.464L197.435 388.037C196.52 388.067 195.603 388.081 194.685 388.085V385.469H194.256V379.371H194.685V373.273H194.256V367.175H194.685V361.077H194.256V354.979H194.685V348.882H194.256V342.784H194.685V336.687H194.256V330.589H194.685V324.49H194.256V318.393H194.685V312.295H194.256V306.197H194.685V300.1H194.256V294.002H194.685V287.903H194.256V281.806H194.685V275.708H194.256V269.61H194.685V263.513H194.256L194.256 257.415H194.685V251.317H194.256V245.219H194.685V239.121H194.256V233.023H194.685V226.926H194.256V220.828H194.685V214.73H194.256V208.633H194.685V202.534H194.256V196.437Z" stroke="#1297F5" stroke-width="0.857143" stroke-dasharray="6 6"/>
<path d="M184.689 0.470703C186.801 0.262709 188.926 0.124467 191.059 0.0546875L191.073 0.480469C191.988 0.450527 192.905 0.435683 193.824 0.431641V3.04883H194.251L194.251 9.14648H193.824V15.2451H194.251V21.3428H193.824V27.4404H194.251V33.5381H193.824V39.6357H194.251V45.7334H193.824V51.8311H194.251V57.9297H193.824V64.0273H194.251V70.125H193.824V76.2227H194.251V82.3203H193.824V88.418H194.251V94.5156H193.824V100.614H194.251V106.712H193.824V112.81H194.251V118.907H193.824V125.005H194.251V131.103H193.824V137.201H194.251V143.299H193.824V149.396H194.251V155.494H193.824V161.592H194.251V167.689H193.824V173.787H194.251V179.886H193.824V185.983H194.251V192.081H193.824V194.698C192.905 194.694 191.988 194.679 191.073 194.649L191.059 195.076C189.302 195.019 187.55 194.915 185.806 194.764L184.689 194.66L184.731 194.233C182.617 194.025 180.515 193.749 178.428 193.404L178.359 193.826C176.255 193.479 174.167 193.064 172.097 192.581L172.194 192.164C170.128 191.682 168.08 191.133 166.054 190.519L165.93 190.929L165.929 190.93C163.891 190.311 161.875 189.625 159.884 188.876L160.036 188.476C158.052 187.729 156.093 186.918 154.163 186.043L153.986 186.433C152.065 185.562 150.171 184.63 148.309 183.636L148.26 183.609L148.462 183.231C146.595 182.234 144.759 181.174 142.958 180.054L142.732 180.417C140.927 179.295 139.156 178.112 137.422 176.87L137.672 176.522C135.953 175.291 134.271 174 132.629 172.652L132.357 172.984C130.716 171.638 129.117 170.232 127.559 168.773L127.851 168.462C127.079 167.739 126.317 167.002 125.566 166.251C124.815 165.5 124.078 164.738 123.355 163.966L123.043 164.258C121.584 162.7 120.179 161.101 118.833 159.46L119.165 159.188C117.817 157.546 116.526 155.864 115.294 154.145L114.947 154.395C113.705 152.661 112.522 150.891 111.4 149.086L111.763 148.859C110.643 147.058 109.583 145.222 108.585 143.354L108.208 143.557C107.204 141.678 106.262 139.769 105.384 137.831L105.774 137.654C104.899 135.724 104.088 133.765 103.341 131.781L102.941 131.933C102.191 129.941 101.506 127.926 100.887 125.888L100.888 125.887L101.298 125.763C100.684 123.737 100.135 121.689 99.6528 119.623L99.2358 119.72C98.7532 117.65 98.338 115.562 97.9907 113.458L98.4126 113.389C98.0681 111.302 97.7916 109.2 97.5835 107.086L97.1567 107.128C96.9487 105.015 96.8105 102.891 96.7407 100.758L97.1675 100.744C97.1329 99.6867 97.1157 98.6268 97.1157 97.5654C97.1157 96.5039 97.1329 95.4433 97.1675 94.3857L96.7407 94.373C96.8105 92.2399 96.9488 90.1154 97.1567 88.0029L97.5835 88.0439C97.7916 85.9302 98.0681 83.828 98.4126 81.7412L97.9907 81.6729C98.338 79.5693 98.7532 77.481 99.2358 75.4111L99.6528 75.5078C100.135 73.4419 100.684 71.394 101.298 69.3682L100.888 69.2432H100.887C101.506 67.2051 102.192 65.1895 102.942 63.1982L103.341 63.3486C104.088 61.3652 104.899 59.4069 105.774 57.4766L105.384 57.3008C106.262 55.3627 107.204 53.4526 108.208 51.5742L108.585 51.7754C109.583 49.9082 110.643 48.0721 111.763 46.2705L111.4 46.0459C112.522 44.2407 113.705 42.4696 114.947 40.7363L115.294 40.9854C116.526 39.2662 117.817 37.5842 119.165 35.9424L118.833 35.6709C120.179 34.03 121.584 32.4308 123.043 30.873L123.355 31.1641C124.078 30.3918 124.815 29.6295 125.566 28.8789C126.317 28.1283 127.079 27.3913 127.851 26.668L127.559 26.3574C129.117 24.8985 130.716 23.494 132.357 22.1475V22.1465L132.629 22.4775C134.271 21.13 135.953 19.8393 137.672 18.6074L137.422 18.2607C139.156 17.0187 140.927 15.8363 142.732 14.7139L142.958 15.0762C144.759 13.956 146.595 12.8964 148.462 11.8984L148.26 11.5215C150.138 10.5176 152.048 9.57625 153.986 8.69824L154.163 9.08691C156.093 8.21227 158.052 7.40086 160.036 6.6543L159.884 6.25586C161.876 5.50625 163.892 4.82054 165.93 4.20215L166.054 4.61133C168.08 3.99673 170.128 3.44759 172.194 2.96582L172.097 2.55078C174.167 2.06808 176.255 1.652 178.359 1.30469L178.428 1.72559C180.515 1.38106 182.617 1.10461 184.731 0.896484L184.689 0.470703Z" stroke="#1297F5" stroke-width="0.857143" stroke-dasharray="6 6"/>
</svg>
