<svg width="297" height="297" viewBox="0 0 297 297" fill="none" xmlns="http://www.w3.org/2000/svg">
<path d="M0.430908 146.57C0.620288 127.631 4.44135 108.9 11.6926 91.3939C19.1328 73.4316 30.0387 57.1103 43.7864 43.3626C57.534 29.6151 73.8546 18.71 91.8167 11.2698C109.779 3.82967 129.031 0.000345248 148.473 0.000305176C167.915 0.000305176 187.167 3.82968 205.129 11.2698C223.091 18.71 239.413 29.6149 253.16 43.3626C266.908 57.1103 277.813 73.4316 285.253 91.3939C292.504 108.9 296.327 127.631 296.516 146.57C296.521 147.063 296.524 147.556 296.524 148.05L0.423096 148.05C0.423096 147.556 0.425975 147.063 0.430908 146.57ZM30.0422 146.57C30.4277 115.693 42.8612 86.1627 64.7239 64.3001C86.9356 42.0886 117.061 29.6098 148.473 29.6097C179.885 29.6097 210.011 42.0884 232.223 64.3001C254.086 86.1627 266.518 115.693 266.904 146.57H295.035C294.846 127.826 291.063 109.287 283.886 91.9603C276.52 74.1776 265.724 58.0197 252.114 44.4095C238.503 30.7993 222.345 20.0028 204.563 12.637C186.78 5.27129 167.721 1.48077 148.473 1.48077C129.225 1.48081 110.166 5.27125 92.3831 12.637C74.6006 20.0028 58.4434 30.7994 44.8333 44.4095C31.223 58.0197 20.4266 74.1777 13.0608 91.9603C5.88388 109.287 2.10071 127.826 1.91138 146.57H30.0422ZM61.136 146.57C61.5193 123.546 70.8322 101.547 87.1418 85.2376C103.801 68.579 126.394 59.2201 149.953 59.22C173.512 59.22 196.107 68.5788 212.766 85.2376C229.075 101.547 238.388 123.546 238.772 146.57H265.423C265.038 116.085 252.761 86.932 231.176 65.347C209.242 43.4129 179.492 31.0901 148.473 31.0901C117.454 31.0902 87.7048 43.4131 65.7708 65.347C44.1858 86.932 31.9081 116.085 31.5227 146.57H61.136ZM90.7522 146.57C90.934 139.297 92.4545 132.117 95.2415 125.388C98.2175 118.203 102.579 111.674 108.078 106.175C113.577 100.676 120.106 96.3143 127.291 93.3382C134.476 90.3621 142.177 88.8304 149.953 88.8304C157.73 88.8304 165.432 90.3621 172.616 93.3382C179.801 96.3142 186.329 100.676 191.828 106.175C197.327 111.674 201.69 118.203 204.666 125.388C207.453 132.117 208.974 139.297 209.156 146.57L237.29 146.57C236.907 123.939 227.751 102.316 211.719 86.2845C195.338 69.9034 173.12 60.7005 149.953 60.7005C126.787 60.7006 104.569 69.9033 88.1877 86.2845C72.1559 102.316 62.9996 123.939 62.6165 146.57H90.7522ZM120.381 146.57C120.747 139.256 123.813 132.316 129.016 127.113C134.569 121.56 142.1 118.44 149.953 118.44C157.806 118.44 165.338 121.56 170.891 127.113C176.094 132.316 179.161 139.256 179.527 146.57H207.674C207.493 139.492 206.011 132.503 203.298 125.954C200.396 118.949 196.143 112.584 190.781 107.222C185.42 101.861 179.055 97.607 172.05 94.7054C165.045 91.8037 157.536 90.3109 149.953 90.3109C142.371 90.3109 134.863 91.8038 127.858 94.7054C120.852 97.6071 114.487 101.86 109.125 107.222C103.764 112.584 99.5113 118.949 96.6096 125.954C93.897 132.503 92.4142 139.492 92.2327 146.57H120.381ZM178.044 146.57C177.68 139.649 174.769 133.085 169.844 128.159C164.569 122.884 157.414 119.92 149.953 119.92C142.493 119.92 135.338 122.884 130.063 128.159C125.138 133.085 122.228 139.649 121.864 146.57H178.044Z" fill="#1297F5" fill-opacity="0.2"/>
<path d="M0.430908 146.57C0.620288 127.631 4.44135 108.9 11.6926 91.3939C19.1328 73.4316 30.0387 57.1103 43.7864 43.3626C57.534 29.6151 73.8546 18.71 91.8167 11.2698C109.779 3.82967 129.031 0.000345248 148.473 0.000305176C167.915 0.000305176 187.167 3.82968 205.129 11.2698C223.091 18.71 239.413 29.6149 253.16 43.3626C266.908 57.1103 277.813 73.4316 285.253 91.3939C292.504 108.9 296.327 127.631 296.516 146.57C296.521 147.063 296.524 147.556 296.524 148.05L0.423096 148.05C0.423096 147.556 0.425975 147.063 0.430908 146.57ZM30.0422 146.57C30.4277 115.693 42.8612 86.1627 64.7239 64.3001C86.9356 42.0886 117.061 29.6098 148.473 29.6097C179.885 29.6097 210.011 42.0884 232.223 64.3001C254.086 86.1627 266.518 115.693 266.904 146.57H295.035C294.846 127.826 291.063 109.287 283.886 91.9603C276.52 74.1776 265.724 58.0197 252.114 44.4095C238.503 30.7993 222.345 20.0028 204.563 12.637C186.78 5.27129 167.721 1.48077 148.473 1.48077C129.225 1.48081 110.166 5.27125 92.3831 12.637C74.6006 20.0028 58.4434 30.7994 44.8333 44.4095C31.223 58.0197 20.4266 74.1777 13.0608 91.9603C5.88388 109.287 2.10071 127.826 1.91138 146.57H30.0422ZM61.136 146.57C61.5193 123.546 70.8322 101.547 87.1418 85.2376C103.801 68.579 126.394 59.2201 149.953 59.22C173.512 59.22 196.107 68.5788 212.766 85.2376C229.075 101.547 238.388 123.546 238.772 146.57H265.423C265.038 116.085 252.761 86.932 231.176 65.347C209.242 43.4129 179.492 31.0901 148.473 31.0901C117.454 31.0902 87.7048 43.4131 65.7708 65.347C44.1858 86.932 31.9081 116.085 31.5227 146.57H61.136ZM90.7522 146.57C90.934 139.297 92.4545 132.117 95.2415 125.388C98.2175 118.203 102.579 111.674 108.078 106.175C113.577 100.676 120.106 96.3143 127.291 93.3382C134.476 90.3621 142.177 88.8304 149.953 88.8304C157.73 88.8304 165.432 90.3621 172.616 93.3382C179.801 96.3142 186.329 100.676 191.828 106.175C197.327 111.674 201.69 118.203 204.666 125.388C207.453 132.117 208.974 139.297 209.156 146.57L237.29 146.57C236.907 123.939 227.751 102.316 211.719 86.2845C195.338 69.9034 173.12 60.7005 149.953 60.7005C126.787 60.7006 104.569 69.9033 88.1877 86.2845C72.1559 102.316 62.9996 123.939 62.6165 146.57H90.7522ZM120.381 146.57C120.747 139.256 123.813 132.316 129.016 127.113C134.569 121.56 142.1 118.44 149.953 118.44C157.806 118.44 165.338 121.56 170.891 127.113C176.094 132.316 179.161 139.256 179.527 146.57H207.674C207.493 139.492 206.011 132.503 203.298 125.954C200.396 118.949 196.143 112.584 190.781 107.222C185.42 101.861 179.055 97.607 172.05 94.7054C165.045 91.8037 157.536 90.3109 149.953 90.3109C142.371 90.3109 134.863 91.8038 127.858 94.7054C120.852 97.6071 114.487 101.86 109.125 107.222C103.764 112.584 99.5113 118.949 96.6096 125.954C93.897 132.503 92.4142 139.492 92.2327 146.57H120.381ZM178.044 146.57C177.68 139.649 174.769 133.085 169.844 128.159C164.569 122.884 157.414 119.92 149.953 119.92C142.493 119.92 135.338 122.884 130.063 128.159C125.138 133.085 122.228 139.649 121.864 146.57H178.044Z" stroke="#1297F5"/>
<path d="M0.423096 148.051C0.423096 187.316 16.0212 224.973 43.786 252.738C71.5507 280.503 109.208 296.101 148.473 296.101C187.739 296.101 225.396 280.503 253.16 252.738C280.925 224.973 296.523 187.316 296.523 148.051" stroke="#1297F5" stroke-width="0.846001" stroke-dasharray="5.92 5.92"/>
</svg>
