<svg width="20" height="20" viewBox="0 0 20 20" fill="none" xmlns="http://www.w3.org/2000/svg">
<path fill-rule="evenodd" clip-rule="evenodd" d="M5.58819 12.6472L5.72416 12.5109L5.13597 11.9227L4.99995 12.0587L5.58819 12.6472ZM3.82357 10.8823L4.41176 11.4705L4.54778 11.3345L3.95959 10.7463L3.82357 10.8823ZM10.8064 8.99151L10.9428 9.12748L11.4802 8.58962L11.3443 8.45365L10.8064 8.99151ZM10.3846 10V10.1923H11.1538V10V9.80769H10.3846V10ZM11.9231 10V10.1923H12.6923V10V9.80769H11.9231V10ZM13.4615 10V10.1923H14.2308V10V9.80769H13.4615V10ZM15 10V10.1923H15.7692V10V9.80769H15V10ZM9.61539 9.80769V10V10.1923H8.84615V10V9.80769H9.61539ZM8.07692 9.80769V10V10.1923H7.30769V10V9.80769H8.07692ZM6.53846 9.80769V10V10.1923H5.76923V10V9.80769H6.53846ZM5 9.80769V10V10.1923H4.23077V10V9.80769H5Z" fill="#1297F5"/>
<path fill-rule="evenodd" clip-rule="evenodd" d="M10.1923 20V19.6154H9.80769V20H10.1923ZM10.1923 18.8462V18.0769H9.80769V18.8462H10.1923ZM10.2941 16.7646L10 17.0587L9.7059 16.7646L9.56994 16.9005L9.80769 17.1383V17.3077H9.97709L10 17.3306L10.0229 17.3077H10.1923V17.1383L10.4301 16.9005L10.2941 16.7646ZM9.11771 16.1764L8.52952 15.5882L8.39355 15.7242L8.98175 16.3123L9.11771 16.1764ZM7.94124 15L7.35276 14.4118L7.2168 14.5478L7.80536 15.136L7.94124 15ZM6.76467 13.8236L6.17652 13.2354L6.04041 13.3714L6.62861 13.9596L6.76467 13.8236ZM5.58819 12.6472L5.72416 12.5109L5.13597 11.9227L4.99995 12.0587L4.86403 12.1946L5.45222 12.7832L5.58819 12.6472ZM4.41176 11.4705L4.54778 11.3345L3.95959 10.7463L3.82357 10.8823L3.68765 11.0183L4.27584 11.6064L4.41176 11.4705ZM3.23538 10.2941L2.94119 10L3.23538 9.7059L3.09946 9.56994L2.8617 9.80769H2.69231V9.97709L2.6694 10L2.69231 10.0229V10.1923H2.8617L3.09946 10.4301L3.23538 10.2941ZM3.82357 9.11771L4.41176 8.52952L4.27584 8.39355L3.68765 8.98175L3.82357 9.11771ZM4.99995 7.94133L5.58819 7.35276L5.45222 7.2168L4.86403 7.80536L4.99995 7.94133ZM6.17652 6.76457L6.76467 6.17638L6.62861 6.04041L6.04041 6.62861L6.17652 6.76457ZM7.35276 5.58819L7.94124 5L7.80536 4.86403L7.2168 5.45222L7.35276 5.58819ZM8.52948 4.41181L9.11767 3.82362L8.98175 3.68765L8.39355 4.27584L8.52948 4.41181ZM9.7059 3.23543L10 2.94133L10.2941 3.23543L10.4301 3.09946L10.1923 2.8617V2.69231H10.0229L10 2.6694L9.97709 2.69231H9.80769V2.8617L9.56994 3.09946L9.7059 3.23543ZM10.8823 3.82362L11.4705 4.41181L11.6064 4.27584L11.0183 3.68765L10.8823 3.82362ZM12.0588 5L12.6472 5.58819L12.7832 5.45222L12.1946 4.86403L12.0588 5ZM13.2353 6.17638L13.8235 6.76457L13.9596 6.62861L13.3714 6.04041L13.2353 6.17638ZM14.4118 7.35276L15 7.94133L15.136 7.80536L14.5478 7.2168L14.4118 7.35276ZM15.5882 8.52952L16.1764 9.11771L16.3123 8.98175L15.7242 8.39355L15.5882 8.52952ZM16.7646 9.7059L17.0588 10L16.7646 10.2941L16.9005 10.4301L17.1383 10.1923H17.3077V10.0229L17.3306 10L17.3077 9.97709V9.80769H17.1383L16.9005 9.56994L16.7646 9.7059ZM16.1764 10.8823L15.5882 11.4705L15.7242 11.6064L16.3123 11.0183L16.1764 10.8823ZM15 12.0587L14.4118 12.6472L14.5478 12.7832L15.136 12.1946L15 12.0587ZM13.8235 13.2354L13.2353 13.8236L13.3714 13.9596L13.9596 13.3714L13.8235 13.2354ZM12.6472 14.4118L12.0588 15L12.1946 15.136L12.7832 14.5478L12.6472 14.4118ZM11.4705 15.5882L10.8823 16.1764L11.0183 16.3123L11.6064 15.7242L11.4705 15.5882ZM10.2689 16.386L10 16.6549L9.73112 16.386L9.86704 16.25L10 16.383L10.133 16.25L10.2689 16.386ZM10.8068 15.8481L11.3443 15.3106L11.2083 15.1747L10.6704 15.7121L10.8068 15.8481ZM11.8821 14.7728L12.42 14.2349L12.2837 14.0989L11.7462 14.6368L11.8821 14.7728ZM12.9575 13.6974L13.2264 13.4285L12.9575 13.1596L12.8215 13.2955L12.9545 13.4285L12.8215 13.5614L12.9575 13.6974ZM12.42 12.6217L11.8821 12.0842L11.7462 12.2202L12.2837 12.7577L12.42 12.6217ZM11.3443 11.5463L10.8068 11.0085L10.6704 11.1445L11.2083 11.6823L11.3443 11.5463ZM10.2689 10.471L10.1923 10.5476V11.1538H9.80769V10.5476L9.73107 10.471L10 10.2021L10.2689 10.471ZM9.73107 9.529L9.80769 9.45237V8.84615H10.1923V9.45237L10.2689 9.529L10 9.79793L9.73107 9.529ZM10.9428 9.12748L10.8064 8.99151L10.6704 8.85554L11.2083 8.31768L11.3443 8.45365L11.4802 8.58962L10.9428 9.12748ZM11.8821 7.91579L12.42 7.37831L12.2837 7.24234L11.7462 7.77982L11.8821 7.91579ZM12.9575 6.84045L13.2264 6.57151L12.9575 6.30258L12.8215 6.43855L12.9545 6.57151L12.8215 6.70448L12.9575 6.84045ZM12.42 5.7651L11.8821 5.22724L11.7462 5.36321L12.2837 5.90107L12.42 5.7651ZM11.3443 4.68938L10.8068 4.15189L10.6704 4.28786L11.2083 4.82535L11.3443 4.68938ZM10.2689 3.61403L10 3.3451L9.73112 3.61403L9.86704 3.75L10 3.61704L10.133 3.75L10.2689 3.61403ZM9.19358 4.15189L8.65572 4.68938L8.79169 4.82535L9.32955 4.28786L9.19358 4.15189ZM8.11786 5.22724L7.58038 5.7651L7.71635 5.90107L8.25383 5.36321L8.11786 5.22724ZM7.04252 6.30258L6.77359 6.57151L7.04252 6.84045L7.17849 6.70448L7.04552 6.57151L7.17849 6.43855L7.04252 6.30258ZM7.58 7.37831L8.11786 7.91579L8.25383 7.77982L7.71635 7.24234L7.58 7.37831ZM8.65572 8.45365L9.19358 8.99151L9.32955 8.85554L8.79169 8.31768L8.65572 8.45365ZM8.65572 11.5463L9.19358 11.0085L9.32955 11.1445L8.79169 11.6823L8.65572 11.5463ZM8.11786 12.0842L7.58038 12.6217L7.71635 12.7577L8.25383 12.2202L8.11786 12.0842ZM7.04252 13.1596L6.77359 13.4285L7.04252 13.6974L7.17849 13.5614L7.04552 13.4285L7.17849 13.2955L7.04252 13.1596ZM7.58038 14.2349L8.11786 14.7728L8.25383 14.6368L7.71635 14.0989L7.58038 14.2349ZM8.65572 15.3106L9.19358 15.8481L9.32955 15.7121L8.79169 15.1747L8.65572 15.3106ZM10.1923 15.7692V15H9.80769V15.7692H10.1923ZM10.1923 14.2308V13.4615H9.80769V14.2308H10.1923ZM10.1923 12.6923V11.9231H9.80769V12.6923H10.1923ZM0.384615 10.1923V9.80769H0V10.1923H0.384615ZM1.92308 10.1923V9.80769H1.15385V10.1923H1.92308ZM18.0769 10.1923H18.8462V9.80769H18.0769V10.1923ZM19.6154 10.1923H20V9.80769H19.6154V10.1923ZM10.1923 8.07692V7.30769H9.80769V8.07692H10.1923ZM10.1923 6.53846V5.76923H9.80769V6.53846H10.1923ZM10.1923 5V4.23077H9.80769V5H10.1923ZM10.1923 1.92308V1.15385H9.80769V1.92308H10.1923ZM10.1923 0.384615V0H9.80769V0.384615H10.1923ZM10.3846 10V10.1923H11.1538V10V9.80769H10.3846V10ZM11.9231 10V10.1923H12.6923V10V9.80769H11.9231V10ZM13.4615 10V10.1923H14.2308V10V9.80769H13.4615V10ZM15 10V10.1923H15.7692V10V9.80769H15V10ZM9.61539 10V9.80769H8.84615V10V10.1923H9.61539V10ZM8.07692 10V9.80769H7.30769V10V10.1923H8.07692V10ZM6.53846 10V9.80769H5.76923V10V10.1923H6.53846V10ZM5 10V9.80769H4.23077V10V10.1923H5V10Z" fill="white"/>
<path fill-rule="evenodd" clip-rule="evenodd" d="M5.58819 12.6472L5.72416 12.5109L5.13597 11.9227L4.99995 12.0587L4.41176 11.4705L4.54778 11.3345L3.95959 10.7463L3.82357 10.8823L3.23538 10.2941L2.94119 10L3.23538 9.7059L3.82357 9.11771L4.41176 8.52952L4.99995 7.94133L5.58819 7.35276L6.17652 6.76457L6.76467 6.17638L7.35276 5.58819L7.94124 5L8.52948 4.41181L9.11767 3.82362L9.7059 3.23543L10 2.94133L10.2941 3.23543L10.8823 3.82362L11.4705 4.41181L12.0588 5L12.6472 5.58819L13.2353 6.17638L13.8235 6.76457L14.4118 7.35276L15 7.94133L15.5882 8.52952L16.1764 9.11771L16.7646 9.7059L17.0588 10L16.7646 10.2941L16.1764 10.8823L15.5882 11.4705L15 12.0587L14.4118 12.6472L13.8235 13.2354L13.2353 13.8236L12.6472 14.4118L12.0588 15L11.4705 15.5882L10.8823 16.1764L10.2941 16.7646L10 17.0587L9.7059 16.7646L9.11771 16.1764L8.52952 15.5882L7.94124 15L7.35276 14.4118L6.76467 13.8236L6.17652 13.2354L5.58819 12.6472ZM9.73107 10.471L9.19358 11.0085L8.65572 11.5463L8.11786 12.0842L7.58038 12.6217L7.04252 13.1596L6.77359 13.4285L7.04252 13.6974L7.58038 14.2349L8.11786 14.7728L8.65572 15.3106L9.19358 15.8481L9.73112 16.386L10 16.6549L10.2689 16.386L10.8068 15.8481L11.3443 15.3106L11.8821 14.7728L12.42 14.2349L12.9575 13.6974L13.2264 13.4285L12.9575 13.1596L12.42 12.6217L11.8821 12.0842L11.3443 11.5463L10.8068 11.0085L10.2689 10.471L10 10.2021L9.73107 10.471ZM10.2689 9.529L10.8064 8.99151L10.9428 9.12748L11.4802 8.58962L11.3443 8.45365L11.8821 7.91579L12.42 7.37831L12.9575 6.84045L13.2264 6.57151L12.9575 6.30258L12.42 5.7651L11.8821 5.22724L11.3443 4.68938L10.8068 4.15189L10.2689 3.61403L10 3.3451L9.73112 3.61403L9.19358 4.15189L8.65572 4.68938L8.11786 5.22724L7.58038 5.7651L7.04252 6.30258L6.77359 6.57151L7.04252 6.84045L7.58 7.37831L8.11786 7.91579L8.65572 8.45365L9.19358 8.99151L9.73107 9.529L10 9.79793L10.2689 9.529ZM10.3846 10V10.1923H11.1538V10V9.80769H10.3846V10ZM11.9231 10V10.1923H12.6923V10V9.80769H11.9231V10ZM13.4615 10V10.1923H14.2308V10V9.80769H13.4615V10ZM15 10V10.1923H15.7692V10V9.80769H15V10ZM9.61539 10V9.80769H8.84615V10V10.1923H9.61539V10ZM8.07692 10V9.80769H7.30769V10V10.1923H8.07692V10ZM6.53846 10V9.80769H5.76923V10V10.1923H6.53846V10ZM5 10V9.80769H4.23077V10V10.1923H5V10Z" fill="#1297F5"/>
</svg>
